<svg width="33" height="32" viewBox="0 0 33 32" fill="none" xmlns="http://www.w3.org/2000/svg">
<g clip-path="url(#clip0_132_4726)">
<path d="M32.5 16C32.5 24.8374 25.3369 31.9995 16.5 32C7.66306 31.9995 0.5 24.8374 0.5 16C0.5 7.16356 7.66306 0.0005 16.5 0C25.3369 0.0005 32.5 7.16356 32.5 16Z" fill="#47CEAC"/>
<path d="M20.7271 31.4316C26.8989 29.7446 31.5801 24.4575 32.3755 17.9653L25.2852 10.875L13.5786 24.2842L20.7271 31.4316Z" fill="#36BB9A"/>
<path d="M25.2852 10.875C22.5147 10.875 18.8668 10.0722 16.503 7.70949V7.70361C16.502 7.70505 16.5005 7.70605 16.4995 7.70605L16.4971 7.70361L16.4966 7.70999C14.1338 10.0723 10.4853 10.8751 7.71484 10.8746C7.71484 17.6544 11.8188 23.5777 16.4971 26.6622V26.6671C16.4985 26.6661 16.4995 26.6646 16.4995 26.6646C16.4995 26.6646 16.502 26.6661 16.503 26.6671V26.6622C21.1822 23.5776 25.2852 17.6538 25.2852 10.875Z" fill="#F4F6F9"/>
<path d="M16.5029 7.70361C16.5019 7.70505 16.501 7.70555 16.5 7.70555V26.6651C16.501 26.6651 16.5019 26.666 16.5029 26.667V26.6621C21.1821 23.5776 25.2852 17.6538 25.2852 10.875C22.5147 10.875 18.8667 10.0722 16.5029 7.70949V7.70361Z" fill="#E5E8EC"/>
<path d="M15.7818 20.5288L15.773 20.5205L15.7651 20.5288L12.6162 17.3589L14.1353 15.8379L15.773 17.478L19.3848 13.8623L20.9038 15.3828L15.7818 20.5288Z" fill="#47CEAC"/>
</g>
<defs>
<clipPath id="clip0_132_4726">
<rect width="32" height="32" fill="white" transform="translate(0.5)"/>
</clipPath>
</defs>
</svg>
