<svg xmlns="http://www.w3.org/2000/svg" width="18" height="21.977" viewBox="0 0 18 21.977">
  <path id="Path_22795" data-name="Path 22795" d="M102.786,60.811a.593.593,0,0,1-.4.157.615.615,0,0,1-.4-.152.6.6,0,0,1-.8,0l-.4.4a.745.745,0,0,1,.16.36c0,.321-.118.321-.118.72,0,1,1.159,1.322,1.159,1.322s1.162-.323,1.162-1.322h0c0-.4-.121-.4-.121-.72a.776.776,0,0,1,.16-.36ZM97,59.115,95.873,60.24l.281,1.125h1.687l.281-1.125Zm-3.023-1.223.7,2.393a.138.138,0,0,0,.233.053L97,58.271l2.092,2.073a.135.135,0,0,0,.231-.048l.8-2.4a2.357,2.357,0,0,1,.591.1,12.271,12.271,0,0,1,4.387,2.138,2.348,2.348,0,0,1,.9,1.8v4.5H98.123l-.3-4.5H96.185l-.312,4.5H88v-4.5a2.348,2.348,0,0,1,.9-1.8,14.472,14.472,0,0,1,4.387-2.138A2.911,2.911,0,0,1,93.974,57.892Zm-1.387-6.719a7.985,7.985,0,0,0,8.84.14,4.616,4.616,0,0,1,.07.771,4.5,4.5,0,1,1-8.91-.911Zm3.847-4.7-.368.352a.666.666,0,0,1,.141.318c0,.281-.1.281-.1.636,0,.883,1.024,1.164,1.024,1.164s1.024-.284,1.024-1.164h.011c0-.354-.1-.354-.11-.636a.68.68,0,0,1,.141-.318l-.352-.352a.513.513,0,0,1-.343.138.547.547,0,0,1-.354-.132.533.533,0,0,1-.354.132.513.513,0,0,1-.354-.138Zm.377-1.941a.69.69,0,0,1,.652,0c.638.338,2.205,1.083,2.838,1.325a20.908,20.908,0,0,0,2.63.72l-.011.008a.681.681,0,0,1,.335,1.145l-1.125,1.125v.335a1.218,1.218,0,0,1-.562,1.024l-.582.377a7.177,7.177,0,0,1-7.962-.124l-.363-.25a1.218,1.218,0,0,1-.526-1v-.368L91.01,47.722a.681.681,0,0,1,.335-1.145,20.9,20.9,0,0,0,2.63-.72c.633-.242,2.2-.987,2.838-1.325Z" transform="translate(-87.998 -44.45)" fill="#fff" fill-rule="evenodd"/>
</svg>
