<svg width="24" height="24" viewBox="0 0 24 24" fill="none" xmlns="http://www.w3.org/2000/svg">
<g clip-path="url(#clip0_131_4670)">
<path d="M21.0353 19.4104C18.0541 22.8964 12.1423 25.2889 6.8964 23.2482C3.13613 21.7854 -0.33118 18.0024 0.025294 13.8485C0.251199 11.2161 2.02979 8.23682 4.69628 6.93021C6.79468 5.90199 8.60131 6.32204 9.75172 4.79284C10.7626 3.44911 9.93565 2.36968 10.7938 1.29882C12.1509 -0.394493 16.3607 -0.368501 18.9323 1.0074C24.0248 3.73215 26.2162 13.3523 21.0353 19.4104Z" fill="#E6EDFF"/>
<path d="M1.42993 15.1172H3.57179V18.1276H1.42993V15.1172Z" fill="#FDD2B5"/>
<path d="M1.42993 15.1172H2.34907V18.1276H1.42993V15.1172Z" fill="#F9C19B"/>
<path d="M9.73364 15.1172H11.8903V18.1276H9.73364V15.1172Z" fill="#FDD2B5"/>
<path d="M11.8902 18.3829H9.73359C9.66587 18.3829 9.60093 18.356 9.55305 18.3081C9.50517 18.2602 9.47827 18.1953 9.47827 18.1276V15.1171C9.47827 15.0494 9.50517 14.9845 9.55305 14.9366C9.60093 14.8887 9.66587 14.8618 9.73359 14.8618H11.8902C11.9579 14.8618 12.0229 14.8887 12.0707 14.9366C12.1186 14.9845 12.1455 15.0494 12.1455 15.1171V18.1276C12.1455 18.1953 12.1186 18.2602 12.0707 18.3081C12.0229 18.356 11.9579 18.3829 11.8902 18.3829ZM9.98891 17.8723H11.6349V15.3725H9.98891V17.8723Z" fill="#333333"/>
<path d="M9.73362 18.1277H3.57179V13.7664V15.1128L1.42993 15.1173V13.8831C1.42993 11.5658 3.31096 9.68726 5.63128 9.68726H7.68889C10.0093 9.68726 11.8902 11.5658 11.8902 13.8831V15.1173H9.73362V18.1277Z" fill="#FCCA3D"/>
<path d="M6.29741 9.68726H5.63128C3.31096 9.68726 1.42993 11.5658 1.42993 13.8831V15.1173L2.34907 15.1154V14.1384C2.34907 11.9061 4.09499 10.0816 6.29741 9.95085V9.68726Z" fill="#E5A505"/>
<path d="M6.65262 11.5959C5.84398 11.5959 5.18848 10.9413 5.18848 10.1337V4.94556H8.11681V10.1337C8.11676 10.9412 7.46126 11.5959 6.65262 11.5959Z" fill="#FDD2B5"/>
<path d="M5.95443 10.1337V4.94556H5.18848V10.1337C5.18848 10.9412 5.84403 11.5959 6.65262 11.5959C6.78518 11.5959 6.9135 11.5779 7.0356 11.545C6.41277 11.3769 5.95443 10.8089 5.95443 10.1337Z" fill="#F9C19B"/>
<path d="M6.66002 9.16272C6.14 9.16339 5.63021 9.0183 5.18848 8.7439V9.50985C5.63019 9.78428 6.14 9.92938 6.66002 9.92867C7.19384 9.92867 7.69253 9.7789 8.11682 9.5193V8.75334C7.67837 9.02177 7.17412 9.16347 6.66002 9.16272Z" fill="#F9C19B"/>
<path d="M6.65996 9.16274C8.20376 9.16274 9.45523 7.91128 9.45523 6.36747V2.0979H3.86475V6.36747C3.86475 7.91122 5.11621 9.16274 6.65996 9.16274Z" fill="#FDD2B5"/>
<path d="M9.45528 4.44484L7.09569 4.45143C6.24839 4.40062 5.45088 4.2582 4.71015 3.67593C4.36777 3.40677 3.86475 3.65617 3.86475 4.09138V4.9084C3.86475 4.47323 4.36772 4.22379 4.71015 4.49294C5.45088 5.07522 6.24839 5.21764 7.09569 5.26844L9.45528 5.26186V4.44484Z" fill="#F9C19B"/>
<path d="M4.38556 1.47906C4.38556 0.803231 4.93414 0.255371 5.61088 0.255371H5.80865C7.21101 0.255371 8.5671 0.809359 9.53082 1.82675C10.1723 2.5039 10.6853 3.4279 10.685 4.65127C10.6846 6.34132 9.4554 6.621 9.4554 6.621V4.44483L7.09581 4.45141C6.24846 4.4006 5.451 4.25819 4.71027 3.67591C4.36789 3.40676 3.86487 3.65615 3.86487 4.09136V6.60798C3.86487 6.60798 2.46767 6.6211 2.47237 4.24307C2.47231 4.24297 2.35849 1.53119 4.38556 1.47906Z" fill="#616161"/>
<path d="M3.13618 4.85568C3.13618 4.85568 3.02236 2.1439 5.04942 2.09177C5.04942 1.41594 5.598 0.868082 6.27474 0.868082H6.47251C7.61225 0.868082 8.72145 1.23405 9.61425 1.91728C9.58683 1.88676 9.55903 1.85658 9.53086 1.82675C8.56709 0.809359 7.21104 0.255371 5.80869 0.255371H5.61092C4.93417 0.255371 4.3856 0.803231 4.3856 1.47906C2.35853 1.53119 2.47235 4.24297 2.47235 4.24297C2.46924 5.81307 3.0772 6.34066 3.49071 6.518C3.28666 6.16761 3.13465 5.64267 3.13618 4.85568Z" fill="#4C4C4C"/>
<path d="M22.5701 18.1276H20.4282V15.1172H22.5701V18.1276Z" fill="#FDD2B5"/>
<path d="M21.6511 15.1172H22.5703V18.1276H21.6511V15.1172Z" fill="#F9C19B"/>
<path d="M14.2665 18.1276H12.1099V15.1172H14.2665V18.1276Z" fill="#FDD2B5"/>
<path d="M14.2664 18.3829H12.1098C12.0421 18.3829 11.9772 18.356 11.9293 18.3081C11.8814 18.2602 11.8545 18.1953 11.8545 18.1276V15.1171C11.8545 15.0494 11.8814 14.9845 11.9293 14.9366C11.9772 14.8887 12.0421 14.8618 12.1098 14.8618H14.2664C14.3341 14.8618 14.3991 14.8887 14.447 14.9366C14.4948 14.9845 14.5217 15.0494 14.5217 15.1171V18.1276C14.5217 18.1953 14.4948 18.2602 14.447 18.3081C14.3991 18.356 14.3341 18.3829 14.2664 18.3829ZM12.3651 17.8723H14.0111V15.3725H12.3651V17.8723Z" fill="#333333"/>
<path d="M14.2665 18.1277H20.4283V13.7664V15.1128L22.5702 15.1173V13.8831C22.5702 11.5658 20.6891 9.68726 18.3688 9.68726H16.3112C13.9908 9.68726 12.1099 11.5658 12.1099 13.8831V15.1173H14.2665V18.1277Z" fill="#1FD4AF"/>
<path d="M17.7026 9.68726H18.3688C20.6891 9.68726 22.5701 11.5658 22.5701 13.8831V15.1173L21.651 15.1154V14.1384C21.651 11.9061 19.9051 10.0816 17.7026 9.95085V9.68726Z" fill="#0EAF89"/>
<path d="M17.3326 11.5959C16.5239 11.5959 15.8684 10.9413 15.8684 10.1337V4.94556H18.7967V10.1337C18.7967 10.9412 18.1412 11.5959 17.3326 11.5959Z" fill="#FDD2B5"/>
<path d="M16.6344 10.1337V4.94556H15.8684V10.1337C15.8684 10.9412 16.524 11.5959 17.3326 11.5959C17.4651 11.5959 17.5934 11.5779 17.7155 11.545C17.0927 11.3769 16.6344 10.8089 16.6344 10.1337Z" fill="#F9C19B"/>
<path d="M17.34 9.16272C16.8199 9.16339 16.3101 9.0183 15.8684 8.7439V9.50985C16.3101 9.78428 16.8199 9.92938 17.34 9.92867C17.8738 9.92867 18.3725 9.7789 18.7967 9.5193V8.75334C18.3583 9.02176 17.854 9.16346 17.34 9.16272Z" fill="#F9C19B"/>
<path d="M17.3399 9.16274C18.8837 9.16274 20.1352 7.91128 20.1352 6.36747V2.0979H14.5447V6.36747C14.5447 7.91122 15.7961 9.16274 17.3399 9.16274Z" fill="#FDD2B5"/>
<path d="M20.1352 4.44484L17.7756 4.45143C16.9283 4.40062 16.1308 4.2582 15.3901 3.67593C15.0477 3.40677 14.5447 3.65617 14.5447 4.09138V4.9084C14.5447 4.47323 15.0477 4.22379 15.3901 4.49294C16.1308 5.07522 16.9283 5.21764 17.7756 5.26844L20.1352 5.26186V4.44484Z" fill="#F9C19B"/>
<path d="M15.0655 1.47906C15.0655 0.803231 15.6141 0.255371 16.2908 0.255371H16.4886C17.8909 0.255371 19.247 0.809359 20.2108 1.82675C20.8522 2.5039 21.3653 3.4279 21.3649 4.65127C21.3645 6.34132 20.1353 6.621 20.1353 6.621V4.44483L17.7757 4.45141C16.9284 4.4006 16.1309 4.25819 15.3902 3.67591C15.0478 3.40676 14.5448 3.65615 14.5448 4.09136V6.60798C14.5448 6.60798 13.1476 6.6211 13.1523 4.24307C13.1522 4.24297 13.0384 1.53119 15.0655 1.47906Z" fill="#616161"/>
<path d="M13.8161 4.85568C13.8161 4.85568 13.7023 2.1439 15.7294 2.09177C15.7294 1.41594 16.2779 0.868082 16.9547 0.868082H17.1524C18.2922 0.868082 19.4014 1.23405 20.2942 1.91728C20.2668 1.88676 20.239 1.85658 20.2108 1.82675C19.247 0.809359 17.891 0.255371 16.4886 0.255371H16.2908C15.6141 0.255371 15.0655 0.803231 15.0655 1.47906C13.0385 1.53119 13.1523 4.24297 13.1523 4.24297C13.1492 5.81307 13.7571 6.34066 14.1706 6.518C13.9666 6.16761 13.8145 5.64267 13.8161 4.85568Z" fill="#4C4C4C"/>
<path d="M6.91455 18.887H8.99712V21.818H6.91455V18.887Z" fill="#FDD2B5"/>
<path d="M6.91455 18.887H7.83369V21.818H6.91455V18.887Z" fill="#F9C19B"/>
<path d="M14.9885 18.887H17.0854V21.818H14.9885V18.887Z" fill="#FDD2B5"/>
<path d="M17.0854 22.0732H14.9885C14.9208 22.0732 14.8558 22.0463 14.8079 21.9984C14.7601 21.9505 14.7332 21.8856 14.7332 21.8179V18.8869C14.7332 18.8192 14.7601 18.7543 14.8079 18.7064C14.8558 18.6585 14.9208 18.6316 14.9885 18.6316H17.0854C17.1531 18.6316 17.218 18.6585 17.2659 18.7064C17.3138 18.7543 17.3407 18.8192 17.3407 18.8869V21.8179C17.3407 21.8856 17.3138 21.9505 17.2659 21.9984C17.218 22.0463 17.1531 22.0732 17.0854 22.0732ZM15.2437 21.5625H16.83V19.1422H15.2437V21.5625Z" fill="#333333"/>
<path d="M14.9884 21.818H8.99712V17.5719V18.8827L6.91455 18.887V17.6854C6.91455 15.4293 8.74349 13.6003 10.9996 13.6003H13.0002C15.2564 13.6003 17.0853 15.4293 17.0853 17.6854V18.887H14.9884V21.818Z" fill="#5C6BC0"/>
<path d="M7.83369 18.0429C7.83369 15.7867 9.66264 13.9578 11.9188 13.9578H13.9194C14.2677 13.9578 14.6057 14.0016 14.9285 14.0837C14.3541 13.7755 13.6977 13.6003 13.0003 13.6003H10.9996C8.74349 13.6003 6.91455 15.4293 6.91455 17.6854V18.887L7.83369 18.8851V18.0429Z" fill="#5060A3"/>
<path d="M11.9927 15.4585C11.2065 15.4585 10.5691 14.8211 10.5691 14.0348V8.98364H13.4163V14.0348C13.4164 14.8211 12.779 15.4585 11.9927 15.4585Z" fill="#FDD2B5"/>
<path d="M11.9927 12.9991C11.49 12.9998 10.997 12.8604 10.5691 12.5964V13.4135C10.997 13.6774 11.49 13.8168 11.9927 13.8161C12.4955 13.8168 12.9885 13.6774 13.4164 13.4135V12.5964C12.9885 12.8604 12.4955 12.9998 11.9927 12.9991Z" fill="#F9C19B"/>
<path d="M11.3864 14.0348V8.98364H10.5693V14.0348C10.5693 14.8211 11.2067 15.4585 11.993 15.4585C12.1313 15.4585 12.269 15.4384 12.4015 15.3987C11.8144 15.223 11.3864 14.6791 11.3864 14.0348Z" fill="#F9C19B"/>
<path d="M11.9928 12.999C10.4917 12.999 9.2749 11.7822 9.2749 10.2811V6.12061H14.7107V10.2811C14.7107 11.7822 13.4939 12.999 11.9928 12.999Z" fill="#FDD2B5"/>
<path d="M14.6197 8.58916C13.8167 8.82583 12.9665 8.85308 12.1501 8.66832C11.3336 8.48356 10.578 8.09294 9.95512 7.53363C9.6926 7.29792 9.2749 7.4842 9.2749 7.83705V8.40518C9.39378 8.19102 9.69684 8.11351 9.90406 8.29958C10.5269 8.85888 11.2825 9.24949 12.099 9.43425C12.9155 9.61901 13.7656 9.59177 14.5686 9.35512C14.5989 9.34618 14.6793 9.32964 14.7088 9.31922V8.55888C14.6793 8.56925 14.65 8.58023 14.6197 8.58916Z" fill="#F9C19B"/>
<path d="M15.4672 7.28671C15.4403 6.35398 14.9533 5.48973 14.1585 5.00095C13.4417 4.55992 12.6165 4.32649 11.7749 4.32666H10.7999C10.1419 4.32666 9.60849 4.86007 9.60849 5.51807C7.63754 5.56883 7.7482 8.20907 7.7482 8.20907C7.74365 10.5243 9.27495 10.5243 9.27495 10.5243V7.83697C9.27495 7.48412 9.69265 7.29784 9.95516 7.53355C10.578 8.09285 11.3336 8.48346 12.1501 8.66821C12.9666 8.85297 13.8167 8.82573 14.6197 8.58908C14.65 8.58015 14.6793 8.56922 14.7089 8.5588V10.5244C14.7089 10.5244 15.2678 10.3057 15.7094 9.622C16.0411 9.1082 16.1827 8.50789 16.1392 7.91505C16.1133 7.56153 15.8215 7.28671 15.4672 7.28671Z" fill="#616161"/>
<path d="M8.41202 8.82183C8.41202 8.82183 8.30132 6.18159 10.2723 6.13084C10.2723 5.47283 10.8057 4.93942 11.4637 4.93942H12.4387C13.2803 4.93925 14.1055 5.17268 14.8223 5.61372C14.8434 5.62669 14.8634 5.64103 14.8841 5.65452C14.6858 5.39833 14.4422 5.17539 14.1585 5.00095C13.4417 4.55992 12.6165 4.32649 11.7749 4.32666H10.7999C10.1419 4.32666 9.60849 4.86007 9.60849 5.51807C7.63754 5.56883 7.7482 8.20907 7.7482 8.20907C7.74539 9.63246 8.32302 10.1806 8.7685 10.3918C8.56133 10.0497 8.41059 9.55046 8.41202 8.82183Z" fill="#4C4C4C"/>
<path d="M12.0001 20.5385L10.9189 19.1114L11.4936 15.4585H12.5709L13.0813 19.1114L12.0001 20.5385Z" fill="#E0E0E0"/>
<path d="M17.3616 23.7447C19.1947 23.7447 20.6807 22.2587 20.6807 20.4256C20.6807 18.5925 19.1947 17.1064 17.3616 17.1064C15.5285 17.1064 14.0425 18.5925 14.0425 20.4256C14.0425 22.2587 15.5285 23.7447 17.3616 23.7447Z" fill="#ED4848"/>
<path d="M14.9106 20.4256C14.9106 18.7397 16.1678 17.3484 17.7956 17.1356C17.6518 17.1165 17.5068 17.1067 17.3616 17.1064C15.5285 17.1064 14.0425 18.5925 14.0425 20.4256C14.0425 22.2587 15.5285 23.7447 17.3616 23.7447C17.5088 23.7447 17.6535 23.7341 17.7956 23.7155C16.1678 23.5028 14.9106 22.1114 14.9106 20.4256Z" fill="#CC4040"/>
<path d="M19.1489 20.1703H17.6169V18.6384C17.6169 18.5707 17.59 18.5057 17.5422 18.4578C17.4943 18.41 17.4293 18.3831 17.3616 18.3831C17.2939 18.3831 17.229 18.41 17.1811 18.4578C17.1332 18.5057 17.1063 18.5707 17.1063 18.6384V20.1703H15.5744C15.5067 20.1703 15.4418 20.1972 15.3939 20.2451C15.346 20.2929 15.3191 20.3579 15.3191 20.4256C15.3191 20.4933 15.346 20.5583 15.3939 20.6061C15.4418 20.654 15.5067 20.6809 15.5744 20.6809H17.1063V22.2128C17.1063 22.2805 17.1332 22.3455 17.1811 22.3934C17.229 22.4412 17.2939 22.4681 17.3616 22.4681C17.4293 22.4681 17.4943 22.4412 17.5422 22.3934C17.59 22.3455 17.6169 22.2805 17.6169 22.2128V20.6809H19.1489C19.2166 20.6809 19.2815 20.654 19.3294 20.6061C19.3773 20.5583 19.4042 20.4933 19.4042 20.4256C19.4042 20.3579 19.3773 20.2929 19.3294 20.2451C19.2815 20.1972 19.2166 20.1703 19.1489 20.1703Z" fill="white"/>
<path d="M21.6669 10.8895C20.9774 10.1322 20.0558 9.63979 19.052 9.48532V8.88992C19.7415 8.41978 20.2294 7.67471 20.3562 6.81342C22.4671 5.9434 21.5804 2.9017 20.396 1.65131C19.3245 0.520253 17.8281 -0.0109605 16.2907 0.000171302C15.5556 0.000171302 14.9438 0.538176 14.8293 1.24071C13.4047 1.41535 12.8777 2.94863 12.8959 4.20443C12.2387 4.0468 11.5708 4.07152 10.9012 4.07152C10.5629 1.50312 8.03428 -0.0143307 5.61075 0.000171302C4.87564 0.000171302 4.2639 0.538176 4.14942 1.24071C1.85345 1.52212 1.25907 6.30151 3.64517 6.83451C3.77579 7.6812 4.25619 8.4135 4.93319 8.88027V9.4869C2.77479 9.82413 1.17456 11.6748 1.17456 13.8831V18.1278C1.17456 18.1955 1.20146 18.2604 1.24934 18.3083C1.29722 18.3562 1.36216 18.3831 1.42988 18.3831L1.4307 18.383H6.65929V21.8181C6.65929 21.8858 6.68619 21.9507 6.73407 21.9986C6.78195 22.0465 6.84689 22.0734 6.91461 22.0734L6.91543 22.0733H14.1912C14.788 23.217 15.9848 24.0001 17.3616 24.0001C19.3326 24.0001 20.9361 22.3966 20.9361 20.4256C20.9361 19.6696 20.6909 18.9642 20.2785 18.383H22.5693L22.5701 18.3831C22.6378 18.3831 22.7028 18.3562 22.7507 18.3083C22.7985 18.2604 22.8254 18.1955 22.8254 18.1278V13.8831C22.8254 12.7732 22.414 11.7101 21.6669 10.8895ZM22.3148 13.8831V14.862H20.6688V13.8186C20.6688 13.7509 20.6419 13.686 20.594 13.6381C20.5462 13.5902 20.4812 13.5633 20.4135 13.5633C20.3458 13.5633 20.2808 13.5902 20.233 13.6381C20.1851 13.686 20.1582 13.7509 20.1582 13.8186V17.8724H19.8413C19.1703 17.2213 18.2515 16.8257 17.2594 16.8537C16.9137 15.0824 15.455 13.6768 13.6718 13.3977V12.7344C13.813 12.6376 13.9458 12.5289 14.0685 12.4095C14.5441 11.9453 14.8447 11.3468 14.9355 10.698C15.087 10.6166 15.3477 10.4508 15.6139 10.1616C15.6289 11.0958 16.3939 11.8512 17.3326 11.8512C18.2807 11.8512 19.0521 11.0807 19.0521 10.1337V10.003C19.9668 10.1598 20.7963 10.6356 21.3936 11.3459C21.9909 12.0562 22.3172 12.9551 22.3148 13.8831ZM11.9928 15.2033C11.3486 15.2033 10.8244 14.6792 10.8244 14.035V13.0151C11.5625 13.3318 12.4227 13.3315 13.1611 13.0157V14.035C13.1611 14.6792 12.637 15.2033 11.9928 15.2033ZM12.8129 19.0469L12 20.1023L11.1885 19.049L11.7088 15.7138H12.3516L12.8129 19.0469ZM11.9928 12.7438C10.6349 12.7438 9.53018 11.6391 9.53018 10.2812V7.83709C9.53018 7.70622 9.68674 7.6358 9.78448 7.72363C11.0653 8.87373 12.7943 9.3044 14.4535 8.89834V10.3504C14.4165 11.6928 13.3362 12.7438 11.9928 12.7438ZM16.1237 10.1337V9.39576C16.154 9.33109 16.182 9.26536 16.2077 9.1987C16.9523 9.4962 17.8042 9.48859 18.5414 9.17108V10.1337C18.5414 10.7992 17.9991 11.3406 17.3325 11.3406C16.666 11.3406 16.1237 10.7992 16.1237 10.1337ZM19.8799 6.36759C19.8799 7.76811 18.7405 8.90754 17.3399 8.90754C16.9987 8.90816 16.6609 8.83914 16.3473 8.70471C16.3983 8.43852 16.4139 8.16676 16.3938 7.89648C16.3643 7.49497 16.0803 7.16545 15.7087 7.06394C15.6372 6.33731 15.3126 5.6722 14.8 5.17832V4.09143C14.8 3.8738 15.0588 3.74032 15.2323 3.87671C16.0529 4.52179 16.9323 4.6567 17.7603 4.70639C17.7657 4.7067 17.7717 4.70685 17.7763 4.70685L19.8799 4.70098V6.36759ZM14.0278 2.17818C14.2964 1.8908 14.6379 1.74562 15.072 1.73449C15.1385 1.73277 15.2018 1.70513 15.2482 1.65744C15.2947 1.60975 15.3207 1.54581 15.3207 1.47923C15.3207 0.945255 15.7558 0.510857 16.2907 0.510857C17.6895 0.502279 19.0487 0.971604 20.0253 2.00252C20.935 2.96288 21.8312 5.29765 20.3905 6.22762V4.44499C20.3905 4.29339 20.2651 4.20974 20.1345 4.18968L17.7829 4.19621C16.9252 4.14418 16.2165 4.001 15.5478 3.47535C15.0477 3.08216 14.2893 3.46294 14.2893 4.09148V4.78201C14.0109 4.61115 13.7159 4.46909 13.4088 4.35803C13.3946 3.61302 13.4975 2.74555 14.0278 2.17818ZM11.7748 4.58215C12.5692 4.58205 13.348 4.80237 14.0246 5.21861C14.7433 5.66056 15.1872 6.43652 15.2119 7.29424C15.2138 7.36065 15.2415 7.4237 15.2892 7.47C15.3368 7.5163 15.4006 7.5422 15.4671 7.5422C15.6851 7.5422 15.8684 7.71423 15.8845 7.93381C15.9056 8.22063 15.8795 8.50199 15.8091 8.77023C15.8071 8.77641 15.8055 8.78259 15.804 8.78881C15.7374 9.03497 15.6331 9.26933 15.4948 9.48353C15.3206 9.75335 15.126 9.94234 14.9641 10.069V8.55882C14.9641 8.31397 14.7236 8.29207 14.5475 8.34426C12.9882 8.80378 11.3352 8.42974 10.1257 7.34367C9.70671 6.96738 9.01955 7.27396 9.01955 7.83704V10.2177C8.43599 10.0261 8.1481 9.44003 8.05327 8.87235C7.8385 7.70887 8.13385 5.81161 9.61495 5.77341C9.68151 5.77169 9.74476 5.74405 9.79122 5.69636C9.83769 5.64867 9.86369 5.58472 9.86368 5.51815C9.86368 5.002 10.2836 4.58205 10.7998 4.58205H11.7748V4.58215ZM3.60937 4.09143V6.29227C1.91646 5.60327 2.52463 1.78239 4.39202 1.73444C4.45858 1.73272 4.52183 1.70507 4.5683 1.65739C4.61476 1.6097 4.64076 1.54575 4.64075 1.47917C4.64075 0.945204 5.07586 0.510806 5.6107 0.510806C7.77682 0.493598 10.0835 1.82166 10.3942 4.12968C10.1292 4.20755 9.89207 4.35946 9.71054 4.56755V4.44494C9.71054 4.29334 9.58508 4.20969 9.45451 4.18963L7.10293 4.19616C6.24522 4.14413 5.53651 4.00095 4.86783 3.4753C4.36777 3.08216 3.60937 3.46284 3.60937 4.09143ZM4.12001 6.36759V4.09143C4.12001 3.8738 4.3788 3.74032 4.55231 3.87671C5.3729 4.52179 6.25232 4.6567 7.08041 4.70639C7.08572 4.7067 7.09088 4.70685 7.0964 4.70685L9.19996 4.70098V5.30904C7.91704 5.57973 7.45185 7.05 7.4928 8.21394C7.49229 8.39499 7.50216 8.57591 7.52237 8.75583C7.24596 8.85637 6.95408 8.90771 6.65996 8.90754C5.25944 8.90749 4.12001 7.76811 4.12001 6.36759ZM7.86143 9.86835V10.1337C7.86143 10.7992 7.31919 11.3406 6.6526 11.3406C5.98602 11.3406 5.44378 10.7992 5.44378 10.1337V9.16495C6.12389 9.46178 6.91216 9.49783 7.61653 9.26432C7.67637 9.48818 7.75854 9.68927 7.86143 9.86835ZM3.31637 17.8724H1.68514V15.3721L3.31637 15.3687V17.8724ZM6.65924 17.6855V17.8724H3.827V13.7664C3.827 13.6987 3.8001 13.6338 3.75222 13.5859C3.70434 13.538 3.6394 13.5111 3.57169 13.5111C3.50397 13.5111 3.43903 13.538 3.39115 13.5859C3.34327 13.6338 3.31637 13.6987 3.31637 13.7664V14.858L1.68514 14.8614V13.8831C1.68329 12.9578 2.00805 12.0615 2.60222 11.3521C3.19638 10.6427 4.02183 10.1658 4.93314 10.0053C4.9046 10.9858 5.64272 11.8513 6.6526 11.8513C7.49924 11.8513 8.20442 11.2367 8.34577 10.4309C8.55515 10.5918 8.79871 10.7025 9.05764 10.7543C9.18918 11.5735 9.65687 12.2814 10.3138 12.7329V13.4016C8.21509 13.7331 6.65924 15.5344 6.65924 17.6855ZM8.74181 21.5627H7.16988V19.1419L8.74181 19.1386V21.5627ZM13.9737 21.5627H9.25245V17.5719C9.25245 17.5042 9.22555 17.4392 9.17767 17.3914C9.12979 17.3435 9.06485 17.3166 8.99713 17.3166C8.92942 17.3166 8.86448 17.3435 8.81659 17.3914C8.76871 17.4392 8.74181 17.5042 8.74181 17.5719V18.6279L7.16988 18.6312V17.6855C7.16988 15.8148 8.50289 14.2435 10.3138 13.9183C10.2906 14.5648 10.604 15.1813 11.176 15.5012L10.565 19.0685C10.5588 19.1048 10.5605 19.142 10.57 19.1775C10.5795 19.2131 10.5966 19.2462 10.6201 19.2746L11.8034 20.7016C11.904 20.823 12.0959 20.823 12.1965 20.7016L13.3798 19.2746C13.4028 19.2468 13.4197 19.2144 13.4293 19.1797C13.439 19.1449 13.4411 19.1085 13.4356 19.0728L12.8803 15.4593C13.414 15.1255 13.691 14.5345 13.6717 13.9149C14.4257 14.0465 15.1225 14.4021 15.6714 14.9354C16.2204 15.4687 16.596 16.1549 16.7494 16.9047C15.0693 17.196 13.7872 18.6634 13.7872 20.4256C13.7872 20.8123 13.8501 21.1963 13.9737 21.5627ZM17.3616 23.4894C15.6723 23.4894 14.2978 22.115 14.2978 20.4256C14.2978 18.7362 15.6723 17.3618 17.3616 17.3618C19.051 17.3618 20.4255 18.7362 20.4255 20.4256C20.4255 22.115 19.051 23.4894 17.3616 23.4894ZM20.6835 17.8724H20.6688V15.3726H22.3148V17.8724H20.6835Z" fill="#333333"/>
</g>
<defs>
<clipPath id="clip0_131_4670">
<rect width="24" height="24" fill="white"/>
</clipPath>
</defs>
</svg>
