<svg width="25" height="25" viewBox="0 0 25 25" fill="none" xmlns="http://www.w3.org/2000/svg">
<path d="M22.2341 2.44629C21.8205 2.44629 21.4841 2.78266 21.4841 3.19629V10.6963H22.9841V3.19629C22.9841 2.78266 22.6478 2.44629 22.2341 2.44629ZM22.6091 8.07129H21.8591V3.94629H22.6091V8.07129ZM21.4841 22.541L22.2341 23.291L22.9841 22.541V12.9463H21.4841V22.541ZM21.4841 11.4463H22.9841V12.1963H21.4841V11.4463ZM18.8591 2.44629H3.48413V4.32129H4.60913C5.22938 4.32129 5.73413 4.82604 5.73413 5.44629C5.73413 6.06654 5.22938 6.57129 4.60913 6.57129H3.48413V8.07129H4.60913C5.22938 8.07129 5.73413 8.57604 5.73413 9.19629C5.73413 9.81654 5.22938 10.3213 4.60913 10.3213H3.48413V11.8213H4.60913C5.22938 11.8213 5.73413 12.326 5.73413 12.9463C5.73413 13.5665 5.22938 14.0713 4.60913 14.0713H3.48413V15.5713H4.60913C5.22938 15.5713 5.73413 16.076 5.73413 16.6963C5.73413 17.3165 5.22938 17.8213 4.60913 17.8213H3.48413V19.3213H4.60913C5.22938 19.3213 5.73413 19.826 5.73413 20.4463C5.73413 21.0665 5.22938 21.5713 4.60913 21.5713H3.48413V23.4463H18.8591V2.44629ZM11.7341 18.9463C8.63251 18.9463 6.10913 16.4229 6.10913 13.3213C6.10913 10.2197 8.63251 7.69629 11.7341 7.69629C14.8358 7.69629 17.3591 10.2197 17.3591 13.3213C17.3591 16.4229 14.8358 18.9463 11.7341 18.9463Z" fill="#231F20"/>
<path d="M11.7341 8.44629C9.04613 8.44629 6.85913 10.6333 6.85913 13.3213C6.85913 16.0093 9.04613 18.1963 11.7341 18.1963C14.4221 18.1963 16.6091 16.0093 16.6091 13.3213C16.6091 10.6333 14.4221 8.44629 11.7341 8.44629ZM14.9355 14.1864L11.9715 16.6115C11.9047 16.6667 11.8208 16.6969 11.7341 16.6969C11.6475 16.6969 11.5636 16.6667 11.4968 16.6115L8.53276 14.1864C8.1453 13.8679 7.89302 13.4144 7.82677 12.9172C7.76052 12.42 7.88523 11.9163 8.17576 11.5074C8.33417 11.2864 8.53631 11.1003 8.76963 10.9606C9.00296 10.821 9.26249 10.7307 9.53213 10.6955C9.80189 10.6613 10.0758 10.6829 10.3369 10.7589C10.598 10.835 10.8406 10.9639 11.0498 11.1377L11.7341 11.708L12.4185 11.138C12.6276 10.9642 12.8703 10.8352 13.1314 10.7592C13.3924 10.6831 13.6664 10.6616 13.9361 10.6959C14.2058 10.731 14.4653 10.8212 14.6987 10.9609C14.932 11.1006 15.1341 11.2867 15.2925 11.5078C15.583 11.9166 15.7077 12.4203 15.6415 12.9174C15.5752 13.4145 15.3229 13.868 14.9355 14.1864Z" fill="#231F20"/>
<path d="M13.8405 11.4399C13.6731 11.4177 13.5028 11.4306 13.3406 11.4778C13.1785 11.525 13.0279 11.6054 12.8985 11.714L11.9741 12.4843C11.9068 12.5406 11.8219 12.5715 11.7341 12.5715C11.6464 12.5715 11.5614 12.5406 11.4941 12.4843L10.5698 11.714C10.4406 11.6052 10.2901 11.5246 10.1279 11.4774C9.96577 11.4302 9.79552 11.4174 9.62813 11.4399C9.46053 11.4606 9.29911 11.5161 9.1542 11.6029C9.0093 11.6896 8.8841 11.8056 8.78663 11.9435C8.60626 12.1972 8.52879 12.5099 8.56985 12.8185C8.61091 13.1271 8.76744 13.4086 9.00788 13.6063L11.7341 15.8368L14.4608 13.6059C14.7012 13.4082 14.8577 13.1267 14.8988 12.8181C14.9398 12.5095 14.8624 12.1969 14.682 11.9432C14.5844 11.8054 14.4592 11.6895 14.3143 11.6028C14.1694 11.5162 14.008 11.4607 13.8405 11.4399ZM2.35913 5.82129H4.60913C4.81576 5.82129 4.98413 5.65291 4.98413 5.44629C4.98413 5.23966 4.81576 5.07129 4.60913 5.07129H2.35913C2.15251 5.07129 1.98413 5.23966 1.98413 5.44629C1.98413 5.65291 2.15251 5.82129 2.35913 5.82129ZM4.60913 12.5713H2.35913C2.15251 12.5713 1.98413 12.7397 1.98413 12.9463C1.98413 13.1529 2.15251 13.3213 2.35913 13.3213H4.60913C4.81576 13.3213 4.98413 13.1529 4.98413 12.9463C4.98413 12.7397 4.81576 12.5713 4.60913 12.5713ZM4.60913 16.3213H2.35913C2.15251 16.3213 1.98413 16.4897 1.98413 16.6963C1.98413 16.9029 2.15251 17.0713 2.35913 17.0713H4.60913C4.81576 17.0713 4.98413 16.9029 4.98413 16.6963C4.98413 16.4897 4.81576 16.3213 4.60913 16.3213ZM4.60913 20.0713H2.35913C2.15251 20.0713 1.98413 20.2397 1.98413 20.4463C1.98413 20.6529 2.15251 20.8213 2.35913 20.8213H4.60913C4.81576 20.8213 4.98413 20.6529 4.98413 20.4463C4.98413 20.2397 4.81576 20.0713 4.60913 20.0713ZM4.60913 8.82129H2.35913C2.15251 8.82129 1.98413 8.98966 1.98413 9.19629C1.98413 9.40291 2.15251 9.57129 2.35913 9.57129H4.60913C4.81576 9.57129 4.98413 9.40291 4.98413 9.19629C4.98413 8.98966 4.81576 8.82129 4.60913 8.82129Z" fill="#11C9BD"/>
</svg>
