<svg id="svgexport-7_85_" data-name="svgexport-7 (85)" xmlns="http://www.w3.org/2000/svg" width="10.788" height="10.083" viewBox="0 0 10.788 10.083">
  <g id="Group_8884" data-name="Group 8884">
    <path id="Path_22633" data-name="Path 22633" d="M10.612,2H9.6V3.008a.336.336,0,1,1-.672,0V2H3.554V3.008a.336.336,0,1,1-.672,0V2H1.874A.926.926,0,0,0,1,3.008v1.21H11.755V3.008A1.134,1.134,0,0,0,10.612,2ZM1,4.924v6.15a.912.912,0,0,0,.907,1.008h8.738a1.134,1.134,0,0,0,1.143-1.008V4.924ZM3.991,10.57H3.185a.265.265,0,0,1-.269-.269v-.84a.265.265,0,0,1,.269-.269h.84a.265.265,0,0,1,.269.269v.84a.294.294,0,0,1-.3.269Zm0-3.025H3.185a.265.265,0,0,1-.269-.269v-.84a.265.265,0,0,1,.269-.269h.84a.265.265,0,0,1,.269.269v.84a.294.294,0,0,1-.3.269ZM6.68,10.57H5.84a.265.265,0,0,1-.269-.269v-.84a.265.265,0,0,1,.269-.269h.84a.265.265,0,0,1,.269.269v.84A.247.247,0,0,1,6.68,10.57Zm0-3.025H5.84a.265.265,0,0,1-.269-.269v-.84a.265.265,0,0,1,.269-.269h.84a.265.265,0,0,1,.269.269v.84A.247.247,0,0,1,6.68,7.545ZM9.368,10.57h-.84a.265.265,0,0,1-.269-.269v-.84a.265.265,0,0,1,.269-.269h.84a.265.265,0,0,1,.269.269v.84A.247.247,0,0,1,9.368,10.57Zm0-3.025h-.84a.265.265,0,0,1-.269-.269v-.84a.265.265,0,0,1,.269-.269h.84a.265.265,0,0,1,.269.269v.84A.247.247,0,0,1,9.368,7.545Z" transform="translate(-1 -2)" fill="#fff"/>
  </g>
</svg>
