<svg xmlns="http://www.w3.org/2000/svg" width="16.544" height="18.9" viewBox="0 0 16.544 18.9">
  <path id="Icon_awesome-calendar-alt" d="M64.772,442.9h-13A1.775,1.775,0,0,1,50,441.131V431.089H66.544v10.039A1.776,1.776,0,0,1,64.772,442.9Zm-2.516-4.722a.446.446,0,0,0-.443.444V440.1a.444.444,0,0,0,.443.443h1.478a.444.444,0,0,0,.443-.443v-1.479a.446.446,0,0,0-.443-.444Zm-4.725,0a.446.446,0,0,0-.443.444V440.1a.444.444,0,0,0,.443.443h1.476a.445.445,0,0,0,.444-.443v-1.479a.447.447,0,0,0-.444-.444Zm-4.726,0a.446.446,0,0,0-.443.444V440.1a.444.444,0,0,0,.443.443h1.477a.445.445,0,0,0,.444-.443v-1.479a.447.447,0,0,0-.444-.444Zm9.451-4.726a.446.446,0,0,0-.443.444v1.477a.446.446,0,0,0,.443.443h1.478a.446.446,0,0,0,.443-.443V433.9a.446.446,0,0,0-.443-.444Zm-4.725,0a.446.446,0,0,0-.443.444v1.477a.446.446,0,0,0,.443.443h1.476a.446.446,0,0,0,.444-.443V433.9a.447.447,0,0,0-.444-.444Zm-4.726,0a.446.446,0,0,0-.443.444v1.477a.446.446,0,0,0,.443.443h1.477a.446.446,0,0,0,.444-.443V433.9a.447.447,0,0,0-.444-.444Zm13.734-3.545H50v-1.771a1.774,1.774,0,0,1,1.771-1.772h1.772v-1.772a.594.594,0,0,1,.591-.591h1.181a.594.594,0,0,1,.591.591v1.772h4.726v-1.772a.594.594,0,0,1,.591-.591h1.181a.592.592,0,0,1,.595.591v1.772h1.768a1.774,1.774,0,0,1,1.772,1.772v1.77Z" transform="translate(-50 -424)" fill="#fff"/>
</svg>
