<svg xmlns="http://www.w3.org/2000/svg" width="40" height="40" viewBox="0 0 40 40">
  <g id="Call" transform="translate(-48 -375)">
    <circle id="Ellipse_705" data-name="Ellipse 705" cx="20" cy="20" r="20" transform="translate(48 375)" fill="#ffebcb"/>
    <g id="call-2" data-name="call" transform="translate(59.944 386.945)">
      <g id="Group_137" data-name="Group 137" transform="translate(0 0)">
        <g id="Group_136" data-name="Group 136" transform="translate(0 0)">
          <path id="Path_193" data-name="Path 193" d="M15.8,12.815l-1.787-1.191-1.588-1.059a.7.7,0,0,0-.945.153L10.5,11.982a.7.7,0,0,1-.894.185,11.443,11.443,0,0,1-3.2-2.462A11.525,11.525,0,0,1,3.95,6.51a.7.7,0,0,1,.185-.894L5.4,4.633a.7.7,0,0,0,.153-.945L4.526,2.149,3.3.313A.7.7,0,0,0,2.355.1L.943.947A1.724,1.724,0,0,0,.16,1.96C-.226,3.367-.3,6.472,4.671,11.446s8.079,4.9,9.486,4.511a1.724,1.724,0,0,0,1.013-.783l.847-1.411A.7.7,0,0,0,15.8,12.815Z" transform="translate(0 0)" fill="#ffa310"/>
          <path id="Path_194" data-name="Path 194" d="M282.76,62.348a4.729,4.729,0,0,1,4.724,4.724.278.278,0,0,0,.556,0,5.285,5.285,0,0,0-5.28-5.28.278.278,0,1,0,0,.556Z" transform="translate(-273.59 -59.847)" fill="#ffa310"/>
          <path id="Path_195" data-name="Path 195" d="M282.759,115.312a3.06,3.06,0,0,1,3.057,3.057.278.278,0,1,0,.556,0,3.616,3.616,0,0,0-3.612-3.612.278.278,0,1,0,0,.556Z" transform="translate(-273.589 -111.144)" fill="#ffa310"/>
          <path id="Path_196" data-name="Path 196" d="M282.76,168.279a1.391,1.391,0,0,1,1.389,1.389.278.278,0,1,0,.556,0,1.947,1.947,0,0,0-1.945-1.945.278.278,0,1,0,0,.556Z" transform="translate(-273.59 -162.444)" fill="#ffa310"/>
        </g>
      </g>
    </g>
  </g>
</svg>
