<svg xmlns="http://www.w3.org/2000/svg" width="27.429" height="24" viewBox="0 0 27.429 24">
  <path id="FontAwsome_camera_" d="M24.857,24H2.571A2.576,2.576,0,0,1,0,21.429V6A2.577,2.577,0,0,1,2.571,3.429H7.286l.659-1.763A2.581,2.581,0,0,1,10.35,0h6.723a2.582,2.582,0,0,1,2.406,1.666l.663,1.763h4.714a2.555,2.555,0,0,1,1.819.753A2.586,2.586,0,0,1,27.429,6V21.429A2.575,2.575,0,0,1,24.857,24ZM13.717,7.285a6.429,6.429,0,1,0,2.458.489A6.39,6.39,0,0,0,13.717,7.285Zm0,11.143a4.714,4.714,0,1,1,4.713-4.714A4.719,4.719,0,0,1,13.716,18.428Z" fill="#4e4b66"/>
</svg>
