<svg width="33" height="32" viewBox="0 0 33 32" fill="none" xmlns="http://www.w3.org/2000/svg">
<mask id="mask0_129_4484" style="mask-type:luminance" maskUnits="userSpaceOnUse" x="0" y="0" width="33" height="32">
<path d="M0.5 0H32.5V32H0.5V0Z" fill="white"/>
</mask>
<g mask="url(#mask0_129_4484)">
<path d="M51.6619 33.5544C45.765 35.2885 46.9477 39.4035 46.2881 43.9631C45.4649 49.6538 41.9072 46.7359 37.8196 49.8092C30.7537 55.1217 35.8865 66.8489 44.6614 65.068C49.3209 64.1222 50.273 60.687 52.1734 57.0165C54.6317 52.2682 58.7083 53.5627 62.3651 50.4629C69.781 44.1765 60.0273 31.0943 51.6619 33.5544Z" fill="url(#paint0_linear_129_4484)"/>
</g>
<path d="M6.57184 2.3895C-1.88616 9.86069 8.99878 17.1025 7.96203 25.2663C7.52584 28.7008 8.81371 31.9923 13.0128 32H13.0422C13.2715 31.9996 13.5093 31.9894 13.7561 31.969C19.5943 31.4858 17.4751 25.8934 18.6977 22.1704C20.8013 15.7641 33.7432 17.2604 28.3785 7.39238C26.0652 3.13713 19.5784 0.000375748 13.8191 0C11.0552 -0.00018692 8.45959 0.722 6.57184 2.3895Z" fill="#F6F8FB"/>
<mask id="mask1_129_4484" style="mask-type:luminance" maskUnits="userSpaceOnUse" x="0" y="0" width="33" height="32">
<path d="M0.5 1.90735e-06H32.5V32H0.5V1.90735e-06Z" fill="white"/>
</mask>
<g mask="url(#mask1_129_4484)">
<mask id="mask2_129_4484" style="mask-type:luminance" maskUnits="userSpaceOnUse" x="7" y="4" width="22" height="27">
<path d="M7.73828 4.12007H28.1362V30.9321H7.73828V4.12007Z" fill="white"/>
</mask>
<g mask="url(#mask2_129_4484)">
<g opacity="0.1">
<path d="M25.0512 12.0801C25.0078 12.0801 24.9646 12.0816 24.9216 12.0835C23.826 8.48202 20.4791 5.86115 16.5195 5.86115C15.9253 5.86084 15.3325 5.9206 14.7502 6.03952C14.2903 4.91371 13.185 4.12008 11.8938 4.12008C10.19 4.12008 8.8089 5.50121 8.8089 7.20502C8.8089 7.99089 9.10322 8.70771 9.58709 9.25246C8.42859 10.7403 7.73828 12.6106 7.73828 14.6424C7.73828 16.4618 8.97441 19.3438 10.5188 22.2351C9.50541 22.7408 8.8089 23.7871 8.8089 24.9966C8.8089 26.7005 10.19 28.0816 11.8938 28.0816C12.5149 28.0825 13.1217 27.895 13.634 27.5438C14.2364 28.4976 14.8524 29.4428 15.4818 30.3791C15.9775 31.1165 17.0616 31.1165 17.5573 30.3791C19.3051 27.7793 22.8038 22.3438 24.4312 18.1876C24.6352 18.2292 24.843 18.2501 25.0512 18.25C26.755 18.25 28.1362 16.8688 28.1362 15.1651C28.1362 13.4613 26.755 12.0801 25.0512 12.0801Z" fill="#2626BC"/>
</g>
</g>
<path d="M25.3008 13.1423C25.3008 16.9523 19.8812 25.4224 17.5573 28.8791C17.0616 29.6165 15.9775 29.6165 15.4818 28.8791C13.1579 25.4224 7.73828 16.9523 7.73828 13.1423C7.73828 8.2926 11.6698 4.3611 16.5195 4.3611C21.3693 4.3611 25.3008 8.2926 25.3008 13.1423Z" fill="#7CACDC"/>
<path d="M25.3009 13.1425C25.3009 14.3487 24.7578 16.0225 23.9409 17.8562C22.7859 17.4106 21.9666 16.29 21.9666 14.9775C21.9666 13.2738 23.3478 11.8925 25.0516 11.8925C25.1059 11.8925 25.1597 11.8938 25.2134 11.8963C25.2709 12.3031 25.3009 12.7193 25.3009 13.1425Z" fill="#FF7EB8"/>
<path d="M14.9792 24.8092C14.9792 25.6105 14.6735 26.3399 14.1729 26.8887C13.2342 25.4299 12.1354 23.6517 11.1135 21.8236C11.3684 21.7574 11.6308 21.724 11.8942 21.7243C13.5979 21.7243 14.9792 23.1055 14.9792 24.8092Z" fill="#FF7EB8"/>
<path d="M14.979 7.0173C14.979 8.72111 13.5977 10.1023 11.894 10.1023C10.6846 10.1023 9.63771 9.40611 9.13208 8.39298C10.2477 6.66105 11.9565 5.34673 13.9708 4.73673C14.5902 5.30042 14.979 6.11355 14.979 7.0173Z" fill="#FF7EB8"/>
<path d="M22.8998 13.1422C22.8998 16.6659 20.0433 19.5225 16.5197 19.5225C12.996 19.5225 10.1394 16.6659 10.1394 13.1422C10.1394 9.61852 12.996 6.76202 16.5197 6.76202C20.0433 6.76202 22.8998 9.61852 22.8998 13.1422Z" fill="#DCFDEE"/>
<path d="M14.9779 6.94979C14.9791 6.97229 14.9791 6.99486 14.9791 7.01729C14.9791 8.72111 13.5979 10.1023 11.8941 10.1023C11.5779 10.1023 11.2729 10.0549 10.9854 9.96542C11.8397 8.48104 13.2735 7.37298 14.9779 6.94979Z" fill="#97FFD2"/>
<path d="M15.0284 18.5331C14.9912 18.7122 15.0503 19.0851 15.0509 19.3523C14.3771 19.1936 13.7339 18.9255 13.1468 18.5589C12.9331 17.9951 13.0408 17.431 13.0199 16.7775C12.9902 15.8554 12.4326 15.8104 11.7521 15.3948C11.1846 15.0479 10.6636 14.6975 10.2434 14.2943C10.1742 13.9142 10.1394 13.5286 10.1396 13.1422C10.1396 11.8689 10.5126 10.6829 11.1556 9.68717C11.2675 9.83105 11.431 9.87605 11.7064 9.88848C11.8763 9.71655 12.0558 9.67505 12.245 9.76411L12.3253 9.94911C12.3103 10.0862 12.3485 10.2056 12.4395 10.3077C12.6365 10.3377 12.8274 10.3135 13.0124 10.2352C13.291 10.1788 13.5984 9.99223 13.8832 9.98305C15.0434 9.94617 14.3041 10.7488 13.953 11.2636C13.552 11.8522 13.3716 12.6858 12.6287 12.9589C12.0855 13.1586 11.4235 12.8861 11.3984 13.7419C11.3785 14.417 12.1612 15.1334 12.7514 15.3364C13.4737 15.5843 14.4033 15.2167 15.1054 15.6414C15.633 15.9605 15.4891 17.0039 15.3589 17.6196C15.2923 17.9341 15.0953 18.2098 15.0284 18.5331Z" fill="#02FFB3"/>
<path d="M15.8788 8.29023C15.7183 8.52848 15.4697 8.71735 15.3927 8.99367C15.3104 9.28829 15.4288 9.6566 15.2132 9.87329C14.8795 9.64754 14.7343 9.21617 14.7486 8.81392C14.7574 8.57535 14.7933 8.28729 14.6012 8.14567C14.4308 8.0201 14.1245 8.05567 14.0648 7.85242C14.0393 7.7656 14.0782 7.66842 14.0478 7.58323C14.0148 7.4896 13.9127 7.44329 13.8377 7.37835C13.8311 7.37267 13.8249 7.36655 13.8191 7.36004C14.5435 7.02128 15.3255 6.82248 16.1238 6.7741C16.1532 7.29548 16.1705 7.8576 15.8788 8.29023Z" fill="#02FFB3"/>
<path d="M14.9792 7.01712C14.9792 7.46774 14.8823 7.89593 14.7086 8.28149C14.6848 8.22906 14.6504 8.18218 14.6011 8.14593C14.4304 8.02024 14.1242 8.05587 14.0648 7.85212C14.0392 7.76587 14.0779 7.66837 14.0479 7.58343C14.0148 7.48968 13.9129 7.44337 13.8373 7.37837C13.8311 7.37274 13.8254 7.36718 13.8198 7.36087C14.1879 7.18774 14.5754 7.04968 14.9779 6.94962C14.9792 6.97212 14.9792 6.99468 14.9792 7.01712Z" fill="#01ECA5"/>
<path d="M22.8998 13.1424C22.8998 15.7228 21.3679 17.9453 19.1644 18.9502C19.2463 18.7064 19.4052 18.4742 19.5249 18.2413C19.7353 17.8318 19.8342 17.3737 19.888 16.9166C19.9167 16.6726 19.9073 16.3734 19.6955 16.2488C19.5853 16.1838 19.4499 16.1874 19.3219 16.1854C19.0958 16.1819 18.8706 16.1544 18.6502 16.1036C18.414 16.0488 18.1709 15.9588 18.0192 15.7691C17.7928 15.4859 17.8374 15.0801 17.8936 14.7218L18.0668 13.6181C18.1141 13.3156 18.2009 12.9614 18.4864 12.8497C18.6819 12.7734 18.8998 12.8436 19.1093 12.8592C19.7249 12.9045 20.2969 12.4673 20.9131 12.5C21.0211 12.5058 21.1314 12.5258 21.2355 12.4974C21.3102 12.4768 21.3768 12.4321 21.4332 12.3789C21.7572 12.0759 21.7464 11.561 21.6518 11.1274C21.6104 10.9372 21.5533 10.7414 21.4211 10.5986C21.2887 10.4553 21.0609 10.3835 20.8933 10.483C20.6238 10.6429 20.6521 11.1228 20.3546 11.2217C20.0919 11.3084 19.8204 11.0021 19.5559 11.0824C19.1866 11.1939 19.3255 11.8403 18.997 12.0422C18.8267 12.1466 18.6048 12.0814 18.4273 11.9903C18.2068 11.8768 17.9875 11.6984 17.9588 11.4524C17.9207 11.1241 18.2287 10.8674 18.5151 10.7026C18.8016 10.5378 19.134 10.3542 19.1989 10.0305C19.2208 9.92282 19.2088 9.81057 19.2319 9.70326C19.2985 9.39107 19.6274 9.2142 19.9314 9.11701C20.2355 9.01976 20.5735 8.94507 20.7764 8.69838C20.8254 8.63895 20.8639 8.57213 20.9017 8.50488C22.1321 9.66832 22.8998 11.3156 22.8998 13.1424Z" fill="#02FFB3"/>
<path d="M22.8999 13.1423C22.8999 14.208 22.6387 15.213 22.1762 16.0955C22.0374 15.739 21.9664 15.3598 21.9668 14.9773C21.9668 14.1161 22.3199 13.3373 22.8893 12.778C22.8961 12.8986 22.8999 13.0198 22.8999 13.1423Z" fill="#01ECA5"/>
<path d="M28.1364 13.6651C28.1364 15.3689 26.7552 16.75 25.0515 16.75C23.3477 16.75 21.9666 15.3689 21.9666 13.6651C21.9666 11.9613 23.3477 10.5802 25.0515 10.5802C26.7552 10.5802 28.1364 11.9613 28.1364 13.6651Z" fill="#02FFB3"/>
<path d="M25.0514 12.867C25.2858 12.867 25.4764 13.0577 25.4764 13.292C25.4764 13.5263 25.2858 13.717 25.0514 13.717C24.9388 13.7169 24.8307 13.6721 24.7511 13.5924C24.6714 13.5127 24.6266 13.4047 24.6264 13.292C24.6264 13.0577 24.8171 12.867 25.0514 12.867ZM26.1191 13.292C26.1191 12.7033 25.6402 12.2244 25.0514 12.2244C24.4628 12.2244 23.9839 12.7033 23.9839 13.292C23.9839 13.5823 24.1007 13.8456 24.2894 14.0383C24.1007 14.231 23.9839 14.4943 23.9839 14.7846C23.9839 14.8699 24.0177 14.9516 24.078 15.0118C24.1382 15.0721 24.22 15.1059 24.3052 15.1059C24.3904 15.1059 24.4721 15.0721 24.5323 15.0118C24.5926 14.9516 24.6264 14.8699 24.6264 14.7846C24.6264 14.5503 24.8171 14.3596 25.0514 14.3596C25.2858 14.3596 25.4764 14.5503 25.4764 14.7846C25.4764 14.8699 25.5103 14.9516 25.5706 15.0118C25.6308 15.0721 25.7125 15.106 25.7978 15.106C25.883 15.106 25.9647 15.0721 26.025 15.0118C26.0852 14.9516 26.1191 14.8699 26.1191 14.7846C26.1191 14.4943 26.0023 14.231 25.8135 14.0383C26.0023 13.8456 26.1191 13.5823 26.1191 13.292Z" fill="white"/>
<path d="M14.9787 23.4448C14.9787 25.1486 13.5975 26.5298 11.8938 26.5298C10.19 26.5298 8.80884 25.1486 8.80884 23.4448C8.80884 21.741 10.19 20.3599 11.8938 20.3599C13.5975 20.3599 14.9787 21.741 14.9787 23.4448Z" fill="#9FB0FE"/>
<path d="M11.894 22.6466C12.1284 22.6466 12.319 22.8372 12.319 23.0716C12.319 23.3059 12.1284 23.4966 11.894 23.4966C11.6597 23.4966 11.469 23.3059 11.469 23.0716C11.469 22.8372 11.6597 22.6466 11.894 22.6466ZM12.9617 23.0716C12.9617 22.4829 12.4827 22.0039 11.894 22.0039C11.3054 22.0039 10.8264 22.4829 10.8264 23.0716C10.8264 23.3619 10.9433 23.6252 11.132 23.8179C10.9433 24.0105 10.8264 24.2738 10.8264 24.5642C10.8264 24.6494 10.8603 24.7311 10.9205 24.7914C10.9808 24.8516 11.0625 24.8855 11.1477 24.8855C11.2329 24.8855 11.3147 24.8516 11.3749 24.7914C11.4352 24.7311 11.469 24.6494 11.469 24.5642C11.469 24.3299 11.6597 24.1392 11.894 24.1392C12.1284 24.1392 12.319 24.3299 12.319 24.5642C12.319 24.6494 12.3529 24.7311 12.4132 24.7914C12.4734 24.8516 12.5551 24.8855 12.6404 24.8855C12.7256 24.8855 12.8073 24.8516 12.8676 24.7914C12.9278 24.7311 12.9617 24.6494 12.9617 24.5642C12.9617 24.2738 12.8449 24.0105 12.6561 23.8179C12.8449 23.6252 12.9617 23.3619 12.9617 23.0716Z" fill="white"/>
<path d="M14.9787 5.6531C14.9787 7.35691 13.5975 8.73804 11.8938 8.73804C10.19 8.73804 8.80884 7.35691 8.80884 5.6531C8.80884 3.94935 10.19 2.56822 11.8938 2.56822C13.5975 2.56822 14.9787 3.94935 14.9787 5.6531Z" fill="#FF5BA8"/>
<path d="M11.894 4.85506C12.1284 4.85506 12.319 5.04568 12.319 5.28006C12.319 5.51437 12.1284 5.70506 11.894 5.70506C11.7814 5.70492 11.6733 5.6601 11.5937 5.58043C11.514 5.50076 11.4692 5.39273 11.469 5.28006C11.469 5.04568 11.6597 4.85506 11.894 4.85506ZM12.9617 5.28006C12.9617 4.69137 12.4827 4.21243 11.894 4.21243C11.3054 4.21243 10.8264 4.69137 10.8264 5.28006C10.8264 5.57037 10.9433 5.83368 11.132 6.02631C10.9433 6.21899 10.8264 6.48231 10.8264 6.77268C10.8264 6.8579 10.8603 6.93963 10.9205 6.99988C10.9808 7.06014 11.0625 7.09399 11.1477 7.09399C11.2329 7.09399 11.3147 7.06014 11.3749 6.99988C11.4352 6.93963 11.469 6.8579 11.469 6.77268C11.469 6.53831 11.6597 6.34768 11.894 6.34768C12.1284 6.34768 12.319 6.53831 12.319 6.77268C12.319 6.8579 12.3529 6.93963 12.4132 6.99988C12.4734 7.06014 12.5551 7.09399 12.6404 7.09399C12.7256 7.09399 12.8073 7.06014 12.8676 6.99988C12.9278 6.93963 12.9617 6.8579 12.9617 6.77268C12.9617 6.48231 12.8449 6.21899 12.6561 6.02631C12.8449 5.83368 12.9617 5.57037 12.9617 5.28006Z" fill="white"/>
<path d="M12.3272 10.0717C12.1854 10.0923 12.041 10.1023 11.8941 10.1023C11.5779 10.1023 11.2729 10.0548 10.9854 9.96542C11.0395 9.87121 11.0962 9.77849 11.1554 9.68736C11.2679 9.83104 11.431 9.87604 11.7066 9.88854C11.8766 9.71667 12.056 9.67479 12.2447 9.76417C12.2716 9.82604 12.2985 9.88729 12.3254 9.94917C12.321 9.99167 12.321 10.0329 12.3272 10.0717Z" fill="#01ECA5"/>
</g>
<defs>
<linearGradient id="paint0_linear_129_4484" x1="34.502" y1="49.2502" x2="64.9977" y2="49.2502" gradientUnits="userSpaceOnUse">
<stop/>
<stop offset="0.049"/>
<stop offset="0.971"/>
<stop offset="0.999"/>
<stop offset="1"/>
</linearGradient>
</defs>
</svg>
