<svg width="24" height="24" viewBox="0 0 24 24" fill="none" xmlns="http://www.w3.org/2000/svg">
<path d="M1.46241 7.78369V22.0916C1.46194 22.2142 1.48567 22.3357 1.53225 22.4491C1.57882 22.5625 1.64733 22.6656 1.73383 22.7525C1.82033 22.8394 1.92313 22.9084 2.03634 22.9555C2.14955 23.0026 2.27093 23.0268 2.39354 23.0269H21.6026C21.7255 23.027 21.8471 23.0028 21.9606 22.9558C22.0741 22.9088 22.1772 22.8399 22.2641 22.7531C22.351 22.6662 22.4199 22.5631 22.4669 22.4496C22.5139 22.3361 22.538 22.2144 22.538 22.0916V7.78369H1.46241Z" fill="#E1E6E9"/>
<path d="M22.5376 3.8692V7.7838H1.4624V3.8692C1.46232 3.74689 1.48634 3.62575 1.5331 3.51272C1.57986 3.3997 1.64844 3.29699 1.73492 3.21049C1.82139 3.12398 1.92407 3.05537 2.03708 3.00857C2.15009 2.96177 2.27122 2.9377 2.39354 2.93774H4.64532V4.54056C4.64519 4.58808 4.65446 4.63516 4.67259 4.67909C4.69071 4.72303 4.71735 4.76294 4.75095 4.79655C4.78456 4.83015 4.82447 4.85678 4.8684 4.87491C4.91234 4.89304 4.95942 4.90231 5.00694 4.90218H6.44921C6.49653 4.90227 6.54339 4.89294 6.58707 4.87475C6.63075 4.85656 6.67037 4.82986 6.70364 4.7962C6.7369 4.76255 6.76313 4.72262 6.78081 4.67873C6.79849 4.63484 6.80726 4.58787 6.80662 4.54056V2.93774H17.1892V4.54056C17.1887 4.63578 17.226 4.72732 17.2928 4.79511C17.3597 4.8629 17.4507 4.90141 17.546 4.90218H18.9921C19.0394 4.90205 19.0863 4.89259 19.1299 4.87433C19.1736 4.85608 19.2132 4.82939 19.2465 4.7958C19.2798 4.76221 19.3062 4.72237 19.3241 4.67857C19.342 4.63477 19.3511 4.58787 19.3508 4.54056V2.93774H21.6026C21.8501 2.93749 22.0875 3.03542 22.2628 3.21006C22.4381 3.3847 22.537 3.62176 22.5376 3.8692Z" fill="#7CACDC"/>
<path d="M22.5373 7.78369V22.0929C22.5372 22.3406 22.4388 22.5781 22.2636 22.7533C22.0885 22.9284 21.851 23.0268 21.6033 23.0269H20.3319C20.4546 23.0272 20.5762 23.0032 20.6897 22.9564C20.8031 22.9095 20.9062 22.8407 20.993 22.7539C21.0797 22.6671 21.1485 22.5641 21.1954 22.4506C21.2422 22.3372 21.2662 22.2156 21.266 22.0929V7.78369H22.5373Z" fill="#D5D6DB"/>
<path d="M5.00764 4.90388H5.57845V5.27037C5.57857 5.31768 5.56935 5.36455 5.5513 5.40829C5.53326 5.45202 5.50675 5.49176 5.47329 5.52521C5.43984 5.55867 5.4001 5.58518 5.35636 5.60323C5.31263 5.62127 5.26576 5.6305 5.21845 5.63037H4.31358C4.26627 5.6305 4.2194 5.62127 4.17566 5.60323C4.13193 5.58518 4.09219 5.55867 4.05874 5.52521C4.02528 5.49176 3.99877 5.45202 3.98072 5.40829C3.96268 5.36455 3.95345 5.31768 3.95358 5.27037V3.94388H1.46277V3.86929C1.46251 3.74698 1.48642 3.62583 1.5331 3.51278C1.57979 3.39973 1.64834 3.29702 1.73483 3.21053C1.82131 3.12405 1.92403 3.0555 2.03707 3.00881C2.15012 2.96212 2.27127 2.93822 2.39358 2.93848H4.64439V4.54064C4.64431 4.58837 4.65364 4.63564 4.67187 4.67975C4.69009 4.72386 4.71685 4.76394 4.75059 4.79768C4.78434 4.83143 4.82442 4.85818 4.86853 4.87641C4.91264 4.89463 4.95991 4.90397 5.00764 4.90388ZM17.546 4.90388H18.1201V5.27037C18.1203 5.31743 18.1112 5.36408 18.0934 5.40764C18.0756 5.4512 18.0494 5.49083 18.0162 5.52426C17.9831 5.55769 17.9437 5.58426 17.9003 5.60247C17.8569 5.62068 17.8104 5.63016 17.7633 5.63037H16.8552C16.7598 5.63003 16.6685 5.59199 16.601 5.52455C16.5336 5.45711 16.4955 5.36574 16.4952 5.27037V3.94388H6.80763V2.93848H17.1893V4.54064C17.1887 4.63602 17.2259 4.72773 17.2928 4.79578C17.3596 4.86383 17.4506 4.90269 17.546 4.90388ZM22.5374 3.86929V7.78388H21.3082V4.87469C21.3069 4.62766 21.208 4.39116 21.033 4.21679C20.858 4.04241 20.6212 3.94431 20.3741 3.94388H19.3493V2.93848H21.6033C21.8505 2.93839 22.0876 3.03633 22.2627 3.21081C22.4378 3.3853 22.5366 3.6221 22.5374 3.86929Z" fill="#7CACDC"/>
<path d="M6.80656 1.32969V4.5405C6.80721 4.58776 6.79845 4.63467 6.78081 4.67852C6.76318 4.72237 6.737 4.76227 6.70381 4.79592C6.67061 4.82956 6.63107 4.85628 6.58746 4.87451C6.54386 4.89274 6.49707 4.90213 6.44981 4.90212H5.00689C4.95936 4.90225 4.91228 4.89299 4.86835 4.87486C4.82442 4.85673 4.7845 4.8301 4.7509 4.79649C4.71729 4.76289 4.69066 4.72297 4.67253 4.67904C4.6544 4.63511 4.64514 4.58803 4.64526 4.5405V1.32969C4.64526 1.28243 4.65465 1.23564 4.67288 1.19203C4.69111 1.14843 4.71783 1.10888 4.75147 1.07569C4.78512 1.0425 4.82502 1.01632 4.86887 0.998681C4.91271 0.981041 4.95963 0.972289 5.00689 0.972934H6.44916C6.49617 0.972458 6.54281 0.981356 6.58634 0.999108C6.62988 1.01686 6.66944 1.04311 6.70271 1.07632C6.73599 1.10954 6.76231 1.14905 6.78014 1.19255C6.79797 1.23606 6.80695 1.28268 6.80656 1.32969Z" fill="#9297AB"/>
<path d="M6.44921 5.06497H5.00694C4.86796 5.0648 4.73474 5.00947 4.63653 4.91114C4.53832 4.81281 4.48315 4.67952 4.48315 4.54054V1.32973C4.4841 1.19155 4.53974 1.05937 4.6379 0.962123C4.73607 0.864871 4.86876 0.810465 5.00694 0.810811H6.44921C6.51752 0.810206 6.58527 0.823214 6.6485 0.849078C6.71174 0.874941 6.76918 0.913142 6.81749 0.961449C6.8658 1.00976 6.904 1.0672 6.92986 1.13043C6.95572 1.19367 6.96873 1.26142 6.96813 1.32973V4.54054C6.96865 4.67883 6.91432 4.81169 6.81705 4.91C6.71977 5.0083 6.5875 5.06403 6.44921 5.06497ZM5.00694 1.13514C4.98098 1.13449 4.95515 1.13904 4.93098 1.14853C4.9068 1.15802 4.88477 1.17225 4.86618 1.19038C4.84759 1.20852 4.83282 1.23019 4.82274 1.25412C4.81266 1.27805 4.80747 1.30376 4.80748 1.32973V4.54054C4.80717 4.56682 4.81213 4.59289 4.82204 4.61723C4.83196 4.64157 4.84664 4.66368 4.86522 4.68226C4.8838 4.70084 4.90591 4.71552 4.93025 4.72544C4.95459 4.73535 4.98066 4.7403 5.00694 4.74H6.44921C6.47518 4.74001 6.50089 4.73482 6.52482 4.72474C6.54875 4.71465 6.57042 4.69988 6.58856 4.6813C6.60669 4.66271 6.62092 4.64068 6.63041 4.6165C6.6399 4.59233 6.64445 4.5665 6.6438 4.54054V1.32973C6.64429 1.30404 6.63959 1.27852 6.62998 1.25469C6.62037 1.23086 6.60605 1.20922 6.58789 1.19105C6.56972 1.17288 6.54807 1.15857 6.52425 1.14896C6.50042 1.13935 6.4749 1.13465 6.44921 1.13514H5.00694Z" fill="#323C6B"/>
<path d="M19.3508 1.32966V4.54047C19.3514 4.6357 19.3141 4.72724 19.2472 4.79503C19.1803 4.86282 19.0893 4.90132 18.9941 4.90209H17.546C17.4507 4.90132 17.3597 4.86282 17.2928 4.79503C17.226 4.72724 17.1887 4.6357 17.1892 4.54047V1.32966C17.1892 1.23504 17.2268 1.1443 17.2937 1.0774C17.3606 1.01049 17.4514 0.972906 17.546 0.972906H18.9921C19.0391 0.972649 19.0857 0.981688 19.1293 0.999502C19.1728 1.01732 19.2123 1.04355 19.2457 1.07671C19.279 1.10986 19.3054 1.14928 19.3235 1.19269C19.3415 1.2361 19.3508 1.28265 19.3508 1.32966Z" fill="#9297AB"/>
<path d="M18.9932 5.06495H17.546C17.4077 5.06401 17.2755 5.00828 17.1782 4.90998C17.0809 4.81167 17.0266 4.67881 17.0271 4.54052V1.32971C17.0271 1.19208 17.0818 1.0601 17.1791 0.962779C17.2764 0.865463 17.4084 0.810791 17.546 0.810791H18.9922C19.1298 0.810791 19.2618 0.865463 19.3591 0.962779C19.4564 1.0601 19.5111 1.19208 19.5111 1.32971V4.54052C19.5116 4.67865 19.4574 4.81136 19.3604 4.90963C19.2633 5.00791 19.1313 5.06375 18.9932 5.06495ZM17.546 1.13512C17.4944 1.13512 17.4449 1.15562 17.4084 1.19211C17.3719 1.2286 17.3514 1.2781 17.3514 1.32971V4.54052C17.351 4.59271 17.3712 4.64296 17.4076 4.68032C17.4441 4.71768 17.4938 4.73913 17.546 4.73998H18.9922C19.0444 4.73913 19.0941 4.71768 19.1306 4.68032C19.167 4.64296 19.1872 4.59271 19.1868 4.54052V1.32971C19.1868 1.2781 19.1663 1.2286 19.1298 1.19211C19.0933 1.15562 19.0438 1.13512 18.9922 1.13512H17.546Z" fill="#323C6B"/>
<path d="M7.05859 10.9905H5.03513C4.81786 10.9905 4.64172 11.1666 4.64172 11.3839V13.4031C4.64172 13.6204 4.81786 13.7965 5.03513 13.7965H7.05859C7.27586 13.7965 7.45199 13.6204 7.45199 13.4031V11.3839C7.45199 11.1666 7.27586 10.9905 7.05859 10.9905Z" fill="#BBBBCD"/>
<path d="M7.05889 13.9588H5.0351C4.88786 13.9586 4.74674 13.8999 4.64266 13.7958C4.53857 13.6917 4.48003 13.5505 4.47986 13.4033V11.3837C4.48003 11.2365 4.53857 11.0953 4.64266 10.9912C4.74674 10.887 4.88786 10.8284 5.0351 10.8281H7.05889C7.20618 10.8283 7.34739 10.8869 7.45154 10.991C7.55569 11.0952 7.61428 11.2364 7.61445 11.3837V13.4033C7.61428 13.5506 7.55569 13.6918 7.45154 13.7959C7.34739 13.9001 7.20618 13.9587 7.05889 13.9588ZM5.0351 11.1528C4.97383 11.1529 4.91509 11.1773 4.8718 11.2206C4.8285 11.264 4.80418 11.3227 4.80418 11.384V13.4036C4.80418 13.4649 4.8285 13.5236 4.8718 13.567C4.91509 13.6103 4.97383 13.6347 5.0351 13.6348H7.05889C7.12016 13.6347 7.17889 13.6103 7.22219 13.567C7.26549 13.5236 7.2898 13.4649 7.2898 13.4036V11.3837C7.2898 11.3224 7.26549 11.2637 7.22219 11.2203C7.17889 11.1769 7.12016 11.1525 7.05889 11.1524L5.0351 11.1528Z" fill="#323C6B"/>
<path d="M7.05859 16.8997H5.03513C4.81786 16.8997 4.64172 17.0758 4.64172 17.2931V19.3165C4.64172 19.5338 4.81786 19.7099 5.03513 19.7099H7.05859C7.27586 19.7099 7.45199 19.5338 7.45199 19.3165V17.2931C7.45199 17.0758 7.27586 16.8997 7.05859 16.8997Z" fill="#BBBBCD"/>
<path d="M7.05889 19.8721H5.0351C4.88789 19.8719 4.74677 19.8133 4.64268 19.7092C4.53858 19.6052 4.48003 19.464 4.47986 19.3168V17.293C4.48003 17.1458 4.53858 17.0047 4.64268 16.9006C4.74677 16.7965 4.88789 16.738 5.0351 16.7378H7.05889C7.20609 16.738 7.34722 16.7965 7.45131 16.9006C7.5554 17.0047 7.61396 17.1458 7.61413 17.293V19.3168C7.61396 19.464 7.5554 19.6052 7.45131 19.7092C7.34722 19.8133 7.20609 19.8719 7.05889 19.8721ZM5.0351 17.0618C4.97388 17.0619 4.9152 17.0862 4.87191 17.1295C4.82863 17.1728 4.80427 17.2315 4.80418 17.2927V19.3165C4.80427 19.3777 4.82863 19.4364 4.87191 19.4797C4.9152 19.523 4.97388 19.5473 5.0351 19.5474H7.05889C7.1201 19.5473 7.17879 19.523 7.22207 19.4797C7.26536 19.4364 7.28972 19.3777 7.2898 19.3165V17.2927C7.28972 17.2315 7.26536 17.1728 7.22207 17.1295C7.17879 17.0862 7.1201 17.0619 7.05889 17.0618H5.0351Z" fill="#323C6B"/>
<path d="M18.9648 16.8997H16.9414C16.7241 16.8997 16.548 17.0758 16.548 17.2931V19.3165C16.548 19.5338 16.7241 19.7099 16.9414 19.7099H18.9648C19.1821 19.7099 19.3582 19.5338 19.3582 19.3165V17.2931C19.3582 17.0758 19.1821 16.8997 18.9648 16.8997Z" fill="#BBBBCD"/>
<path d="M18.9649 19.8721H16.9411C16.7939 19.8719 16.6528 19.8133 16.5487 19.7092C16.4446 19.6052 16.386 19.464 16.3859 19.3168V17.293C16.386 17.1458 16.4446 17.0047 16.5487 16.9006C16.6528 16.7965 16.7939 16.738 16.9411 16.7378H18.9649C19.1121 16.738 19.2533 16.7965 19.3574 16.9006C19.4616 17.0047 19.5202 17.1458 19.5205 17.293V19.3168C19.5202 19.4641 19.4616 19.6052 19.3574 19.7093C19.2533 19.8133 19.1121 19.8719 18.9649 19.8721ZM16.9411 17.0618C16.8799 17.0619 16.8212 17.0862 16.7779 17.1295C16.7346 17.1728 16.7103 17.2315 16.7102 17.2927V19.3165C16.7103 19.3777 16.7346 19.4364 16.7779 19.4797C16.8212 19.523 16.8799 19.5473 16.9411 19.5474H18.9649C19.0262 19.5474 19.0849 19.5231 19.1283 19.4798C19.1716 19.4365 19.196 19.3778 19.1961 19.3165V17.2927C19.196 17.2314 19.1716 17.1727 19.1283 17.1294C19.0849 17.0861 19.0262 17.0618 18.9649 17.0618H16.9411Z" fill="#323C6B"/>
<path d="M13.0097 16.8997H10.9905C10.7732 16.8997 10.597 17.0758 10.597 17.2931V19.3165C10.597 19.5338 10.7732 19.7099 10.9905 19.7099H13.0097C13.227 19.7099 13.4031 19.5338 13.4031 19.3165V17.2931C13.4031 17.0758 13.227 16.8997 13.0097 16.8997Z" fill="#BBBBCD"/>
<path d="M13.0096 19.8721H10.9904C10.8431 19.8719 10.702 19.8133 10.5978 19.7093C10.4937 19.6052 10.4351 19.4641 10.4348 19.3168V17.293C10.4351 17.1458 10.4937 17.0047 10.5978 16.9006C10.702 16.7965 10.8431 16.738 10.9904 16.7378H13.0099C13.1572 16.738 13.2983 16.7965 13.4025 16.9006C13.5066 17.0047 13.5653 17.1458 13.5655 17.293V19.3168C13.5653 19.4641 13.5066 19.6053 13.4024 19.7094C13.2982 19.8135 13.1569 19.872 13.0096 19.8721ZM10.9901 17.0618C10.9288 17.0618 10.87 17.0861 10.8267 17.1294C10.7833 17.1727 10.7589 17.2314 10.7588 17.2927V19.3165C10.7589 19.3778 10.7833 19.4365 10.8267 19.4798C10.87 19.5231 10.9288 19.5474 10.9901 19.5474H13.0096C13.0709 19.5474 13.1297 19.5231 13.173 19.4798C13.2164 19.4365 13.2408 19.3778 13.2409 19.3165V17.2927C13.2408 17.2314 13.2164 17.1727 13.173 17.1294C13.1297 17.0861 13.0709 17.0618 13.0096 17.0618H10.9901Z" fill="#323C6B"/>
<path d="M18.9648 10.9905H16.9414C16.7241 10.9905 16.548 11.1666 16.548 11.3839V13.4031C16.548 13.6204 16.7241 13.7965 16.9414 13.7965H18.9648C19.1821 13.7965 19.3582 13.6204 19.3582 13.4031V11.3839C19.3582 11.1666 19.1821 10.9905 18.9648 10.9905Z" fill="#BBBBCD"/>
<path d="M18.9649 13.9588H16.9411C16.7939 13.9586 16.6527 13.8999 16.5487 13.7958C16.4446 13.6917 16.386 13.5505 16.3859 13.4033V11.3837C16.386 11.2365 16.4446 11.0953 16.5487 10.9912C16.6527 10.887 16.7939 10.8284 16.9411 10.8281H18.9649C19.1122 10.8283 19.2534 10.8869 19.3575 10.991C19.4617 11.0952 19.5203 11.2364 19.5205 11.3837V13.4033C19.5203 13.5506 19.4617 13.6918 19.3575 13.7959C19.2534 13.9001 19.1122 13.9587 18.9649 13.9588ZM16.9411 11.1528C16.8798 11.1529 16.8211 11.1773 16.7778 11.2206C16.7345 11.264 16.7102 11.3227 16.7102 11.384V13.4036C16.7102 13.4649 16.7345 13.5236 16.7778 13.567C16.8211 13.6103 16.8798 13.6347 16.9411 13.6348H18.9649C19.0262 13.6347 19.085 13.6104 19.1283 13.567C19.1717 13.5237 19.196 13.4649 19.1961 13.4036V11.3837C19.196 11.3224 19.1717 11.2636 19.1283 11.2203C19.085 11.1769 19.0262 11.1525 18.9649 11.1524L16.9411 11.1528Z" fill="#323C6B"/>
<path d="M13.0097 10.9905H10.9905C10.7732 10.9905 10.597 11.1666 10.597 11.3839V13.4031C10.597 13.6204 10.7732 13.7965 10.9905 13.7965H13.0097C13.227 13.7965 13.4031 13.6204 13.4031 13.4031V11.3839C13.4031 11.1666 13.227 10.9905 13.0097 10.9905Z" fill="#BBBBCD"/>
<path d="M13.0097 13.9589H10.9905C10.8432 13.9587 10.702 13.9001 10.5978 13.796C10.4936 13.6918 10.4351 13.5506 10.4349 13.4033V11.3838C10.4351 11.2365 10.4936 11.0953 10.5978 10.9911C10.702 10.887 10.8432 10.8284 10.9905 10.8282H13.01C13.1573 10.8285 13.2984 10.8871 13.4025 10.9912C13.5066 11.0954 13.5651 11.2365 13.5653 11.3838V13.4033C13.5651 13.5506 13.5065 13.6918 13.4024 13.796C13.2982 13.9001 13.157 13.9587 13.0097 13.9589ZM10.9901 11.1529C10.9288 11.1529 10.8701 11.1773 10.8267 11.2207C10.7834 11.264 10.759 11.3228 10.7589 11.3841V13.4037C10.759 13.465 10.7834 13.5237 10.8267 13.5671C10.8701 13.6104 10.9288 13.6348 10.9901 13.6349H13.0097C13.071 13.6348 13.1298 13.6104 13.1731 13.5671C13.2165 13.5237 13.2409 13.465 13.2409 13.4037V11.3838C13.2409 11.3225 13.2165 11.2637 13.1731 11.2204C13.1298 11.177 13.071 11.1526 13.0097 11.1525L10.9901 11.1529ZM22.5377 7.94593H1.46246C1.41945 7.94593 1.3782 7.92885 1.34779 7.89844C1.31738 7.86803 1.30029 7.82678 1.30029 7.78377V3.86918C1.30072 3.57935 1.41605 3.30151 1.62099 3.09657C1.82593 2.89163 2.10376 2.77631 2.39359 2.77588H4.64537C4.68838 2.77588 4.72963 2.79296 4.76004 2.82338C4.79045 2.85379 4.80754 2.89503 4.80754 2.93804V4.54053C4.80723 4.56681 4.81218 4.59288 4.8221 4.61722C4.83202 4.64155 4.8467 4.66366 4.86528 4.68225C4.88386 4.70083 4.90597 4.71551 4.93031 4.72542C4.95464 4.73534 4.98072 4.74029 5.007 4.73999H6.44927C6.47523 4.74 6.50094 4.73481 6.52487 4.72472C6.54881 4.71464 6.57048 4.69987 6.58861 4.68128C6.60675 4.66269 6.62098 4.64066 6.63047 4.61649C6.63996 4.59232 6.64451 4.56649 6.64386 4.54053V2.93804C6.64386 2.89503 6.66095 2.85379 6.69136 2.82338C6.72177 2.79296 6.76301 2.77588 6.80602 2.77588H17.1893C17.2323 2.77588 17.2735 2.79296 17.3039 2.82338C17.3343 2.85379 17.3514 2.89503 17.3514 2.93804V4.54053C17.351 4.59272 17.3712 4.64297 17.4076 4.68033C17.4441 4.71769 17.4938 4.73913 17.546 4.73999H18.9922C19.0444 4.73913 19.0941 4.71769 19.1306 4.68033C19.167 4.64297 19.1872 4.59272 19.1868 4.54053V2.93804C19.1868 2.89503 19.2039 2.85379 19.2343 2.82338C19.2647 2.79296 19.3059 2.77588 19.3489 2.77588H21.6007C21.8912 2.77571 22.1698 2.89075 22.3756 3.09577C22.5813 3.30079 22.6974 3.57904 22.6982 3.8695V7.78377C22.6982 7.8265 22.6814 7.8675 22.6513 7.89787C22.6213 7.92823 22.5804 7.94551 22.5377 7.94593ZM1.62462 7.62161H22.3755V3.86918C22.3748 3.66468 22.293 3.46882 22.1481 3.32458C22.0031 3.18035 21.8068 3.09953 21.6023 3.09988H19.5131V4.54053C19.5134 4.67871 19.459 4.8114 19.3617 4.90956C19.2645 5.00773 19.1323 5.06337 18.9941 5.06431H17.546C17.4078 5.06337 17.2757 5.00773 17.1784 4.90956C17.0812 4.8114 17.0268 4.67871 17.0271 4.54053V3.1002H6.96883V4.54053C6.96918 4.67871 6.91477 4.8114 6.81752 4.90956C6.72027 5.00773 6.58809 5.06337 6.44991 5.06431H5.007C4.86813 5.06414 4.73501 5.0089 4.63681 4.91071C4.53862 4.81252 4.48338 4.67939 4.48321 4.54053V3.1002H2.39359C2.18973 3.10046 1.99428 3.18156 1.85013 3.32571C1.70597 3.46987 1.62487 3.66531 1.62462 3.86918V7.62161Z" fill="#323C6B"/>
<path d="M21.6023 23.1892H2.39354C2.10308 23.1884 1.82483 23.0724 1.61981 22.8666C1.41479 22.6609 1.29975 22.3822 1.29992 22.0917V7.78384C1.29992 7.74084 1.317 7.69959 1.34742 7.66918C1.37783 7.63877 1.41907 7.62168 1.46208 7.62168H22.5376C22.5807 7.62168 22.6219 7.63877 22.6523 7.66918C22.6827 7.69959 22.6998 7.74084 22.6998 7.78384V22.0917C22.6995 22.3827 22.5837 22.6617 22.378 22.8674C22.1722 23.0732 21.8933 23.1889 21.6023 23.1892ZM1.62392 7.94601V22.0917C1.62357 22.2963 1.70443 22.4926 1.84874 22.6376C1.99304 22.7826 2.18899 22.8643 2.39354 22.8649H21.6023C21.8073 22.8648 22.0039 22.7832 22.1488 22.6383C22.2938 22.4933 22.3753 22.2967 22.3755 22.0917V7.94601H1.62392ZM15.9629 2.1273H12.6081C12.5651 2.1273 12.5239 2.11022 12.4935 2.07981C12.4631 2.0494 12.446 2.00815 12.446 1.96514C12.446 1.92213 12.4631 1.88089 12.4935 1.85047C12.5239 1.82006 12.5651 1.80298 12.6081 1.80298H15.9629C16.006 1.80298 16.0472 1.82006 16.0776 1.85047C16.108 1.88089 16.1251 1.92213 16.1251 1.96514C16.1251 2.00815 16.108 2.0494 16.0776 2.07981C16.0472 2.11022 16.006 2.1273 15.9629 2.1273ZM11.773 2.1273H11.5103C11.4673 2.1273 11.426 2.11022 11.3956 2.07981C11.3652 2.0494 11.3481 2.00815 11.3481 1.96514C11.3481 1.92213 11.3652 1.88089 11.3956 1.85047C11.426 1.82006 11.4673 1.80298 11.5103 1.80298H11.773C11.816 1.80298 11.8573 1.82006 11.8877 1.85047C11.9181 1.88089 11.9352 1.92213 11.9352 1.96514C11.9352 2.00815 11.9181 2.0494 11.8877 2.07981C11.8573 2.11022 11.816 2.1273 11.773 2.1273ZM0.489433 20.5184C0.446425 20.5184 0.405178 20.5014 0.374767 20.4709C0.344355 20.4405 0.327271 20.3993 0.327271 20.3563V17.0861C0.327271 17.0431 0.344355 17.0019 0.374767 16.9714C0.405178 16.941 0.446425 16.924 0.489433 16.924C0.532441 16.924 0.573687 16.941 0.604099 16.9714C0.63451 17.0019 0.651595 17.0431 0.651595 17.0861V20.3563C0.651595 20.3993 0.63451 20.4405 0.604099 20.4709C0.573687 20.5014 0.532441 20.5184 0.489433 20.5184ZM0.489433 16.3295C0.446425 16.3295 0.405178 16.3124 0.374767 16.282C0.344355 16.2516 0.327271 16.2103 0.327271 16.1673V15.8971C0.327271 15.8541 0.344355 15.8129 0.374767 15.7825C0.405178 15.7521 0.446425 15.735 0.489433 15.735C0.532441 15.735 0.573687 15.7521 0.604099 15.7825C0.63451 15.8129 0.651595 15.8541 0.651595 15.8971V16.1673C0.651595 16.2103 0.63451 16.2516 0.604099 16.282C0.573687 16.3124 0.532441 16.3295 0.489433 16.3295Z" fill="#323C6B"/>
<path d="M7.91904 6.95385H4.51623C4.46032 6.95385 4.4067 6.93164 4.36717 6.8921C4.32763 6.85257 4.30542 6.79895 4.30542 6.74304C4.30542 6.68713 4.32763 6.63351 4.36717 6.59397C4.4067 6.55444 4.46032 6.53223 4.51623 6.53223H7.91904C7.97495 6.53223 8.02857 6.55444 8.06811 6.59397C8.10764 6.63351 8.12985 6.68713 8.12985 6.74304C8.12985 6.79895 8.10764 6.85257 8.06811 6.8921C8.02857 6.93164 7.97495 6.95385 7.91904 6.95385ZM9.24618 6.95385H8.97601C8.9201 6.95385 8.86648 6.93164 8.82695 6.8921C8.78741 6.85257 8.7652 6.79895 8.7652 6.74304C8.7652 6.68713 8.78741 6.63351 8.82695 6.59397C8.86648 6.55444 8.9201 6.53223 8.97601 6.53223H9.24618C9.30209 6.53223 9.35571 6.55444 9.39524 6.59397C9.43478 6.63351 9.45699 6.68713 9.45699 6.74304C9.45699 6.79895 9.43478 6.85257 9.39524 6.8921C9.35571 6.93164 9.30209 6.95385 9.24618 6.95385Z" fill="white"/>
</svg>
