<svg xmlns="http://www.w3.org/2000/svg" width="17.099" height="16.244" viewBox="0 0 17.099 16.244">
  <g id="comment" transform="translate(0 -1.5)">
    <path id="Path_22761" data-name="Path 22761" d="M8.55,1.5C3.835,1.5,0,4.952,0,9.195a7.113,7.113,0,0,0,1.359,4.162,6.645,6.645,0,0,1-1.275,3.9.285.285,0,0,0,.2.486.267.267,0,0,0,.04,0A15.225,15.225,0,0,0,5.06,16.22a9.277,9.277,0,0,0,3.489.669c4.714,0,8.55-3.452,8.55-7.695S13.264,1.5,8.55,1.5ZM4.56,10.335A1.14,1.14,0,1,1,5.7,9.195,1.141,1.141,0,0,1,4.56,10.335Zm3.99,0a1.14,1.14,0,1,1,1.14-1.14A1.141,1.141,0,0,1,8.55,10.335Zm3.99,0a1.14,1.14,0,1,1,1.14-1.14A1.141,1.141,0,0,1,12.539,10.335Z" transform="translate(0)" fill="#fff"/>
  </g>
</svg>
