<svg xmlns="http://www.w3.org/2000/svg" width="13" height="12.036" viewBox="0 0 13 12.036">
  <g id="contact" transform="translate(-17.308 -35)">
    <path id="Path_23219" data-name="Path 23219" d="M21.991,36.963h7.74l-4.6,3.152L22.007,37.97a1.377,1.377,0,0,0-.016-1.008Zm-2.024,1.829,1.128-.687a.723.723,0,0,0,.25-.978l-1.019-1.764a.722.722,0,0,0-1.035-.234l-1.858,1.279c-.884,3.115,3.089,9.86,6.136,10.629l2.036-.969a.722.722,0,0,0,.315-1.014L24.9,43.289a.723.723,0,0,0-.972-.273l-1.159.634a11.042,11.042,0,0,1-2.8-4.858Zm10.327-1.424-4.976,3.411a.326.326,0,0,1-.374,0l-3.3-2.264a1.376,1.376,0,0,1-.206.153l-.714.434a11.232,11.232,0,0,0,2.163,3.746l.733-.4a1.377,1.377,0,0,1,1.852.519l.632,1.094h3.679a.53.53,0,0,0,.528-.528V37.491A.524.524,0,0,0,30.293,37.368Z" fill-rule="evenodd"/>
  </g>
</svg>
