<svg width="20" height="19" viewBox="0 0 20 19" fill="none" xmlns="http://www.w3.org/2000/svg">
<path d="M3.7719 15.1735H0.999902C0.859232 15.1735 0.724322 15.2294 0.624853 15.3288C0.525384 15.4283 0.469502 15.5632 0.469502 15.7039V18.4191C0.469502 18.7127 0.707102 18.9495 0.999902 18.9495H3.7711C3.91177 18.9495 4.04668 18.8936 4.14615 18.7941C4.24562 18.6947 4.3015 18.5598 4.3015 18.4191V15.7039C4.3015 15.5632 4.24562 15.4283 4.14615 15.3288C4.04668 15.2294 3.91257 15.1735 3.7719 15.1735ZM8.8479 10.9271H6.0767C5.93617 10.9273 5.80147 10.9833 5.70217 11.0827C5.60287 11.1822 5.5471 11.317 5.5471 11.4575V18.4191C5.5471 18.7127 5.7839 18.9495 6.0767 18.9495H8.8479C8.98857 18.9495 9.12348 18.8936 9.22295 18.7941C9.32242 18.6947 9.3783 18.5598 9.3783 18.4191V11.4575C9.3783 11.3168 9.32242 11.1819 9.22295 11.0824C9.12348 10.983 8.98857 10.9271 8.8479 10.9271ZM13.9239 12.6375H11.1535C11.0128 12.6375 10.8779 12.6934 10.7785 12.7928C10.679 12.8923 10.6231 13.0272 10.6231 13.1679V18.4191C10.6231 18.7127 10.8599 18.9495 11.1535 18.9495H13.9239C14.0646 18.9495 14.1995 18.8936 14.299 18.7941C14.3984 18.6947 14.4543 18.5598 14.4543 18.4191V13.1679C14.4543 13.0272 14.3984 12.8923 14.299 12.7928C14.1995 12.6934 14.0646 12.6375 13.9239 12.6375ZM18.9999 8.65349H16.2295C16.0888 8.65349 15.9539 8.70937 15.8545 8.80884C15.755 8.90831 15.6991 9.04322 15.6991 9.18389V18.4191C15.6991 18.7127 15.9367 18.9495 16.2295 18.9495H18.9999C19.1406 18.9495 19.2755 18.8936 19.375 18.7941C19.4744 18.6947 19.5303 18.5598 19.5303 18.4191V9.18389C19.5303 9.04322 19.4744 8.90831 19.375 8.80884C19.2755 8.70937 19.1406 8.65349 18.9999 8.65349ZM16.6879 3.77029C16.9663 3.91669 17.2783 4.00789 17.6143 4.00789C17.8742 4.00905 18.1318 3.95893 18.3724 3.86041C18.6129 3.76188 18.8317 3.61689 19.0161 3.43372C19.2005 3.25055 19.347 3.0328 19.4472 2.79294C19.5474 2.55309 19.5993 2.29583 19.5999 2.03589C19.5991 1.50954 19.3896 1.00499 19.0174 0.632796C18.6452 0.260608 18.1407 0.0511392 17.6143 0.050293C17.0881 0.0513506 16.5837 0.260912 16.2117 0.633078C15.8397 1.00524 15.6303 1.50968 15.6295 2.03589C15.6295 2.20709 15.6575 2.36949 15.6983 2.52709L13.6583 4.13509C13.3391 3.91589 12.9543 3.78629 12.5383 3.78629C11.9383 3.78629 11.4055 4.06069 11.0407 4.48389L9.4215 3.75429C9.35914 3.27824 9.1262 2.84097 8.7659 2.52363C8.40561 2.20629 7.94242 2.03044 7.4623 2.02869C6.93595 2.02954 6.43139 2.23901 6.05921 2.6112C5.68702 2.98339 5.47755 3.48794 5.4767 4.01429C5.4767 4.10389 5.4919 4.18949 5.5039 4.27589L3.3103 6.00389C3.0265 5.84905 2.70879 5.76687 2.3855 5.76469C1.85915 5.76554 1.35459 5.97501 0.982406 6.3472C0.610217 6.71939 0.400749 7.22394 0.399902 7.75029C0.400531 8.01023 0.452418 8.26749 0.552594 8.50734C0.65277 8.7472 0.799267 8.96495 0.9837 9.14812C1.16813 9.33129 1.38688 9.47628 1.62742 9.57481C1.86796 9.67333 2.12557 9.72345 2.3855 9.72229C2.64537 9.72335 2.90289 9.67315 3.14334 9.57458C3.38379 9.47601 3.60244 9.33099 3.78679 9.14783C3.97114 8.96467 4.11756 8.74696 4.21769 8.50716C4.31781 8.26735 4.36967 8.01016 4.3703 7.75029C4.3703 7.57589 4.3407 7.40949 4.2983 7.24869L6.3399 5.63909C6.74315 5.91591 7.23465 6.03354 7.71953 5.96927C8.20441 5.90501 8.64829 5.6634 8.9655 5.29109L10.5783 6.01749C10.6384 6.49473 10.8707 6.93357 11.2317 7.2515C11.5926 7.56943 12.0573 7.74454 12.5383 7.74389C12.7982 7.74505 13.0558 7.69493 13.2964 7.59641C13.5369 7.49788 13.7557 7.35289 13.9401 7.16972C14.1245 6.98655 14.271 6.7688 14.3712 6.52894C14.4714 6.28909 14.5233 6.03183 14.5239 5.77189C14.5239 5.67829 14.5087 5.58789 14.4959 5.49749L16.6879 3.77029Z" fill="black"/>
</svg>
