<svg width="24" height="24" viewBox="0 0 24 24" fill="none" xmlns="http://www.w3.org/2000/svg">
<g clip-path="url(#clip0_132_4886)">
<path d="M3 21C2.17275 21 1.5 20.328 1.5 19.5V4.5C1.5 3.672 2.17275 3 3 3H19.5C20.3272 3 21 3.672 21 4.5V19.5C21 20.328 20.3272 21 19.5 21H3Z" fill="#E0E0E0"/>
<path d="M1.5 7.5V4.5C1.5 3.672 2.17275 3 3 3H19.5C20.3272 3 21 3.672 21 4.5V7.5H1.5ZM17.25 22.5C14.355 22.5 12 20.145 12 17.25C12 14.355 14.355 12 17.25 12C20.145 12 22.5 14.355 22.5 17.25C22.5 20.145 20.145 22.5 17.25 22.5Z" fill="#EF5350"/>
<path d="M17.25 11.25C13.9418 11.25 11.25 13.9418 11.25 17.25C11.25 20.5583 13.9418 23.25 17.25 23.25C20.5583 23.25 23.25 20.5583 23.25 17.25C23.25 13.9418 20.5583 11.25 17.25 11.25ZM17.25 21.75C14.7682 21.75 12.75 19.7318 12.75 17.25C12.75 14.7682 14.7682 12.75 17.25 12.75C19.7318 12.75 21.75 14.7682 21.75 17.25C21.75 19.7318 19.7318 21.75 17.25 21.75ZM19.8105 15.75L18.3105 17.25L19.8105 18.75L18.75 19.8105L17.25 18.3105L15.75 19.8105L14.6895 18.75L16.1895 17.25L14.6895 15.75L15.75 14.6895L17.25 16.1895L18.75 14.6895L19.8105 15.75ZM19.5 2.25H17.25V0.75H15.75V2.25H6.75V0.75H5.25V2.25H3C1.7625 2.25 0.75 3.2625 0.75 4.5V19.5C0.75 20.7375 1.7625 21.75 3 21.75H11.2575C10.9034 21.2887 10.6085 20.7848 10.38 20.25H3C2.5875 20.25 2.25 19.9125 2.25 19.5V8.25H20.25V10.38C20.79 10.6125 21.2925 10.905 21.75 11.2575V4.5C21.75 3.2625 20.7375 2.25 19.5 2.25ZM20.25 6.75H2.25V4.5C2.25 4.0875 2.5875 3.75 3 3.75H19.5C19.9125 3.75 20.25 4.0875 20.25 4.5V6.75ZM7.5 12.75H4.5V11.25H7.5V12.75ZM12.75 11.25V11.2575C12.1875 11.6775 11.6775 12.1875 11.2575 12.75H9.75V11.25H12.75ZM4.5 15.75H7.5V17.25H4.5V15.75Z" fill="#212121"/>
</g>
<defs>
<clipPath id="clip0_132_4886">
<rect width="24" height="24" fill="white"/>
</clipPath>
</defs>
</svg>
