<svg width="24" height="24" viewBox="0 0 24 24" fill="none" xmlns="http://www.w3.org/2000/svg">
<path d="M22.2656 18.6562V2.34375C22.2656 1.30823 21.4261 0.46875 20.3906 0.46875H3.60938C2.57386 0.46875 1.73438 1.30823 1.73438 2.34375V21.6562C1.73438 22.6918 2.57386 23.5312 3.60938 23.5312H17.3906L22.2656 18.6562Z" fill="#EDF2FA"/>
<path d="M17.3906 23.5312V20.1797C17.3906 19.3383 18.0727 18.6562 18.9141 18.6562H22.2656L17.3906 23.5312Z" fill="#FF5D5D"/>
<path d="M5.30432 15.899L16.1015 5.10182C16.6539 4.54939 17.5495 4.54939 18.1019 5.10182L19.8357 6.83554C20.3881 7.38796 20.3881 8.2836 19.8357 8.83602L9.03852 19.6332L5.30432 15.899Z" fill="#FFB954"/>
<path d="M17.9683 10.7035L19.8357 8.83607C20.3881 8.28364 20.3881 7.388 19.8357 6.83558L18.1019 5.10182C17.5495 4.54939 16.6538 4.54939 16.1014 5.10182L14.234 6.96922L17.9683 10.7035Z" fill="#FE8F8D"/>
<path d="M3.9375 21L5.30433 15.8989L9.03853 19.6331L3.9375 21Z" fill="#D8D8E4"/>
<path d="M4.53455 18.7717L3.9375 21L6.16575 20.4029L4.53455 18.7717Z" fill="#5A54E0"/>
<path d="M1.73438 10.0312C1.85766 10.0312 1.97859 9.98109 2.06573 9.89386C2.15297 9.80672 2.20312 9.68578 2.20312 9.5625C2.20312 9.43922 2.15297 9.31828 2.06573 9.23109C1.97859 9.14386 1.85766 9.09375 1.73438 9.09375C1.61109 9.09375 1.49016 9.14386 1.40297 9.23109C1.31578 9.31833 1.26562 9.43922 1.26562 9.5625C1.26562 9.68578 1.31573 9.80672 1.40297 9.89386C1.49106 9.98148 1.61013 10.0308 1.73438 10.0312Z" fill="black"/>
<path d="M22.7344 2.34375C22.7344 1.05141 21.683 0 20.3906 0H3.60938C2.31703 0 1.26562 1.05141 1.26562 2.34375V7.03125C1.26562 7.29009 1.47553 7.5 1.73438 7.5C1.99322 7.5 2.20312 7.29009 2.20312 7.03125V2.34375C2.20312 1.56834 2.83397 0.9375 3.60938 0.9375H20.3906C21.166 0.9375 21.7969 1.56834 21.7969 2.34375V18.1875H18.9141C17.8155 18.1875 16.9219 19.0812 16.9219 20.1797V23.0625H3.60938C2.83397 23.0625 2.20312 22.4317 2.20312 21.6562V11.6719C2.20312 11.413 1.99322 11.2031 1.73438 11.2031C1.47553 11.2031 1.26562 11.413 1.26562 11.6719V21.6562C1.26562 22.9486 2.31703 24 3.60938 24H17.3906C17.4522 24 17.5131 23.9879 17.57 23.9643C17.6269 23.9408 17.6786 23.9062 17.7221 23.8627L22.5971 18.9877C22.6867 18.8981 22.7332 18.7783 22.7332 18.6564L22.7344 18.6562V2.34375ZM17.8594 22.3995V20.1797C17.8594 19.5982 18.3325 19.125 18.9141 19.125H21.1339L17.8594 22.3995Z" fill="black"/>
<path d="M9.16363 20.0846C9.24155 20.063 9.3126 20.0216 9.36997 19.9646L20.1671 9.16748C20.5228 8.81175 20.7187 8.33883 20.7187 7.83581C20.7187 7.33275 20.5228 6.85983 20.1671 6.50409L18.4334 4.77037C18.0777 4.41464 17.6047 4.21875 17.1017 4.21875C16.5987 4.21875 16.1257 4.41464 15.77 4.77037L4.97286 15.5675C4.91484 15.6258 4.87303 15.6982 4.85155 15.7776L3.48472 20.8787C3.46611 20.9481 3.46373 21.0209 3.47776 21.0915C3.49178 21.162 3.52185 21.2283 3.56561 21.2854C3.60938 21.3424 3.66569 21.3886 3.73017 21.4204C3.79465 21.4522 3.86559 21.4687 3.93749 21.4688H14.0156C14.2745 21.4688 14.4844 21.2588 14.4844 21C14.4844 20.7412 14.2745 20.5312 14.0156 20.5312H7.49792L9.15983 20.0859C9.16356 20.0846 9.16736 20.0835 9.17122 20.0826L9.16363 20.0846C9.18209 20.0796 9.16231 20.085 9.16363 20.0846ZM5.96727 15.899L14.1759 7.69036L17.2472 10.7616L9.03852 18.9702L5.96727 15.899ZM4.60044 20.337L4.77416 19.6888L5.24872 20.1633L4.60044 20.337ZM16.4329 5.43328C16.8016 5.06456 17.4016 5.06447 17.7704 5.43328L19.5042 7.167C19.8729 7.53577 19.8729 8.13577 19.5042 8.50453L17.9101 10.0986L14.8388 7.02736L16.4329 5.43328ZM6.29441 19.8832L5.05433 18.6431L5.54699 16.8045L8.13299 19.3905L6.29441 19.8832Z" fill="black"/>
<path d="M15.0558 11.0638C14.8727 10.8808 14.576 10.8808 14.3929 11.0638L11.2121 14.2445C11.0291 14.4276 11.0291 14.7244 11.2121 14.9075C11.3037 14.999 11.4236 15.0448 11.5436 15.0448C11.6635 15.0448 11.7835 14.999 11.875 14.9075L15.0558 11.7267C15.2389 11.5437 15.2389 11.2469 15.0558 11.0638ZM9.76693 15.6898L9.76131 15.6954C9.57826 15.8784 9.57826 16.1752 9.76131 16.3583C9.85286 16.4498 9.97281 16.4956 10.0928 16.4956C10.2127 16.4956 10.3327 16.4498 10.4242 16.3583L10.4298 16.3527C10.6129 16.1697 10.6129 15.8729 10.4298 15.6898C10.2468 15.5068 9.95007 15.5068 9.76693 15.6898Z" fill="black"/>
</svg>
