<svg xmlns="http://www.w3.org/2000/svg" width="15.645" height="17.348" viewBox="0 0 15.645 17.348">
  <path id="event" d="M51.912,922.484H39.743a1.738,1.738,0,0,1-1.738-1.734l.008-12.145a1.73,1.73,0,0,1,1.73-1.735h.87v-1.734h1.738v1.734h6.954v-1.734h1.738v1.734h.868a1.747,1.747,0,0,1,1.738,1.736V920.75A1.746,1.746,0,0,1,51.912,922.484ZM39.743,911.207v9.542H51.912v-9.542Zm4.862,7.807h0l-2.765-2.758.921-.919,1.845,1.839,4.239-4.233.922.919-5.16,5.152Z" transform="translate(-38.005 -905.135)" fill="#4e4b66"/>
</svg>
