<svg xmlns="http://www.w3.org/2000/svg" width="17.348" height="11.152" viewBox="0 0 17.348 11.152">
  <g id="eye" transform="translate(-2.252 -7.875)">
    <path id="Path_22575" data-name="Path 22575" d="M10.917,7.875c-3.113,0-5.568,1.959-8.5,5.161a.612.612,0,0,0,0,.825c2.513,2.776,4.728,5.165,8.507,5.165,3.733,0,6.532-3.009,8.522-5.189a.607.607,0,0,0,.019-.8C17.429,10.578,14.622,7.875,10.917,7.875Zm.17,9.057a3.485,3.485,0,1,1,3.318-3.318A3.486,3.486,0,0,1,11.087,16.932Z" fill="#7cacdc"/>
    <path id="Path_22576" data-name="Path 22576" d="M15.979,14.158a1.819,1.819,0,0,1,.12-.654c-.039,0-.077,0-.12,0a2.478,2.478,0,1,0,2.478,2.478c0-.05,0-.1,0-.151a1.717,1.717,0,0,1-.7.151A1.8,1.8,0,0,1,15.979,14.158Z" transform="translate(-5.054 -2.527)" fill="#7cacdc"/>
  </g>
</svg>
