<svg xmlns="http://www.w3.org/2000/svg" width="12.894" height="11.82" viewBox="0 0 12.894 11.82">
  <g id="svgexport-17_-_2023-09-02T221914.944" data-name="svgexport-17 - 2023-09-02T221914.944" transform="translate(0 -0.492)">
    <path id="Path_23247" data-name="Path 23247" d="M3.357,72.282a2.012,2.012,0,0,1-1.9-1.371l-.019-.062a1.961,1.961,0,0,1-.093-.582V66.6l-1.3,4.351a1.22,1.22,0,0,0,.855,1.48L9.2,74.66a1.232,1.232,0,0,0,.309.04,1.2,1.2,0,0,0,1.161-.878l.484-1.539Zm1.477-5.641A1.075,1.075,0,1,0,3.76,65.567,1.076,1.076,0,0,0,4.835,66.641Zm0,0" transform="translate(0 -62.388)" fill="#fff"/>
    <path id="Path_23248" data-name="Path 23248" d="M94.722.492H86.663A1.345,1.345,0,0,0,85.32,1.835v5.91a1.345,1.345,0,0,0,1.343,1.343h8.059a1.345,1.345,0,0,0,1.343-1.343V1.835A1.345,1.345,0,0,0,94.722.492ZM86.663,1.567h8.059a.269.269,0,0,1,.269.269V5.649l-1.7-1.98a.962.962,0,0,0-.72-.33.939.939,0,0,0-.718.339l-2,2.4-.65-.648a.943.943,0,0,0-1.332,0L86.395,6.906V1.835a.269.269,0,0,1,.269-.269Zm0,0" transform="translate(-83.171 0)" fill="#fff"/>
  </g>
</svg>
