<svg xmlns="http://www.w3.org/2000/svg" width="166.206" height="159.28" viewBox="0 0 166.206 159.28">
  <g id="Group_9047" data-name="Group 9047" transform="translate(-245.905 -279.746)">
    <g id="Group_8942" data-name="Group 8942" transform="translate(245.905 305.001)">
      <g id="Group_8916" data-name="Group 8916" transform="translate(11.984)">
        <path id="Path_22643" data-name="Path 22643" d="M337.736,552.485a3.885,3.885,0,1,1-4.8-2.674A3.885,3.885,0,0,1,337.736,552.485Z" transform="translate(-330.113 -549.662)" fill="#22191d"/>
      </g>
      <g id="Group_8917" data-name="Group 8917" transform="translate(6.579 2.953)">
        <path id="Path_22644" data-name="Path 22644" d="M293.417,572.97s7.6-5.122,10.373-.877a17.032,17.032,0,0,1,1.871,4.248,8.6,8.6,0,0,1-5.223,10.562h0a4.784,4.784,0,0,1-6.051-2.55c-1.156-2.62-2.366-5.918-2.245-8.034C292.369,572.346,293.417,572.97,293.417,572.97Z" transform="translate(-292.133 -570.409)" fill="#22191d"/>
      </g>
      <g id="Group_8918" data-name="Group 8918" transform="translate(19.691 44.225)">
        <path id="Path_22645" data-name="Path 22645" d="M384.27,860.734l8.461,49.019,7.095,35.621h7.065l-2.684-38.13c.3-19.331,1-38.468-3.574-46.817Z" transform="translate(-384.27 -860.427)" fill="#22191d"/>
      </g>
      <g id="Group_8924" data-name="Group 8924" transform="translate(0 43.279)">
        <g id="Group_8919" data-name="Group 8919" transform="translate(3.641)">
          <path id="Path_22646" data-name="Path 22646" d="M298.274,855.032c-2.411,18.743-7.784,34.427-15.83,48.137l.718,36.5h-6.807l-4.863-38.13,10.491-47.763Z" transform="translate(-271.491 -853.779)" fill="#22191d"/>
        </g>
        <g id="Group_8923" data-name="Group 8923" transform="translate(0 84.863)">
          <g id="Group_8920" data-name="Group 8920">
            <path id="Path_22647" data-name="Path 22647" d="M249.159,1456.714h16.569L264,1451.121h-6.8Z" transform="translate(-248.696 -1450.976)" fill="#fff"/>
            <path id="Path_22648" data-name="Path 22648" d="M263.134,1455.984H245.9l8.463-5.883h6.952Zm-16.3-.29h15.91l-1.635-5.3h-6.647Z" transform="translate(-245.905 -1450.101)" fill="#22191d"/>
          </g>
          <g id="Group_8921" data-name="Group 8921" transform="translate(8.406 0.043)">
            <rect id="Rectangle_201" data-name="Rectangle 201" width="0.29" height="2.997" transform="matrix(0.709, -0.705, 0.705, 0.709, 0, 0.205)" fill="#22191d"/>
          </g>
          <g id="Group_8922" data-name="Group 8922" transform="translate(3.861 4.451)">
            <rect id="Rectangle_202" data-name="Rectangle 202" width="12.819" height="0.29" fill="#22191d"/>
          </g>
        </g>
      </g>
      <g id="Group_8928" data-name="Group 8928" transform="translate(27.32 128.142)">
        <g id="Group_8925" data-name="Group 8925">
          <path id="Path_22649" data-name="Path 22649" d="M441.133,1456.714H457.7l-1.725-5.593h-6.8Z" transform="translate(-440.67 -1450.976)" fill="#fff"/>
          <path id="Path_22650" data-name="Path 22650" d="M455.107,1455.984H437.878l8.463-5.883h6.952Zm-16.3-.29h15.91l-1.635-5.3h-6.647Z" transform="translate(-437.878 -1450.101)" fill="#22191d"/>
        </g>
        <g id="Group_8926" data-name="Group 8926" transform="translate(8.406 0.043)">
          <rect id="Rectangle_203" data-name="Rectangle 203" width="0.29" height="2.997" transform="translate(0 0.205) rotate(-44.841)" fill="#22191d"/>
        </g>
        <g id="Group_8927" data-name="Group 8927" transform="translate(3.861 4.451)">
          <rect id="Rectangle_204" data-name="Rectangle 204" width="12.819" height="0.29" fill="#22191d"/>
        </g>
      </g>
      <g id="Group_8929" data-name="Group 8929" transform="translate(5.525 9.589)">
        <path id="Path_22651" data-name="Path 22651" d="M287.361,618.258s-1.821-1.154-1.858.232,1.4,4.516,3.225,3.115A8.478,8.478,0,0,0,287.361,618.258Z" transform="translate(-285.392 -617.699)" fill="#fff"/>
        <path id="Path_22652" data-name="Path 22652" d="M287.142,621.412a1.4,1.4,0,0,1-.64-.16,4.339,4.339,0,0,1-1.771-3.42.755.755,0,0,1,.35-.708c.574-.305,1.632.357,1.677.386l.024.021a8.523,8.523,0,0,1,1.39,3.394l.017.069-.057.044A1.625,1.625,0,0,1,287.142,621.412Zm-1.7-4.149a.471.471,0,0,0-.494.576,4.144,4.144,0,0,0,1.651,3.218,1.217,1.217,0,0,0,1.34-.151,8.687,8.687,0,0,0-1.316-3.219A2.748,2.748,0,0,0,285.445,617.263Z" transform="translate(-284.731 -617.044)" fill="#020202"/>
      </g>
      <g id="Group_8930" data-name="Group 8930" transform="translate(17.354 6.457)">
        <path id="Path_22653" data-name="Path 22653" d="M368.668,596.913s1.015-1.9,1.731-.715,1.008,4.62-1.269,4.3A8.481,8.481,0,0,1,368.668,596.913Z" transform="translate(-368.519 -595.698)" fill="#fff"/>
        <path id="Path_22654" data-name="Path 22654" d="M368.745,599.967a2.162,2.162,0,0,1-.3-.022l-.071-.01-.02-.069a8.517,8.517,0,0,1-.465-3.638l.011-.03c.025-.047.619-1.145,1.268-1.163a.757.757,0,0,1,.654.443,4.339,4.339,0,0,1,.147,3.848A1.4,1.4,0,0,1,368.745,599.967Zm-.2-.23a1.217,1.217,0,0,0,1.24-.53,4.145,4.145,0,0,0-.152-3.614c-.138-.228-.3-.344-.46-.336-.427.011-.91.734-1.072,1.031A8.692,8.692,0,0,0,368.549,599.736Z" transform="translate(-367.851 -595.036)" fill="#22191d"/>
      </g>
      <g id="Group_8931" data-name="Group 8931" transform="translate(6.465 15.91)">
        <path id="Path_22655" data-name="Path 22655" d="M292.39,669.524c-1.975,9.721,7.163,7.093,5.793,26.979a1.441,1.441,0,0,0,.661,1.315c4.654,2.965,12.127.619,21.549-6.37a1.439,1.439,0,0,0,.1-2.23c-5.678-5.1-8-19.066-8.728-24.768a2.535,2.535,0,0,0-3.078-2.158l-.029.007-5.284,1.252-5.221,1.7-4.123,2.1A3.133,3.133,0,0,0,292.39,669.524Z" transform="translate(-291.999 -662.117)" fill="#fff"/>
        <path id="Path_22656" data-name="Path 22656" d="M302.81,698.528a8.556,8.556,0,0,1-4.692-1.273,1.55,1.55,0,0,1-.712-1.415c.775-11.25-1.79-15.219-3.851-18.409-1.566-2.423-2.8-4.337-1.939-8.584a3.228,3.228,0,0,1,1.7-2.248l4.14-2.111,5.221-1.7,5.32-1.261a2.62,2.62,0,0,1,2.089.4,2.668,2.668,0,0,1,1.124,1.85c.734,5.739,3.051,19.634,8.693,24.7a1.549,1.549,0,0,1-.109,2.4c-4.737,3.514-8.975,5.847-12.6,6.935A15.339,15.339,0,0,1,302.81,698.528Zm-11.087-29.659.108.022c-.845,4.16.37,6.04,1.909,8.421,2.079,3.217,4.666,7.221,3.886,18.543a1.33,1.33,0,0,0,.611,1.215c4.52,2.88,11.929.678,21.425-6.366a1.329,1.329,0,0,0,.093-2.06c-5.7-5.115-8.026-19.073-8.764-24.836a2.448,2.448,0,0,0-1.031-1.7,2.4,2.4,0,0,0-1.913-.367L302.733,663l-5.2,1.691-4.116,2.1a3.009,3.009,0,0,0-1.583,2.1Z" transform="translate(-291.331 -661.462)" fill="#22191d"/>
      </g>
      <g id="Group_8932" data-name="Group 8932" transform="translate(10.889 14.133)">
        <path id="Path_22657" data-name="Path 22657" d="M331.384,653.288c.6,3.128-2.427,6.557-5.765,7.394l-1.418-5.406L323.34,652l4.929-1.969.324-.129Z" transform="translate(-323.209 -649.767)" fill="#fff"/>
        <path id="Path_22658" data-name="Path 22658" d="M324.752,660.022l-2.331-8.885,5.418-2.163,2.859,3.473.005.027c.639,3.306-2.559,6.7-5.846,7.522Zm-2.07-8.753,2.227,8.487a8.321,8.321,0,0,0,4.2-2.773,5.512,5.512,0,0,0,1.386-4.439l-2.722-3.306Z" transform="translate(-322.42 -648.974)" fill="#22191d"/>
      </g>
      <g id="Group_8933" data-name="Group 8933" transform="translate(15.964 17.655)">
        <path id="Path_22659" data-name="Path 22659" d="M358.081,679.86l.572.323a2.247,2.247,0,0,0,3.236-1.247l.89-2.67a1.947,1.947,0,0,0-1.6-2.547h0C361.66,675.8,360.041,677.453,358.081,679.86Z" transform="translate(-358.081 -673.72)" fill="#22191d"/>
      </g>
      <g id="Group_8934" data-name="Group 8934" transform="translate(10.974 20.016)">
        <path id="Path_22660" data-name="Path 22660" d="M328.007,694.1h0a2.247,2.247,0,0,1-3.706.529l-.659-.739a2.471,2.471,0,0,1,.3-3.574h0C324.746,692.286,325.019,693.254,328.007,694.1Z" transform="translate(-323.016 -690.312)" fill="#22191d"/>
      </g>
      <g id="Group_8935" data-name="Group 8935" transform="translate(11.02 14.394)">
        <path id="Path_22661" data-name="Path 22661" d="M329.659,652.745s-1.947,3.294-5.458,3.308l-.861-3.281,4.929-1.969A11.9,11.9,0,0,1,329.659,652.745Z" transform="translate(-323.34 -650.804)" fill="#22191d"/>
      </g>
      <g id="Group_8936" data-name="Group 8936" transform="translate(6.426 3.036)">
        <path id="Path_22662" data-name="Path 22662" d="M303.107,576.42l.756,4.037a5.234,5.234,0,0,1-1.844,5.026l-.351.285a5.233,5.233,0,0,1-4.255,1.084h0a5.234,5.234,0,0,1-4.036-3.567l-1.3-4.1a5.685,5.685,0,0,1,4.2-7.276l.155-.032A5.682,5.682,0,0,1,303.107,576.42Z" transform="translate(-291.707 -571.659)" fill="#fff"/>
        <path id="Path_22663" data-name="Path 22663" d="M297.727,586.384a5.348,5.348,0,0,1-5.1-3.732l-1.3-4.1a5.794,5.794,0,0,1,4.279-7.416l.157-.033a5.713,5.713,0,0,1,4.344.882,5.777,5.777,0,0,1,2.458,3.747l.756,4.037a5.339,5.339,0,0,1-1.882,5.131l-.35.285A5.335,5.335,0,0,1,297.727,586.384Zm-.831-15.171a5.57,5.57,0,0,0-1.084.107l-.154.032a5.575,5.575,0,0,0-4.116,7.135l1.3,4.1a5.124,5.124,0,0,0,8.117,2.431l.35-.285a5.119,5.119,0,0,0,1.8-4.92l-.756-4.037a5.559,5.559,0,0,0-2.365-3.606A5.5,5.5,0,0,0,296.9,571.213Z" transform="translate(-291.062 -570.993)" fill="#22191d"/>
      </g>
      <g id="Group_8939" data-name="Group 8939" transform="translate(21.132 16.119)">
        <g id="Group_8937" data-name="Group 8937" transform="translate(15.364 34.4)">
          <path id="Path_22664" data-name="Path 22664" d="M504.62,906.409a7.087,7.087,0,0,1-.691,3.346c-.806,1.489-.5,4.432.843,2.492s2.489,1.792,3.418,6.8c.494,2.661,4.05-1.635,2.826-6.468s-.919-4.12-1.535-6.822A31.736,31.736,0,0,0,504.62,906.409Z" transform="translate(-503.326 -905.593)" fill="#fff"/>
          <path id="Path_22665" data-name="Path 22665" d="M507.878,919.075a.664.664,0,0,1-.209-.033c-.209-.069-.482-.283-.6-.911-1.062-5.726-1.928-7.067-2.467-7.182-.208-.045-.432.106-.669.447-.54.778-.92.777-1.144.639-.633-.389-.521-2.266.035-3.294a6.978,6.978,0,0,0,.673-3.262l-.008-.135.133-.027a31.294,31.294,0,0,1,4.9-.659l.118.006.026.115c.224.984.326,1.515.425,2.028.17.884.331,1.718,1.109,4.791.8,3.169-.384,6.038-1.484,7.062A1.3,1.3,0,0,1,507.878,919.075Zm-3.35-8.447a.673.673,0,0,1,.141.015c.595.128,1.522,1.037,2.708,7.431.07.378.2.61.39.671s.452-.049.738-.315a7.543,7.543,0,0,0,1.394-6.757c-.78-3.081-.942-3.92-1.113-4.808-.094-.49-.192-1-.4-1.9a32.01,32.01,0,0,0-4.574.631,7.079,7.079,0,0,1-.715,3.293c-.567,1.048-.515,2.653-.146,2.879.15.092.42-.114.724-.551A1.11,1.11,0,0,1,504.528,910.628Z" transform="translate(-502.36 -904.653)" fill="#22191d"/>
        </g>
        <g id="Group_8938" data-name="Group 8938">
          <path id="Path_22666" data-name="Path 22666" d="M395.872,668.726h0a84.913,84.913,0,0,0,14.03,9.24l1.587,20.7,5.622,2.077-.228-23.45a8.351,8.351,0,0,0-3.228-6.521c-3.213-2.491-8.553-5.9-14.631-6.794A3.141,3.141,0,0,0,395.872,668.726Z" transform="translate(-395.256 -663.8)" fill="#fff"/>
          <path id="Path_22667" data-name="Path 22667" d="M416.4,700.085l-5.907-2.183L408.9,677.189a86.059,86.059,0,0,1-13.984-9.22l-.019-.015-.013-.021a3.286,3.286,0,0,1,3.3-4.966c6.022.889,11.318,4.2,14.7,6.823a8.449,8.449,0,0,1,3.284,6.635Zm-5.632-2.391,5.337,1.972-.226-23.239a8.162,8.162,0,0,0-3.172-6.408c-3.354-2.6-8.6-5.885-14.564-6.765a3,3,0,0,0-3.019,4.506,85.533,85.533,0,0,0,13.984,9.207l.073.037Z" transform="translate(-394.397 -662.93)" fill="#22191d"/>
        </g>
      </g>
      <g id="Group_8940" data-name="Group 8940" transform="translate(15.821 23.782)">
        <path id="Path_22668" data-name="Path 22668" d="M359.887,726.681c-1.909-3.175-2.8-9.8-2.809-9.866l.288-.038c.009.066.893,6.631,2.77,9.754Z" transform="translate(-357.078 -716.777)" fill="#22191d"/>
      </g>
      <g id="Group_8941" data-name="Group 8941" transform="translate(4.339 1.828)">
        <path id="Path_22669" data-name="Path 22669" d="M288.416,564.5c-2.486,2.013-6.1,7.252-10.258,9.679.342-3.828-6.288-9.7,4.174-11.535C286.664,561.881,288.416,564.5,288.416,564.5Z" transform="translate(-276.398 -562.504)" fill="#22191d"/>
      </g>
    </g>
    <g id="Group_8988" data-name="Group 8988" transform="translate(266.904 279.746)">
      <g id="Group_8960" data-name="Group 8960" transform="translate(0 12.291)">
        <rect id="Rectangle_211" data-name="Rectangle 211" width="99.424" height="146.806" transform="translate(99.424 146.806) rotate(180)" fill="#22191d"/>
      </g>
      <g id="Group_8961" data-name="Group 8961" transform="translate(4.063 13.985)">
        <rect id="Rectangle_212" data-name="Rectangle 212" width="91.014" height="143.132" transform="translate(91.156 143.274) rotate(180)" fill="#fff"/>
        <path id="Path_22688" data-name="Path 22688" d="M513.308,613.889h-91.3V470.473h91.3Zm-91.014-.285h90.729V470.758H422.294Z" transform="translate(-422.009 -470.473)" fill="#22191d"/>
      </g>
      <g id="Group_8962" data-name="Group 8962" transform="translate(42.712 0)">
        <circle id="Ellipse_129" data-name="Ellipse 129" cx="6.101" cy="6.101" r="6.101" transform="translate(0 12.044) rotate(-80.783)" fill="#22191d"/>
      </g>
      <g id="Group_8963" data-name="Group 8963" transform="translate(27.278 7.717)">
        <path id="Rectangle_213" data-name="Rectangle 213" d="M10.766,0H34.1A10.766,10.766,0,0,1,44.868,10.766v0a0,0,0,0,1,0,0H0a0,0,0,0,1,0,0v0A10.766,10.766,0,0,1,10.766,0Z" fill="#22191d"/>
      </g>
      <g id="Group_8964" data-name="Group 8964" transform="translate(11.849 30.686)">
        <rect id="Rectangle_214" data-name="Rectangle 214" width="29.197" height="2.512" fill="#00dbde"/>
      </g>
      <g id="Group_8965" data-name="Group 8965" transform="translate(11.707 38.259)">
        <rect id="Rectangle_215" data-name="Rectangle 215" width="64.981" height="2.512" transform="translate(0.142 0.142)" fill="#fff"/>
        <path id="Path_22689" data-name="Path 22689" d="M540.988,643.839H475.723v-2.8h65.265Zm-64.981-.285h64.7v-2.227h-64.7Z" transform="translate(-475.723 -641.042)" fill="#22191d"/>
      </g>
      <g id="Group_8966" data-name="Group 8966" transform="translate(11.707 45.975)">
        <rect id="Rectangle_216" data-name="Rectangle 216" width="44.719" height="2.512" transform="translate(0.142 0.142)" fill="#fff"/>
        <path id="Path_22690" data-name="Path 22690" d="M520.726,698.058h-45v-2.8h45Zm-44.719-.285h44.434v-2.228H476.008Z" transform="translate(-475.723 -695.261)" fill="#22191d"/>
      </g>
      <g id="Group_8967" data-name="Group 8967" transform="translate(11.707 53.691)">
        <rect id="Rectangle_217" data-name="Rectangle 217" width="29.197" height="2.512" transform="translate(0.142 0.142)" fill="#fff"/>
        <path id="Path_22691" data-name="Path 22691" d="M505.2,752.277H475.723v-2.8H505.2Zm-29.2-.285H504.92v-2.228H476.008Z" transform="translate(-475.723 -749.48)" fill="#22191d"/>
      </g>
      <g id="Group_8968" data-name="Group 8968" transform="translate(45.711 53.691)">
        <rect id="Rectangle_218" data-name="Rectangle 218" width="39.335" height="2.512" transform="translate(0.142 0.142)" fill="#fff"/>
        <path id="Path_22692" data-name="Path 22692" d="M754.285,752.277h-39.62v-2.8h39.62Zm-39.335-.285H754v-2.228H714.95Z" transform="translate(-714.665 -749.48)" fill="#22191d"/>
      </g>
      <g id="Group_8969" data-name="Group 8969" transform="translate(11.707 61.407)">
        <rect id="Rectangle_219" data-name="Rectangle 219" width="14.782" height="2.512" transform="translate(0.142 0.142)" fill="#fff"/>
        <path id="Path_22693" data-name="Path 22693" d="M490.79,806.5H475.723v-2.8H490.79Zm-14.782-.285h14.5v-2.228h-14.5Z" transform="translate(-475.723 -803.699)" fill="#22191d"/>
      </g>
      <g id="Group_8970" data-name="Group 8970" transform="translate(32.223 61.407)">
        <rect id="Rectangle_220" data-name="Rectangle 220" width="14.782" height="2.512" transform="translate(0.142 0.142)" fill="#fff"/>
        <path id="Path_22694" data-name="Path 22694" d="M634.954,806.5H619.887v-2.8h15.066Zm-14.782-.285h14.5v-2.228h-14.5Z" transform="translate(-619.887 -803.699)" fill="#22191d"/>
      </g>
      <g id="Group_8971" data-name="Group 8971" transform="translate(51.955 61.407)">
        <rect id="Rectangle_221" data-name="Rectangle 221" width="26.182" height="2.512" transform="translate(0.142 0.142)" fill="#fff"/>
        <path id="Path_22695" data-name="Path 22695" d="M785.014,806.5H758.547v-2.8h26.467Zm-26.182-.285h25.9v-2.228h-25.9Z" transform="translate(-758.547 -803.699)" fill="#22191d"/>
      </g>
      <g id="Group_8972" data-name="Group 8972" transform="translate(26.665 82.486)">
        <rect id="Rectangle_222" data-name="Rectangle 222" width="45.334" height="2.512" fill="#22191d"/>
      </g>
      <g id="Group_8973" data-name="Group 8973" transform="translate(26.665 100.506)">
        <rect id="Rectangle_223" data-name="Rectangle 223" width="21.02" height="2.512" fill="#22191d"/>
      </g>
      <g id="Group_8974" data-name="Group 8974" transform="translate(26.523 118.383)">
        <rect id="Rectangle_224" data-name="Rectangle 224" width="31.069" height="2.512" transform="translate(0.142 0.142)" fill="#fff"/>
        <path id="Path_22696" data-name="Path 22696" d="M611.187,1206.864H579.833v-2.8h31.354Zm-31.069-.285H610.9v-2.228H580.118Z" transform="translate(-579.833 -1204.067)" fill="#22191d"/>
      </g>
      <g id="Group_8975" data-name="Group 8975" transform="translate(26.523 136.403)">
        <rect id="Rectangle_225" data-name="Rectangle 225" width="52.333" height="2.512" transform="translate(0.142 0.142)" fill="#fff"/>
        <path id="Path_22697" data-name="Path 22697" d="M632.45,1333.487H579.833v-2.8H632.45Zm-52.333-.285h52.048v-2.227H580.118Z" transform="translate(-579.833 -1330.69)" fill="#22191d"/>
      </g>
      <g id="Group_8978" data-name="Group 8978" transform="translate(9.437 76.881)">
        <g id="Group_8976" data-name="Group 8976" transform="translate(1.358 3.411)">
          <rect id="Rectangle_226" data-name="Rectangle 226" width="6.903" height="6.903" fill="#00dbde"/>
        </g>
        <g id="Group_8977" data-name="Group 8977">
          <path id="Path_22698" data-name="Path 22698" d="M464.125,920.987l-4.347-4.347.2-.2,4.146,4.146,8.154-8.153.2.2Z" transform="translate(-459.777 -912.431)" fill="#22191d"/>
        </g>
      </g>
      <g id="Group_8981" data-name="Group 8981" transform="translate(9.437 94.9)">
        <g id="Group_8979" data-name="Group 8979" transform="translate(1.358 3.411)">
          <rect id="Rectangle_227" data-name="Rectangle 227" width="6.903" height="6.903" fill="#00dbde"/>
        </g>
        <g id="Group_8980" data-name="Group 8980">
          <path id="Path_22699" data-name="Path 22699" d="M464.125,1047.609l-4.347-4.347.2-.2,4.146,4.146,8.154-8.154.2.2Z" transform="translate(-459.777 -1039.053)" fill="#22191d"/>
        </g>
      </g>
      <g id="Group_8984" data-name="Group 8984" transform="translate(9.437 112.92)">
        <g id="Group_8982" data-name="Group 8982" transform="translate(1.358 3.411)">
          <rect id="Rectangle_228" data-name="Rectangle 228" width="6.903" height="6.903" fill="#00dbde"/>
        </g>
        <g id="Group_8983" data-name="Group 8983">
          <path id="Path_22700" data-name="Path 22700" d="M464.125,1174.232l-4.347-4.347.2-.2,4.146,4.146,8.154-8.154.2.2Z" transform="translate(-459.777 -1165.676)" fill="#22191d"/>
        </g>
      </g>
      <g id="Group_8987" data-name="Group 8987" transform="translate(9.437 130.94)">
        <g id="Group_8985" data-name="Group 8985" transform="translate(1.216 3.268)">
          <rect id="Rectangle_229" data-name="Rectangle 229" width="6.903" height="6.903" transform="translate(0.142 0.142)" fill="#fff"/>
          <path id="Path_22701" data-name="Path 22701" d="M475.511,1322.452h-7.187v-7.187h7.187Zm-6.9-.285h6.618v-6.618h-6.618Z" transform="translate(-468.324 -1315.265)" fill="#22191d"/>
        </g>
        <g id="Group_8986" data-name="Group 8986">
          <path id="Path_22702" data-name="Path 22702" d="M464.125,1300.854l-4.347-4.347.2-.2,4.146,4.146,8.154-8.154.2.2Z" transform="translate(-459.777 -1292.298)" fill="#22191d"/>
        </g>
      </g>
    </g>
    <g id="Group_9021" data-name="Group 9021" transform="translate(329.716 296.949)">
      <g id="Group_8989" data-name="Group 8989" transform="translate(46.706 6.199)">
        <path id="Path_22703" data-name="Path 22703" d="M1176.446,536.881s.916.471.053,3.335a19.359,19.359,0,0,1-2.714,5.315l-10.751-1.793,0-7.1Z" transform="translate(-1163.034 -536.634)" fill="#22191d"/>
      </g>
      <g id="Group_8990" data-name="Group 8990" transform="translate(48.706 48.401)">
        <path id="Path_22704" data-name="Path 22704" d="M1177.089,834.436l8.461,49.019,5.2,35.621h8.961l-2.684-38.13-3.646-47.762Z" transform="translate(-1177.089 -833.183)" fill="#22191d"/>
      </g>
      <g id="Group_8994" data-name="Group 8994" transform="translate(59.897 134.148)">
        <g id="Group_8991" data-name="Group 8991">
          <path id="Path_22705" data-name="Path 22705" d="M1278.947,1444.114h-21.838l2.273-7.372h8.961Z" transform="translate(-1256.913 -1436.597)" fill="#fff"/>
          <path id="Path_22706" data-name="Path 22706" d="M1278.225,1443.384h-22.5l2.362-7.662h9.114Zm-22.1-.29H1277.3l-10.186-7.081H1258.3Z" transform="translate(-1255.728 -1435.722)" fill="#22191d"/>
        </g>
        <g id="Group_8992" data-name="Group 8992" transform="translate(8.542 0.043)">
          <rect id="Rectangle_230" data-name="Rectangle 230" width="3.95" height="0.29" transform="translate(0 2.801) rotate(-45.153)" fill="#22191d"/>
        </g>
        <g id="Group_8993" data-name="Group 8993" transform="translate(0.661 5.866)">
          <rect id="Rectangle_231" data-name="Rectangle 231" width="16.895" height="0.29" fill="#22191d"/>
        </g>
      </g>
      <g id="Group_8995" data-name="Group 8995" transform="translate(30.493 48.401)">
        <path id="Path_22707" data-name="Path 22707" d="M1075.891,834.436l-15.306,49.019,2.348,35.621h-8.961l-4.863-38.13,10.491-47.762Z" transform="translate(-1049.108 -833.183)" fill="#22191d"/>
      </g>
      <g id="Group_8999" data-name="Group 8999" transform="translate(24.289 134.148)">
        <g id="Group_8996" data-name="Group 8996">
          <path id="Path_22708" data-name="Path 22708" d="M1008.769,1444.114h21.838l-2.273-7.372h-8.961Z" transform="translate(-1008.306 -1436.597)" fill="#fff"/>
          <path id="Path_22709" data-name="Path 22709" d="M1028.013,1443.384h-22.5l11.021-7.662h9.114Zm-21.571-.29h21.178l-2.183-7.081h-8.809Z" transform="translate(-1005.515 -1435.722)" fill="#22191d"/>
        </g>
        <g id="Group_8997" data-name="Group 8997" transform="translate(10.964 0.043)">
          <rect id="Rectangle_232" data-name="Rectangle 232" width="0.29" height="3.95" transform="translate(0 0.205) rotate(-44.839)" fill="#22191d"/>
        </g>
        <g id="Group_8998" data-name="Group 8998" transform="translate(4.942 5.866)">
          <rect id="Rectangle_233" data-name="Rectangle 233" width="16.895" height="0.29" fill="#22191d"/>
        </g>
      </g>
      <g id="Group_9002" data-name="Group 9002" transform="translate(0 17.507)">
        <g id="Group_9000" data-name="Group 9000">
          <path id="Path_22710" data-name="Path 22710" d="M850.049,624.523a7.834,7.834,0,0,1-2.084-3.15c-.539-1.792-3.082-3.848-2.61-1.281s-3.345.555-7.991-2.617c-2.471-1.687-1.874,4.449,2.867,7.256s3.946,2.49,6.544,4.114A35.1,35.1,0,0,0,850.049,624.523Z" transform="translate(-835.78 -617.031)" fill="#fff"/>
          <path id="Path_22711" data-name="Path 22711" d="M845.853,628.1l-.1-.063c-.946-.591-1.442-.925-1.921-1.247-.825-.555-1.605-1.08-4.62-2.865-3.1-1.838-4.425-5-4.371-6.652a1.188,1.188,0,0,1,.508-1.106c.213-.108.587-.154,1.164.239,5.325,3.635,7.057,4,7.571,3.664.2-.132.263-.431.178-.89-.187-1.017.1-1.309.378-1.376.72-.173,2.141,1.275,2.535,2.584a7.732,7.732,0,0,0,2.037,3.077l.1.09-.074.113a34.522,34.522,0,0,1-3.3,4.351Zm-10.171-11.7a.42.42,0,0,0-.193.043c-.2.1-.323.4-.337.838-.05,1.534,1.257,4.62,4.218,6.373,3.023,1.789,3.806,2.316,4.635,2.875.459.309.934.628,1.81,1.177a35.214,35.214,0,0,0,3.089-4.1,7.817,7.817,0,0,1-2.03-3.129c-.382-1.268-1.693-2.482-2.163-2.37-.2.048-.252.428-.144,1.016s0,1-.315,1.208c-.889.578-3.405-.587-7.918-3.668A1.245,1.245,0,0,0,835.682,616.406Z" transform="translate(-834.839 -616.095)" fill="#22191d"/>
        </g>
        <g id="Group_9001" data-name="Group 9001" transform="translate(8.627 1.799)">
          <path id="Path_22712" data-name="Path 22712" d="M942.013,629.993l-10.521,1.767A7.434,7.434,0,0,0,926,635.926l-4.645,9.873-19.135-11.521-5.192,5.247,22.227,16.039a5.894,5.894,0,0,0,8.4-1.583C932.665,646.211,941.533,632.25,942.013,629.993Z" transform="translate(-896.802 -629.814)" fill="#fff"/>
          <path id="Path_22713" data-name="Path 22713" d="M921.342,655.75a5.979,5.979,0,0,1-3.516-1.144l-22.365-16.138,5.392-5.449.1.059,19,11.438,4.577-9.727a7.58,7.58,0,0,1,5.6-4.247l10.732-1.8-.044.209c-.481,2.266-9.216,16.032-14.38,24.036a5.983,5.983,0,0,1-3.955,2.66A6.141,6.141,0,0,1,921.342,655.75Zm-25.436-17.32L918,654.37a5.748,5.748,0,0,0,8.194-1.544c5.01-7.766,13.388-20.962,14.282-23.728l-10.3,1.729a7.291,7.291,0,0,0-5.387,4.085l-4.714,10.018L900.9,633.385Z" transform="translate(-895.461 -628.738)" fill="#22191d"/>
        </g>
      </g>
      <g id="Group_9003" data-name="Group 9003" transform="translate(39.215 25.052)">
        <path id="Path_22714" data-name="Path 22714" d="M1113.7,669.115s-3.432,9.692-3.294,18.79c1.585-2.431,2-3.07,2-3.07Z" transform="translate(-1110.399 -669.115)" fill="#22191d"/>
      </g>
      <g id="Group_9004" data-name="Group 9004" transform="translate(45.58 8.41)">
        <path id="Path_22715" data-name="Path 22715" d="M1157.979,553.882s-1.27-1.742-1.814-.467-.355,4.716,1.855,4.082A8.48,8.48,0,0,0,1157.979,553.882Z" transform="translate(-1155.796 -552.839)" fill="#fff"/>
        <path id="Path_22716" data-name="Path 22716" d="M1156.841,557.021a1.366,1.366,0,0,1-1.059-.48,4.339,4.339,0,0,1-.391-3.831.754.754,0,0,1,.586-.53c.648-.077,1.386.932,1.417.975l.015.028a8.516,8.516,0,0,1,.047,3.667l-.01.071-.068.02A1.951,1.951,0,0,1,1156.841,557.021Zm-.793-4.625-.046,0c-.167.019-.3.153-.409.4a4.145,4.145,0,0,0,.353,3.6,1.218,1.218,0,0,0,1.3.352,8.688,8.688,0,0,0-.041-3.477C1157.012,553.008,1156.466,552.4,1156.048,552.4Z" transform="translate(-1155.123 -552.176)" fill="#020202"/>
      </g>
      <g id="Group_9005" data-name="Group 9005" transform="translate(56.978 10.09)">
        <path id="Path_22717" data-name="Path 22717" d="M1236.923,565.37s1.642-1.4,1.873-.029-.759,4.668-2.76,3.534A8.482,8.482,0,0,1,1236.923,565.37Z" transform="translate(-1235.92 -564.632)" fill="#fff"/>
        <path id="Path_22718" data-name="Path 22718" d="M1236.128,568.561a1.722,1.722,0,0,1-.847-.246l-.062-.035.007-.071a8.524,8.524,0,0,1,.9-3.554l.021-.024c.041-.034,1-.837,1.606-.615a.755.755,0,0,1,.446.652,4.339,4.339,0,0,1-1.277,3.633A1.37,1.37,0,0,1,1236.128,568.561Zm-.676-.4a1.217,1.217,0,0,0,1.348-.037,4.144,4.144,0,0,0,1.187-3.416c-.044-.262-.146-.424-.3-.482-.4-.146-1.115.348-1.376.565A8.689,8.689,0,0,0,1235.452,568.157Z" transform="translate(-1235.219 -563.976)" fill="#22191d"/>
      </g>
      <g id="Group_9006" data-name="Group 9006" transform="translate(40.738 19.638)">
        <path id="Path_22719" data-name="Path 22719" d="M1124.4,633.287a73.909,73.909,0,0,0-2.153,15.751l-.2,7.3-.157,6.523s12.3,4.819,24.83-.242c-.369-7.958-.693-12.768-.921-15.572-.2-2.48-.332-3.39-.351-3.519l-1.04-10.985a11.922,11.922,0,0,0-2.81-.463l-5.425-.241-5.486.2Z" transform="translate(-1121.771 -631.733)" fill="#fff"/>
        <path id="Path_22720" data-name="Path 22720" d="M1133.631,664.38a38.678,38.678,0,0,1-4.716-.291,35.414,35.414,0,0,1-7.744-1.784l-.072-.028.159-6.6.2-7.305a74.145,74.145,0,0,1,2.156-15.774l.017-.068,6.368-1.256,5.486-.2,5.433.241a12.073,12.073,0,0,1,2.836.468l.072.021,1.047,11.06c.014.09.144,1,.351,3.521.21,2.58.541,7.377.921,15.576l0,.078-.072.029A33.265,33.265,0,0,1,1133.631,664.38Zm-12.308-2.252a35.891,35.891,0,0,0,7.626,1.744,34.713,34.713,0,0,0,16.979-1.983c-.379-8.148-.708-12.92-.917-15.49-.206-2.516-.336-3.417-.35-3.512l-1.034-10.917a11.826,11.826,0,0,0-2.712-.438l-5.424-.241-5.469.2-6.206,1.225a73.91,73.91,0,0,0-2.133,15.66l-.205,7.3Z" transform="translate(-1121.099 -631.071)" fill="#22191d"/>
      </g>
      <g id="Group_9007" data-name="Group 9007" transform="translate(48.544 16.239)">
        <path id="Path_22721" data-name="Path 22721" d="M1184.307,612.035c-.274,3.175-4.128,5.643-7.568,5.535l.115-5.588.069-3.391,5.28-.545.347-.035Z" transform="translate(-1176.628 -607.893)" fill="#fff"/>
        <path id="Path_22722" data-name="Path 22722" d="M1176.28,616.975c-.074,0-.146,0-.219,0l-.109,0,.188-9.184,5.8-.6,1.8,4.123,0,.028C1183.458,614.618,1179.618,616.975,1176.28,616.975Zm-.1-.221a8.292,8.292,0,0,0,4.8-1.519,5.512,5.512,0,0,0,2.548-3.89l-1.714-3.925-.267.027-5.183.535Z" transform="translate(-1175.952 -607.185)" fill="#22191d"/>
      </g>
      <g id="Group_9008" data-name="Group 9008" transform="translate(51.562 20.38)">
        <path id="Path_22723" data-name="Path 22723" d="M1197.161,641.346l2.379,2.406,3.123-4.577a1.947,1.947,0,0,0-.841-2.887h0C1201.715,638.416,1199.7,639.566,1197.161,641.346Z" transform="translate(-1197.161 -636.288)" fill="#22191d"/>
      </g>
      <g id="Group_9009" data-name="Group 9009" transform="translate(47.173 20.692)">
        <path id="Path_22724" data-name="Path 22724" d="M1170.708,643.233l-2.235,2.54-1.906-3.937a2.471,2.471,0,0,1,1.269-3.355h0C1168.067,640.6,1168.065,641.6,1170.708,643.233Z" transform="translate(-1166.319 -638.481)" fill="#22191d"/>
      </g>
      <g id="Group_9010" data-name="Group 9010" transform="translate(48.771 16.391)">
        <path id="Path_22725" data-name="Path 22725" d="M1183.7,610.505s-2.774,2.636-6.155,1.689l.069-3.391,5.28-.545A11.91,11.91,0,0,1,1183.7,610.505Z" transform="translate(-1177.547 -608.258)" fill="#22191d"/>
      </g>
      <g id="Group_9011" data-name="Group 9011" transform="translate(64.297 31.409)">
        <path id="Path_22726" data-name="Path 22726" d="M1286.913,716.615l-.265-2.8.217-.033v.01l.265,2.8Z" transform="translate(-1286.647 -713.783)" fill="#22191d"/>
      </g>
      <g id="Group_9012" data-name="Group 9012" transform="translate(46.543 4.128)">
        <path id="Path_22727" data-name="Path 22727" d="M1174.974,525.913l-1.507,7.792a5.233,5.233,0,0,1-3.561,4l-.43.136a5.234,5.234,0,0,1-4.356-.555h0a5.234,5.234,0,0,1-2.443-4.8l.593-8.5A9.853,9.853,0,0,1,1174.974,525.913Z" transform="translate(-1162.554 -522.737)" fill="#fff"/>
        <path id="Path_22728" data-name="Path 22728" d="M1167.234,537.535a5.345,5.345,0,0,1-5.329-5.717l.6-8.554.052-.029a10.721,10.721,0,0,1,3.883-1.113,9.593,9.593,0,0,1,7.953,3.057l.04.041-1.517,7.849a5.339,5.339,0,0,1-3.636,4.081l-.43.136A5.351,5.351,0,0,1,1167.234,537.535Zm-4.521-14.136-.589,8.435a5.124,5.124,0,0,0,6.656,5.243l.431-.136a5.119,5.119,0,0,0,3.486-3.913l1.5-7.736A9.779,9.779,0,0,0,1162.713,523.4Z" transform="translate(-1161.892 -522.081)" fill="#22191d"/>
      </g>
      <g id="Group_9013" data-name="Group 9013" transform="translate(49.733 25.445)">
        <path id="Path_22729" data-name="Path 22729" d="M1186.741,672.482l3.144,20.206-2.865,4.061-2.714-3.64L1185.5,672.6l.635-.721Z" transform="translate(-1184.305 -671.875)" fill="#00dbde"/>
      </g>
      <g id="Group_9016" data-name="Group 9016" transform="translate(22.523 20.033)">
        <g id="Group_9014" data-name="Group 9014" transform="translate(0 24.956)">
          <path id="Path_22730" data-name="Path 22730" d="M1009.331,811.879a7.833,7.833,0,0,1-3.645-.988c-1.588-.989-4.856-.853-2.806.762s-2.144,2.626-7.728,3.313c-2.969.366,1.532,4.579,6.946,3.554s4.607-.737,7.631-1.234A35.132,35.132,0,0,0,1009.331,811.879Z" transform="translate(-994.05 -810.116)" fill="#fff"/>
          <path id="Path_22731" data-name="Path 22731" d="M999.415,817.933a8.113,8.113,0,0,1-5.91-2.273,1.189,1.189,0,0,1-.35-1.166c.089-.222.339-.5,1.032-.589,6.4-.788,7.939-1.658,8.1-2.25.065-.233-.088-.5-.454-.786-.812-.64-.788-1.051-.625-1.283.426-.606,2.45-.457,3.61.265a7.733,7.733,0,0,0,3.562.965h.136l.019.134a34.537,34.537,0,0,1,.4,5.446l-.013.118-.117.019c-1.1.181-1.693.258-2.266.333-.987.128-1.918.25-5.361.9A9.5,9.5,0,0,1,999.415,817.933Zm3-8.416a1.275,1.275,0,0,0-.945.249c-.117.167.093.488.563.858s.664.749.561,1.115c-.286,1.022-2.944,1.809-8.367,2.477-.428.053-.7.189-.78.395s.022.514.3.852c.976,1.185,4,2.639,7.377,2,3.452-.653,4.388-.775,5.379-.9.549-.071,1.116-.145,2.136-.312a35.2,35.2,0,0,0-.389-5.119,7.819,7.819,0,0,1-3.591-1.009A4.522,4.522,0,0,0,1002.414,809.517Z" transform="translate(-993.105 -809.209)" fill="#22191d"/>
        </g>
        <g id="Group_9015" data-name="Group 9015" transform="translate(13.711)">
          <path id="Path_22732" data-name="Path 22732" d="M1114.06,636.027h0a15.835,15.835,0,0,0-2.926,14.4l1.811,6.255-21.976,3.99-.432,7.369,27.518-2.664a5.669,5.669,0,0,0,5.061-6.481c-.9-6.007-2.336-15.287-3.537-21.483A3.139,3.139,0,0,0,1114.06,636.027Z" transform="translate(-1090.381 -634.721)" fill="#fff"/>
          <path id="Path_22733" data-name="Path 22733" d="M1089.448,667.322l.449-7.652.112-.021,21.818-3.962-1.766-6.1a15.985,15.985,0,0,1,2.953-14.527h0a3.284,3.284,0,0,1,5.773,1.447c1.178,6.071,2.574,15.037,3.539,21.489a5.815,5.815,0,0,1-5.191,6.647Zm.726-7.407-.416,7.086,27.349-2.647a5.524,5.524,0,0,0,4.931-6.315c-.964-6.45-2.36-15.411-3.536-21.477a2.994,2.994,0,0,0-5.262-1.319,15.694,15.694,0,0,0-2.9,14.263l1.855,6.41Z" transform="translate(-1089.448 -633.844)" fill="#22191d"/>
        </g>
      </g>
      <g id="Group_9017" data-name="Group 9017" transform="translate(44.878)">
        <path id="Path_22734" data-name="Path 22734" d="M1165.431,499.542c-1.005,1.943-9.5,1.857-12.7,1.174-4.109-.877-1.991-7.638-1.991-7.638,2.265,2.761,7.85.852,12.758,3.329a3.54,3.54,0,0,1,1.935,3.116Z" transform="translate(-1150.192 -493.077)" fill="#22191d"/>
      </g>
      <g id="Group_9018" data-name="Group 9018" transform="translate(35.096 46.859)">
        <path id="Path_22735" data-name="Path 22735" d="M1083.126,822.352l-1.673,5.746,1.293-.173Z" transform="translate(-1081.452 -822.352)" fill="#22191d"/>
      </g>
      <g id="Group_9019" data-name="Group 9019" transform="translate(7.938 24.255)">
        <path id="Path_22736" data-name="Path 22736" d="M890.62,666.584l5.623-3.069-4.06,4.1Z" transform="translate(-890.62 -663.514)" fill="#22191d"/>
      </g>
      <g id="Group_9020" data-name="Group 9020" transform="translate(51.562 32.828)">
        <path id="Path_22737" data-name="Path 22737" d="M1202.028,723.753l.843,8.154-5.714,2.321,7.235-1.314S1202.066,726.236,1202.028,723.753Z" transform="translate(-1197.157 -723.753)" fill="#22191d"/>
      </g>
    </g>
    <g id="Group_9025" data-name="Group 9025" transform="translate(353.651 283.79)">
      <g id="Group_9022" data-name="Group 9022" transform="translate(0 0)">
        <circle id="Ellipse_130" data-name="Ellipse 130" cx="9.829" cy="9.829" r="9.829" transform="translate(0 19.652) rotate(-88.494)" fill="#00dbde"/>
      </g>
      <g id="Group_9024" data-name="Group 9024" transform="translate(3.06 4.794)">
        <g id="Group_9023" data-name="Group 9023">
          <path id="Path_22738" data-name="Path 22738" d="M1029.836,444.878l-5.313-5.313,1.845-1.845,3.469,3.469,6.892-6.892,1.844,1.844Z" transform="translate(-1024.522 -434.297)" fill="#fff"/>
        </g>
      </g>
    </g>
    <g id="Group_9046" data-name="Group 9046" transform="translate(250.704 326.926)">
      <g id="Group_9044" data-name="Group 9044" transform="translate(28.941 23.371)">
        <path id="Path_22754" data-name="Path 22754" d="M486.036,869.281a7.085,7.085,0,0,0,3.414.133c1.639-.424,4.423.577,2.216,1.417s1.141,2.847,5.775,4.951c2.464,1.119-2.561,3.538-6.957,1.188s-3.778-1.883-6.253-3.13A31.774,31.774,0,0,1,486.036,869.281Z" transform="translate(-484.054 -869.092)" fill="#fff"/>
        <path id="Path_22755" data-name="Path 22755" d="M493.4,876.983a8.607,8.607,0,0,1-4.049-1.016c-2.8-1.494-3.567-1.851-4.384-2.228-.474-.219-.965-.446-1.866-.9l-.106-.053.023-.116a31.246,31.246,0,0,1,1.818-4.6l.058-.122.13.04a6.974,6.974,0,0,0,3.328.131c1.131-.292,2.98.05,3.206.758.08.25-.011.62-.9.956-.388.148-.588.33-.595.542-.017.551,1.075,1.714,6.379,4.122.581.264.723.581.74.8.025.323-.191.643-.624.926A6.082,6.082,0,0,1,493.4,876.983Zm-10.05-4.369c.829.416,1.3.632,1.749.841.821.38,1.6.738,4.4,2.236,2.741,1.465,5.734,1.028,6.894.271.327-.213.5-.441.483-.64s-.208-.38-.558-.539c-5.921-2.689-6.581-3.808-6.562-4.416.011-.35.279-.627.8-.824.5-.189.762-.4.709-.57-.131-.412-1.677-.848-2.83-.55a7.089,7.089,0,0,1-3.369-.1A31.855,31.855,0,0,0,483.346,872.614Z" transform="translate(-482.992 -867.95)" fill="#22191d"/>
      </g>
      <g id="Group_9045" data-name="Group 9045" transform="translate(0)">
        <path id="Path_22756" data-name="Path 22756" d="M286.122,705.684h0c2.6,5.365,5.6,15.84,5.6,15.84l19.714,6.517L312.1,734l-22.707-5.86a8.352,8.352,0,0,1-5.554-4.7c-1.646-3.718-3.668-9.72-3.077-15.836A3.141,3.141,0,0,1,286.122,705.684Z" transform="translate(-280.507 -704.597)" fill="#fff"/>
        <path id="Path_22757" data-name="Path 22757" d="M311.384,733.32l-22.911-5.912a8.45,8.45,0,0,1-5.65-4.783c-1.732-3.913-3.674-9.849-3.089-15.909a3.286,3.286,0,0,1,5.613-2.005l.017.017.01.021c2.464,5.078,5.309,14.841,5.583,15.79l19.729,6.523Zm-28.364-29.3a3.017,3.017,0,0,0-1.007.174,2.986,2.986,0,0,0-1.991,2.553c-.579,6,1.347,11.882,3.065,15.763a8.161,8.161,0,0,0,5.457,4.619l22.5,5.807-.631-5.655-19.7-6.512-.021-.074c-.03-.1-3.011-10.5-5.576-15.8A2.962,2.962,0,0,0,283.02,704.017Z" transform="translate(-279.627 -703.726)" fill="#22191d"/>
      </g>
    </g>
  </g>
</svg>
