<svg xmlns="http://www.w3.org/2000/svg" width="13" height="15.093" viewBox="0 0 13 15.093">
  <g id="Guards" transform="translate(-35.496 -0.001)">
    <g id="Group_14487" data-name="Group 14487" transform="translate(35.496 9.422)">
      <g id="Group_14486" data-name="Group 14486">
        <path id="Path_23213" data-name="Path 23213" d="M39.9,322.033a.451.451,0,0,1-.693-.145l-1.135-2.274a4.5,4.5,0,0,0-2.574,4.063v1.157a.451.451,0,0,0,.451.451h5.667V320.6Z" transform="translate(-35.496 -319.615)"/>
      </g>
    </g>
    <g id="Group_14489" data-name="Group 14489" transform="translate(42.517 9.45)">
      <g id="Group_14488" data-name="Group 14488">
        <path id="Path_23214" data-name="Path 23214" d="M277.127,320.55l-1.116,2.245a.451.451,0,0,1-.7.142l-1.649-1.414v4.67h5.528a.451.451,0,0,0,.451-.451v-1.157A4.5,4.5,0,0,0,277.127,320.55Zm-.059,4.3h-1.4a.451.451,0,0,1,0-.9h1.4a.451.451,0,1,1,0,.9Z" transform="translate(-273.664 -320.55)"/>
      </g>
    </g>
    <g id="Group_14491" data-name="Group 14491" transform="translate(38.501 5.981)">
      <g id="Group_14490" data-name="Group 14490">
        <path id="Path_23215" data-name="Path 23215" d="M144.427,203.281a3.509,3.509,0,0,0-.024-.405,7.211,7.211,0,0,1-3.459.761h-.005a7.182,7.182,0,0,1-3.477-.773,3.49,3.49,0,0,0,1.142,3.022,4.481,4.481,0,0,0-.742.116l.831,1.664,1.239-1.035a3.5,3.5,0,0,0,2.086-.027l1.231,1.055.815-1.641a4.476,4.476,0,0,0-.805-.131A3.487,3.487,0,0,0,144.427,203.281Z" transform="translate(-137.437 -202.864)"/>
      </g>
    </g>
    <g id="Group_14493" data-name="Group 14493" transform="translate(38.287 3.861)">
      <g id="Group_14492" data-name="Group 14492" transform="translate(0)">
        <path id="Path_23216" data-name="Path 23216" d="M133.887,130.938h-.006a13.174,13.174,0,0,0-3.716.6c.343.913,2.039,1.388,3.717,1.388h.005c1.689,0,3.4-.482,3.724-1.407A13.946,13.946,0,0,0,133.887,130.938Z" transform="translate(-130.164 -130.938)"/>
      </g>
    </g>
    <g id="Group_14495" data-name="Group 14495" transform="translate(36.778 0.001)">
      <g id="Group_14494" data-name="Group 14494">
        <path id="Path_23217" data-name="Path 23217" d="M89.436,1.862a.451.451,0,0,0-.295-.3L84.364.022a.451.451,0,0,0-.276,0L79.311,1.558a.451.451,0,0,0-.209.717l1.107,1.335a13.978,13.978,0,0,1,4.013-.653h.006a14.723,14.723,0,0,1,4.028.635L89.35,2.276A.451.451,0,0,0,89.436,1.862Z" transform="translate(-78.998 -0.001)"/>
      </g>
    </g>
  </g>
</svg>
