<svg xmlns="http://www.w3.org/2000/svg" width="13" height="13" viewBox="0 0 13 13">
  <g id="help" transform="translate(-0.008 -4)">
    <g id="Group_14519" data-name="Group 14519" transform="translate(0.008)">
      <path id="Path_23235" data-name="Path 23235" d="M6.508,0a6.5,6.5,0,1,0,6.5,6.5A6.5,6.5,0,0,0,6.508,0Zm.463,10.114a.765.765,0,0,1-.524.2.792.792,0,0,1-.537-.2.7.7,0,0,1-.23-.557A.718.718,0,0,1,5.9,9.025a.749.749,0,0,1,.544-.217.74.74,0,0,1,.751.751A.7.7,0,0,1,6.971,10.114ZM8.854,5.447A2.3,2.3,0,0,1,8.44,6q-.239.235-.859.789a3.557,3.557,0,0,0-.275.275,1.119,1.119,0,0,0-.154.217,1.044,1.044,0,0,0-.078.2q-.028.1-.083.345a.561.561,0,0,1-.6.524.614.614,0,0,1-.441-.171.673.673,0,0,1-.179-.509A1.876,1.876,0,0,1,5.9,6.936a1.853,1.853,0,0,1,.347-.544,7.969,7.969,0,0,1,.585-.557q.323-.282.466-.426a1.441,1.441,0,0,0,.242-.32.771.771,0,0,0,.1-.383.889.889,0,0,0-.3-.68,1.1,1.1,0,0,0-.774-.277,1.07,1.07,0,0,0-.817.28,2.232,2.232,0,0,0-.443.824q-.172.57-.65.57a.64.64,0,0,1-.476-.2.609.609,0,0,1-.194-.431,1.824,1.824,0,0,1,.307-.97,2.366,2.366,0,0,1,.9-.814,2.821,2.821,0,0,1,1.376-.323,2.935,2.935,0,0,1,1.29.27,2.091,2.091,0,0,1,.865.733,1.8,1.8,0,0,1,.3,1.008A1.552,1.552,0,0,1,8.854,5.447Z" transform="translate(-0.008 4)" fill="#010002"/>
    </g>
  </g>
</svg>
