<svg xmlns="http://www.w3.org/2000/svg" width="13" height="13" viewBox="0 0 13 13">
  <g id="info" transform="translate(0 0)">
    <g id="Group_14497" data-name="Group 14497" transform="translate(0 0)">
      <g id="Group_14496" data-name="Group 14496" transform="translate(0 0)">
        <path id="Path_23218" data-name="Path 23218" d="M11.1,1.9a6.5,6.5,0,1,0,0,9.193A6.5,6.5,0,0,0,11.1,1.9ZM7.348,9.326a.848.848,0,0,1-1.7,0V5.935a.848.848,0,1,1,1.7,0ZM6.485,4.486a.756.756,0,0,1-.8-.773.756.756,0,0,1,.814-.783.78.78,0,1,1-.01,1.556Z" transform="translate(0 0)"/>
      </g>
    </g>
  </g>
</svg>
