<svg xmlns="http://www.w3.org/2000/svg" width="22.155" height="20.944" viewBox="0 0 22.155 20.944">
  <g id="i" transform="translate(0 -13.702)">
    <g id="Group_9086" data-name="Group 9086" transform="translate(0 13.702)">
      <g id="Group_9085" data-name="Group 9085" transform="translate(0 0)">
        <path id="Path_22927" data-name="Path 22927" d="M129.668,211.836a1.015,1.015,0,0,0-1.453.172l-.409.487-.527-.423a1.014,1.014,0,1,0-1.286,1.568l2.1,1.706,1.718-2.082A1.016,1.016,0,0,0,129.668,211.836Z" transform="translate(-120.069 -202.858)" fill="#4e4b66"/>
        <path id="Path_22928" data-name="Path 22928" d="M15.407,30.868c-.292-2.962-.847-8.6-1.691-17.166L0,15.053,1.691,32.219Zm-11.66-12.7,6.9-.68.128,1.294-6.9.68ZM5.1,25.49a2.315,2.315,0,0,1,2.466-3.878,2.315,2.315,0,0,1,3.178,3.32c-.009.014-1.541,1.865-2.54,3.082Z" transform="translate(0 -13.702)" fill="#4e4b66"/>
        <path id="Path_22929" data-name="Path 22929" d="M161.257,83.962c1.543,15.659,1.319,13.384,1.5,15.226l-10.053.99-.027.27,13.716,1.351,1.691-17.166Z" transform="translate(-145.929 -80.856)" fill="#4e4b66"/>
      </g>
    </g>
  </g>
</svg>
