<svg xmlns="http://www.w3.org/2000/svg" width="17.406" height="17.406" viewBox="0 0 17.406 17.406">
  <g id="symbol" transform="translate(-40 -732.296)">
    <path id="Path_13433" d="M55.53,749.7H48.975a1.868,1.868,0,0,1-1.855-1.6L45.4,746.874a.509.509,0,0,1,0-.83l1.7-1.213v-3.557a1.883,1.883,0,0,1,1.876-1.877h6.555a1.876,1.876,0,0,1,1.874,1.873v6.556A1.88,1.88,0,0,1,55.53,749.7Zm-3.9-4.007h1.251l.208.727c.024.094.105.141.24.141.2,0,.448-.131.448-.294a.221.221,0,0,0-.012-.055l-1.054-3.436c-.053-.178-.28-.241-.459-.241a.455.455,0,0,0-.056,0,.442.442,0,0,0-.4.245l-1.054,3.436a.283.283,0,0,0-.011.055c0,.18.265.294.447.294.132,0,.215-.049.24-.141l.207-.727Z" fill="#363d4e"/>
    <path id="Path_13434" d="M.5,0,.975,1.677H.025Z" transform="translate(51.751 743.461)" fill="#363d4e"/>
    <path id="Path_13435" d="M6.081,10.307h-4.2A1.878,1.878,0,0,1,0,8.431V1.875A1.878,1.878,0,0,1,1.875,0H8.43a1.879,1.879,0,0,1,1.856,1.6L12,2.826a.51.51,0,0,1,0,.83L10.3,4.869V6.081H8.973A2.884,2.884,0,0,0,7,6.858a.287.287,0,0,0-.287-.267A2.162,2.162,0,0,1,5.6,6.283,2.743,2.743,0,0,0,6.32,4.7h.4a.288.288,0,1,0,0-.575H5.44v-.7a.288.288,0,1,0-.575,0v.7H3.582a.288.288,0,1,0,0,.575h.4A2.743,2.743,0,0,0,4.7,6.283a2.165,2.165,0,0,1-1.114.308.288.288,0,0,0,0,.575,2.736,2.736,0,0,0,1.567-.491,2.736,2.736,0,0,0,1.567.491,2.881,2.881,0,0,0-.639,1.811Z" transform="translate(40 732.296)" fill="#363d4e"/>
    <path id="Path_13436" d="M0,0H1.182A2.171,2.171,0,0,1,.591,1.222,2.173,2.173,0,0,1,0,0Z" transform="translate(44.562 736.998)" fill="#363d4e"/>
  </g>
</svg>
