<?xml version="1.0" standalone="no"?>
<!DOCTYPE svg PUBLIC "-//W3C//DTD SVG 20010904//EN"
 "http://www.w3.org/TR/2001/REC-SVG-20010904/DTD/svg10.dtd">
<svg version="1.0" xmlns="http://www.w3.org/2000/svg"
 width="40.000000pt" height="40.000000pt" viewBox="0 0 40.000000 40.000000"
 preserveAspectRatio="xMidYMid meet">

<g transform="translate(0.000000,40.000000) scale(0.100000,-0.100000)"
fill="#000000" stroke="none">
<path d="M161 370 c-49 -12 -83 -40 -108 -90 -28 -54 -29 -92 -4 -146 57 -125
228 -137 296 -20 77 132 -37 291 -184 256z m-17 -66 c8 -21 -1 -34 -24 -34
-22 0 -34 15 -26 35 7 20 42 19 50 -1z m66 -54 c0 -7 7 -7 21 0 27 15 66 5 79
-20 6 -11 10 -46 8 -78 -3 -53 -5 -57 -28 -57 -23 0 -25 4 -28 58 -3 49 -6 58
-20 55 -13 -2 -18 -17 -22 -58 -4 -47 -8 -55 -25 -55 -18 0 -20 8 -23 83 -3
77 -2 82 18 82 11 0 20 -5 20 -10z m-62 -77 c-3 -76 -4 -78 -28 -78 -24 0 -25
2 -28 78 l-3 77 31 0 31 0 -3 -77z"/>
</g>
</svg>
