<svg id="vuesax_bold_apple" data-name="vuesax/bold/apple" xmlns="http://www.w3.org/2000/svg" width="24.121" height="24.121" viewBox="0 0 24.121 24.121">
  <g id="apple">
    <path id="BG_135" data-name="BG 135" d="M0,0H24.121V24.121H0Z" fill="none" opacity="0.58"/>
    <g id="Group" transform="translate(3.66 7.077)">
      <path id="Vector" d="M15.52,12.192a13.771,13.771,0,0,0,1.263-2.376A4.332,4.332,0,0,1,16.211,2a4.959,4.959,0,0,0-3.75-2,5.634,5.634,0,0,0-2.216.481A4.089,4.089,0,0,1,8.732.842,4.97,4.97,0,0,1,7.037.451,5.793,5.793,0,0,0,4.982,0a5.1,5.1,0,0,0-4.1,2.476C-.542,4.682-.292,8.813,2,12.342c.822,1.263,1.925,2.677,3.359,2.7a3.078,3.078,0,0,0,1.424-.361,4.233,4.233,0,0,1,1.955-.461,4.066,4.066,0,0,1,1.945.461,2.951,2.951,0,0,0,1.394.361C13.534,15.019,14.7,13.455,15.52,12.192Z" transform="translate(0)" fill="#fff"/>
    </g>
    <path id="Vector-2" data-name="Vector" d="M3.721,0a4.033,4.033,0,0,1-.882,2.958,3.587,3.587,0,0,1-2.8,1.424,3.728,3.728,0,0,1,.9-2.888A4.358,4.358,0,0,1,3.721,0Z" transform="translate(12.195 2.005)" fill="#fff"/>
    <path id="Vector-3" data-name="Vector" d="M0,0H24.121V24.121H0Z" fill="none" opacity="0"/>
  </g>
</svg>
