<svg id="more" xmlns="http://www.w3.org/2000/svg" width="15.614" height="15.614" viewBox="0 0 15.614 15.614">
  <path id="Path_22626" data-name="Path 22626" d="M6.018,0H1.138A1.14,1.14,0,0,0,0,1.138V4.066A1.14,1.14,0,0,0,1.138,5.2H6.018A1.14,1.14,0,0,0,7.156,4.066V1.138A1.14,1.14,0,0,0,6.018,0Zm0,0" fill="#4e4b66"/>
  <path id="Path_22627" data-name="Path 22627" d="M6.018,213.332H1.138A1.14,1.14,0,0,0,0,214.471V221.3a1.14,1.14,0,0,0,1.138,1.139H6.018A1.14,1.14,0,0,0,7.156,221.3v-6.831A1.14,1.14,0,0,0,6.018,213.332Zm0,0" transform="translate(0 -206.826)" fill="#4e4b66"/>
  <path id="Path_22628" data-name="Path 22628" d="M283.35,341.332h-4.879a1.14,1.14,0,0,0-1.139,1.139V345.4a1.14,1.14,0,0,0,1.139,1.138h4.879a1.14,1.14,0,0,0,1.138-1.138v-2.928A1.14,1.14,0,0,0,283.35,341.332Zm0,0" transform="translate(-268.875 -330.923)" fill="#4e4b66"/>
  <path id="Path_22629" data-name="Path 22629" d="M283.35,0h-4.879a1.14,1.14,0,0,0-1.139,1.138V7.97a1.14,1.14,0,0,0,1.139,1.139h4.879a1.14,1.14,0,0,0,1.138-1.139V1.138A1.14,1.14,0,0,0,283.35,0Zm0,0" transform="translate(-268.875)" fill="#4e4b66"/>
</svg>
