<svg xmlns="http://www.w3.org/2000/svg" width="20.931" height="23.893" viewBox="0 0 20.931 23.893">
  <g id="notification" transform="translate(-338.018 -55)">
    <path id="Icon_material-notifications-active" d="M348.507,78.893h-.025a2.121,2.121,0,0,1-2.11-2.1h4.2a2.1,2.1,0,0,1-.157.819,2.132,2.132,0,0,1-1.512,1.238A1.825,1.825,0,0,1,348.507,78.893Zm8.378-3.148h-16.8v-1.05l2.1-2.1V67.346a7.451,7.451,0,0,1,1.232-4.263,5.794,5.794,0,0,1,3.491-2.372V60a1.575,1.575,0,1,1,3.149,0v.715a5.8,5.8,0,0,1,3.488,2.376,7.44,7.44,0,0,1,1.236,4.258l0,5.249,2.1,2.1v1.049Zm-16.767-8.923h-2.1a10.91,10.91,0,0,1,4.324-8.241l1.5,1.5a8.815,8.815,0,0,0-3.725,6.74Zm18.832,0h-2.1a8.878,8.878,0,0,0-3.716-6.741l1.491-1.5a10.984,10.984,0,0,1,4.324,8.24Z" fill="#363d4e"/>
    <circle id="Ellipse_10" cx="2" cy="2" r="2" transform="translate(350 55)" fill="#fa4048"/>
  </g>
</svg>
