<svg xmlns="http://www.w3.org/2000/svg" width="17.364" height="21.118" viewBox="0 0 17.364 21.118">
  <path id="Icon_material-notifications-none" d="M335.005,85.031a2.18,2.18,0,0,1-2.171-2.165h4.341A2.181,2.181,0,0,1,335.005,85.031Zm8.681-3.25H326.323V80.7l2.172-2.166V73.119a7.663,7.663,0,0,1,1.279-4.4,6,6,0,0,1,3.6-2.448v-.736a1.628,1.628,0,0,1,3.256,0v.735a5.99,5.99,0,0,1,3.609,2.452,7.674,7.674,0,0,1,1.274,4.394v5.414l2.17,2.166V81.78Zm-8.681-13.537c-2.556,0-4.341,2-4.341,4.873v6.5h8.681v-6.5C339.346,70.248,337.561,68.244,335.005,68.244Z" transform="translate(-326.323 -63.913)" fill="#363d4e"/>
</svg>
