<svg xmlns="http://www.w3.org/2000/svg" width="21" height="21" viewBox="0 0 21 21">
  <g id="party" transform="translate(-267 -328)">
    <circle id="Ellipse_121" data-name="Ellipse 121" cx="10.5" cy="10.5" r="10.5" transform="translate(267 328)" fill="#fff"/>
    <g id="party-2" data-name="party" transform="translate(258.287 332.606)">
      <g id="svgexport-7_83_" data-name="svgexport-7 (83)" transform="translate(11.999 -1.606)">
        <path id="Path_22577" data-name="Path 22577" d="M11.409,122.429c-1.9-1.9-3.974-2.89-4.643-2.221a.668.668,0,0,0-.157.272l-.011-.011-.639,2.617-.636,2.609-.754,3.089-.477,1.956,2.825-1.069,3.593-1.359,2.866-1.085,0,0a.667.667,0,0,0,.257-.152C14.3,126.4,13.3,124.325,11.409,122.429Z" transform="translate(-4.093 -116.331)" fill="#dd1c4b"/>
        <ellipse id="Ellipse_122" data-name="Ellipse 122" cx="4.854" cy="1.712" rx="4.854" ry="1.712" transform="translate(8.327 11.95) rotate(-135)" fill="#d1e3ee"/>
        <path id="Path_22578" data-name="Path 22578" d="M13.117,352.934a2.4,2.4,0,0,1-1-.2l-2.343.886-3.594,1.358-1.927.729-.164.672,2.825-1.069,3.593-1.359,2.631-1Z" transform="translate(-4.093 -341.953)" fill="#b21d48"/>
        <g id="Group_8868" data-name="Group 8868" transform="translate(4.477 1.463)">
          <path id="Path_22579" data-name="Path 22579" d="M233.412,264.735a.252.252,0,0,1-.086-.015,7.559,7.559,0,0,0-3.891-.378l-.874.146a.245.245,0,0,1-.081-.482l.874-.147a8.053,8.053,0,0,1,4.143.4.245.245,0,0,1-.086.475Z" transform="translate(-225.906 -257.15)" fill="#ffbf41"/>
          <path id="Path_22580" data-name="Path 22580" d="M244.383,154.955a.245.245,0,0,1-.105-.465l5.136-2.446a.245.245,0,0,1,.21.442h0l-5.136,2.445A.244.244,0,0,1,244.383,154.955Z" transform="translate(-241.279 -148.837)" fill="#ffbf41"/>
          <path id="Path_22581" data-name="Path 22581" d="M150.791,53.484a.241.241,0,0,1-.094-.019.245.245,0,0,1-.132-.32h0l.356-.853a6.841,6.841,0,0,0,.365-4.135.245.245,0,0,1,.475-.115l0,.009a7.327,7.327,0,0,1-.391,4.43l-.356.853a.245.245,0,0,1-.225.15Z" transform="translate(-150.546 -47.855)" fill="#ffbf41"/>
        </g>
        <circle id="Ellipse_123" data-name="Ellipse 123" cx="0.5" cy="0.5" r="0.5" transform="translate(13 8.606)" fill="#d5557e"/>
        <ellipse id="Ellipse_124" data-name="Ellipse 124" cx="0.5" rx="0.5" transform="translate(7 2.606)" fill="#dd95c1"/>
        <path id="Path_22582" data-name="Path 22582" d="M156.582.978a.489.489,0,1,1,.489-.489A.489.489,0,0,1,156.582.978Z" transform="translate(-151.447)" fill="#7fcccb"/>
        <g id="Group_8869" data-name="Group 8869" transform="translate(11.005)">
          <path id="Path_22583" data-name="Path 22583" d="M388.338,40.734a.245.245,0,0,1-.245-.245v-.245a.245.245,0,1,1,.489,0v.245A.245.245,0,0,1,388.338,40.734Z" transform="translate(-387.359 -38.777)" fill="#2276bb"/>
          <path id="Path_22584" data-name="Path 22584" d="M388.338.734a.245.245,0,0,1-.245-.245V.245a.245.245,0,1,1,.489,0V.489A.245.245,0,0,1,388.338.734Z" transform="translate(-387.359)" fill="#2276bb"/>
          <path id="Path_22585" data-name="Path 22585" d="M404.582,24.489h-.245a.245.245,0,1,1,0-.489h.245a.245.245,0,0,1,0,.489Z" transform="translate(-402.87 -23.266)" fill="#2276bb"/>
          <path id="Path_22586" data-name="Path 22586" d="M364.582,24.489h-.245a.245.245,0,0,1,0-.489h.245a.245.245,0,1,1,0,.489Z" transform="translate(-364.093 -23.266)" fill="#2276bb"/>
        </g>
        <path id="Path_22587" data-name="Path 22587" d="M45.067,221.918c-.027-.1-.052-.21-.075-.318l-.636,2.609.049.6a5.49,5.49,0,0,0,1.545,3.379l3.593-1.358-.059-.017A7.17,7.17,0,0,1,45.067,221.918Z" transform="translate(-43.126 -214.826)" fill="#fff"/>
        <path id="Path_22588" data-name="Path 22588" d="M87.615,382.377l-.059-.017a7.148,7.148,0,0,1-.691-.3l-3.236,1.224a5.481,5.481,0,0,0,.393.456Z" transform="translate(-81.198 -370.377)" fill="#f6f6e7"/>
        <path id="Path_22589" data-name="Path 22589" d="M301.153,95.832V97.06h-1.228V95.832Z" transform="translate(-290.882 -92.903)" fill="#c9da53"/>
        <path id="Path_22590" data-name="Path 22590" d="M188.339,154.792a.245.245,0,0,1-.164-.426l2.445-2.2a.245.245,0,0,1,.327.363l-2.445,2.2a.245.245,0,0,1-.164.063Z" transform="translate(-182.47 -147.456)" fill="#ffbf41"/>
        <g id="Group_8870" data-name="Group 8870" transform="translate(0 0.245)">
          <path id="Path_22591" data-name="Path 22591" d="M420.338,184.734a.245.245,0,0,1-.245-.245v-.245a.245.245,0,1,1,.489,0v.245A.245.245,0,0,1,420.338,184.734Z" transform="translate(-407.376 -178.62)" fill="#ffdb43"/>
          <path id="Path_22592" data-name="Path 22592" d="M443.238,175.381a.243.243,0,0,1-.173-.072l-.173-.173a.245.245,0,0,1,.346-.346l.173.173a.245.245,0,0,1-.173.417Z" transform="translate(-429.412 -169.626)" fill="#ffdb43"/>
          <path id="Path_22593" data-name="Path 22593" d="M452.582,152.489h-.245a.245.245,0,1,1,0-.489h.245a.245.245,0,0,1,0,.489Z" transform="translate(-438.398 -147.598)" fill="#ffdb43"/>
          <path id="Path_22594" data-name="Path 22594" d="M442.971,124.477a.245.245,0,0,1-.173-.417l.173-.173a.245.245,0,0,1,.346.346l-.173.173a.245.245,0,0,1-.173.072Z" transform="translate(-429.319 -120.277)" fill="#ffdb43"/>
          <path id="Path_22595" data-name="Path 22595" d="M420.338,112.734a.245.245,0,0,1-.245-.245v-.245a.245.245,0,1,1,.489,0v.245A.245.245,0,0,1,420.338,112.734Z" transform="translate(-407.376 -108.821)" fill="#ffdb43"/>
          <path id="Path_22596" data-name="Path 22596" d="M392.318,124.477a.245.245,0,0,1-.173-.072l-.173-.173a.245.245,0,0,1,.346-.346l.173.173a.245.245,0,0,1-.173.417Z" transform="translate(-380.048 -120.278)" fill="#ffdb43"/>
          <path id="Path_22597" data-name="Path 22597" d="M5.316,8l.378.766.845.123-.611.6.144.841-.756-.4-.756.4L4.7,9.484l-.611-.6.845-.123Z" transform="translate(-4.093 -8)" fill="#ffdb43"/>
        </g>
        <path id="Path_22598" data-name="Path 22598" d="M359.867,346.76a1.7,1.7,0,0,0-.75-.988l-.1-.151a3.691,3.691,0,0,0-2.456-1.588.245.245,0,0,0-.081.482,3.2,3.2,0,0,1,1.866,1.04,1.443,1.443,0,0,0-.978.672.978.978,0,0,0,1.708.954,1.418,1.418,0,0,0,.159-.628,1.2,1.2,0,0,1,.054,1.27.245.245,0,1,0,.421.25l.006-.011a1.7,1.7,0,0,0,.151-1.3Zm-1.217.182a.489.489,0,0,1-.856-.473l0,0a.916.916,0,0,1,.662-.431.249.249,0,0,1,.122.028C358.787,346.179,358.8,346.678,358.65,346.943Z" transform="translate(-345.516 -333.514)" fill="#2bb3ce"/>
      </g>
    </g>
  </g>
</svg>
