<svg id="svgexport-10_-_2022-10-24T215317.526" data-name="svgexport-10 - 2022-10-24T215317.526" xmlns="http://www.w3.org/2000/svg" width="13.785" height="9.477" viewBox="0 0 13.785 9.477">
  <g id="Group_8889" data-name="Group 8889">
    <path id="Path_22639" data-name="Path 22639" d="M13.785,82.235v-.727A1.508,1.508,0,0,0,12.277,80H1.508A1.508,1.508,0,0,0,0,81.508v.727a.135.135,0,0,0,.135.135H13.65A.135.135,0,0,0,13.785,82.235Z" transform="translate(0 -80)" fill="#fff"/>
    <path id="Path_22640" data-name="Path 22640" d="M0,200.135v4.6a1.508,1.508,0,0,0,1.508,1.508H12.277a1.508,1.508,0,0,0,1.508-1.508v-4.6A.135.135,0,0,0,13.65,200H.135A.135.135,0,0,0,0,200.135Zm3.446,3.527a.431.431,0,0,1-.431.431H2.585a.431.431,0,0,1-.431-.431v-.431a.431.431,0,0,1,.431-.431h.431a.431.431,0,0,1,.431.431Z" transform="translate(0 -196.769)" fill="#fff"/>
  </g>
</svg>
