<svg id="svgexport-7_86_" data-name="svgexport-7 (86)" xmlns="http://www.w3.org/2000/svg" width="15.079" height="12.566" viewBox="0 0 15.079 12.566">
  <path id="Path_22634" data-name="Path 22634" d="M.629,5.456a.628.628,0,0,0,.628-.628V3.885a.629.629,0,0,1,.628-.628h.942A.628.628,0,1,0,2.828,2H1.886A1.887,1.887,0,0,0,0,3.885v.942A.628.628,0,0,0,.629,5.456Z" transform="translate(-0.001 -2)" fill="#fff"/>
  <path id="Path_22635" data-name="Path 22635" d="M20.072,2h-.942a.628.628,0,0,0,0,1.257h.942a.629.629,0,0,1,.628.628v.942a.628.628,0,0,0,1.257,0V3.885A1.887,1.887,0,0,0,20.072,2Z" transform="translate(-6.878 -2)" fill="#fff"/>
  <path id="Path_22636" data-name="Path 22636" d="M0,18.071a1.887,1.887,0,0,0,1.885,1.885h.942a.628.628,0,0,0,0-1.257H1.886a.629.629,0,0,1-.628-.628v-.942a.628.628,0,1,0-1.257,0v.942Z" transform="translate(-0.001 -7.39)" fill="#fff"/>
  <path id="Path_22637" data-name="Path 22637" d="M21.328,16.5a.628.628,0,0,0-.628.628v.942a.629.629,0,0,1-.628.628h-.942a.628.628,0,0,0,0,1.257h.942a1.887,1.887,0,0,0,1.885-1.885v-.942A.628.628,0,0,0,21.328,16.5Z" transform="translate(-6.878 -7.39)" fill="#fff"/>
  <path id="Path_22638" data-name="Path 22638" d="M9.025,13.557a5.041,5.041,0,0,0,5.014-3.7.459.459,0,0,0,0-.226,5.041,5.041,0,0,0-5.014-3.7,5.041,5.041,0,0,0-5.014,3.7.459.459,0,0,0,0,.226A5.041,5.041,0,0,0,9.025,13.557Zm0-5.7A1.885,1.885,0,1,1,7.141,9.744,1.89,1.89,0,0,1,9.025,7.859Z" transform="translate(-1.487 -3.461)" fill="#fff"/>
</svg>
