<svg xmlns="http://www.w3.org/2000/svg" width="13" height="14.437" viewBox="0 0 13 14.437">
  <g id="Privacy" transform="translate(-0.499 0)">
    <path id="Path_23220" data-name="Path 23220" d="M179.8,255.859h2.889v2.167H179.8Zm0,0" transform="translate(-174.242 -248.645)"/>
    <path id="Path_23221" data-name="Path 23221" d="M206.855,179.742a.722.722,0,0,0-1.445,0v.722h1.444v-.722Zm0,0" transform="translate(-199.134 -173.972)"/>
    <path id="Path_23222" data-name="Path 23222" d="M13.138,2.159c-2.1,0-4.865-.709-5.85-2.022A.374.374,0,0,0,6.762.085.382.382,0,0,0,6.71.136C5.725,1.45,2.961,2.159.86,2.159A.361.361,0,0,0,.5,2.52V7.214c0,3.971,3.448,6.365,6.4,7.208a.354.354,0,0,0,.2,0c2.953-.844,6.4-3.237,6.4-7.208V2.52a.361.361,0,0,0-.361-.361ZM9.166,9.742A.361.361,0,0,1,8.8,10.1H5.193a.361.361,0,0,1-.361-.361V6.853a.361.361,0,0,1,.361-.361h.361V5.77a1.444,1.444,0,0,1,2.889,0v.722H8.8a.361.361,0,0,1,.361.361V9.742Zm0,0" transform="translate(0 0)"/>
  </g>
</svg>
