<svg id="svgexport-10_-_2022-12-24T215811.448" data-name="svgexport-10 - 2022-12-24T215811.448" xmlns="http://www.w3.org/2000/svg" width="49.333" height="49.333" viewBox="0 0 49.333 49.333">
  <path id="Path_57493" data-name="Path 57493" d="M2.891,2.891h8.672V0H0V11.563H2.891Zm0,0" fill="#f8ce5d"/>
  <path id="Path_57494" data-name="Path 57494" d="M392,0V2.891h8.672v8.672h2.891V0Zm0,0" transform="translate(-354.229)" fill="#f8ce5d"/>
  <path id="Path_57495" data-name="Path 57495" d="M400.672,400.672H392v2.891h11.563V392h-2.891Zm0,0" transform="translate(-354.229 -354.229)" fill="#f8ce5d"/>
  <path id="Path_57496" data-name="Path 57496" d="M2.891,392H0v11.563H11.563v-2.891H2.891Zm0,0" transform="translate(0 -354.229)" fill="#f8ce5d"/>
  <path id="Path_57497" data-name="Path 57497" d="M61,60V74.453H75.453V65.781h2.891V62.891H75.453V60ZM72.563,71.563H63.891V62.891h8.672Zm0,0" transform="translate(-55.122 -54.219)" fill="#f8ce5d"/>
  <path id="Path_57498" data-name="Path 57498" d="M288.344,287.344V272.891h-5.781V270h-2.891v2.891H271v2.891h2.891v2.891H271v2.891h2.891v5.781Zm-11.563-11.562h8.672v8.672h-8.672Zm0,0" transform="translate(-244.888 -243.984)" fill="#f8ce5d"/>
  <path id="Path_57499" data-name="Path 57499" d="M69.672,242.891h5.781V240H61v2.891h5.781v2.891H63.891v2.891h2.891v5.781H63.891v2.891h2.891v2.891H81.234v-2.891H78.344v-2.891H75.453v2.891H69.672v-2.891h2.891v-2.891H69.672Zm0,0" transform="translate(-55.122 -216.875)" fill="#f8ce5d"/>
  <path id="Path_57500" data-name="Path 57500" d="M121,120h2.891v2.891H121Zm0,0" transform="translate(-109.341 -108.437)" fill="#f8ce5d"/>
  <path id="Path_57501" data-name="Path 57501" d="M361,120h2.891v2.891H361Zm0,0" transform="translate(-326.216 -108.437)" fill="#f8ce5d"/>
  <path id="Path_57502" data-name="Path 57502" d="M309.672,74.453h5.781V60H301V74.453h5.781v2.891h2.891Zm-5.781-2.891V62.891h8.672v8.672Zm0,0" transform="translate(-271.997 -54.219)" fill="#f8ce5d"/>
  <path id="Path_57503" data-name="Path 57503" d="M396.781,242.891V240H391v2.891Zm0,0" transform="translate(-353.325 -216.875)" fill="#f8ce5d"/>
  <path id="Path_57504" data-name="Path 57504" d="M361,360h2.891v2.891H361Zm0,0" transform="translate(-326.216 -325.312)" fill="#f8ce5d"/>
  <path id="Path_57505" data-name="Path 57505" d="M241,330h2.891v2.891H241Zm0,0" transform="translate(-217.779 -298.203)" fill="#f8ce5d"/>
  <path id="Path_57506" data-name="Path 57506" d="M181,305.781h2.891V300H181Zm0,0" transform="translate(-163.56 -271.094)" fill="#f8ce5d"/>
  <path id="Path_57507" data-name="Path 57507" d="M211,270h2.891v2.891H211Zm0,0" transform="translate(-190.669 -243.984)" fill="#f8ce5d"/>
  <path id="Path_57508" data-name="Path 57508" d="M63.891,330H61v5.781h2.891Zm0,0" transform="translate(-55.122 -298.203)" fill="#f8ce5d"/>
  <path id="Path_57509" data-name="Path 57509" d="M61,420h2.891v2.891H61Zm0,0" transform="translate(-55.122 -379.531)" fill="#f8ce5d"/>
  <path id="Path_57510" data-name="Path 57510" d="M241,60h2.891v2.891H241Zm0,0" transform="translate(-217.779 -54.219)" fill="#f8ce5d"/>
  <path id="Path_57511" data-name="Path 57511" d="M241,125.781h2.891V120H241Zm0,0" transform="translate(-217.779 -108.437)" fill="#f8ce5d"/>
  <path id="Path_57512" data-name="Path 57512" d="M243.891,212.891V210H241v5.781h11.563v-2.891Zm0,0" transform="translate(-217.779 -189.766)" fill="#f8ce5d"/>
</svg>
