<svg width="24" height="24" viewBox="0 0 24 24" fill="none" xmlns="http://www.w3.org/2000/svg">
<path d="M22.08 23.52H1.91998C1.12318 23.52 0.47998 22.8768 0.47998 22.08V7.19995H23.52V22.08C23.52 22.8768 22.8768 23.52 22.08 23.52Z" fill="#E7E7FF"/>
<path d="M23.52 7.1999H0.47998V3.8399C0.47998 3.0431 1.12318 2.3999 1.91998 2.3999H22.08C22.8768 2.3999 23.52 3.0431 23.52 3.8399V7.1999Z" fill="#FB8098"/>
<path d="M6.72007 17.76C8.04555 17.76 9.12007 16.6854 9.12007 15.36C9.12007 14.0345 8.04555 12.96 6.72007 12.96C5.39458 12.96 4.32007 14.0345 4.32007 15.36C4.32007 16.6854 5.39458 17.76 6.72007 17.76Z" fill="#F1CE85"/>
<path d="M17.7601 12.9601C18.8205 12.9601 19.6801 12.1005 19.6801 11.0401C19.6801 9.97973 18.8205 9.12012 17.7601 9.12012C16.6997 9.12012 15.8401 9.97973 15.8401 11.0401C15.8401 12.1005 16.6997 12.9601 17.7601 12.9601Z" fill="#BB9CF1"/>
<path d="M17.7601 21.6C18.8205 21.6 19.6801 20.7404 19.6801 19.68C19.6801 18.6196 18.8205 17.76 17.7601 17.76C16.6997 17.76 15.8401 18.6196 15.8401 19.68C15.8401 20.7404 16.6997 21.6 17.7601 21.6Z" fill="#BB9CF1"/>
<path d="M6.72009 18.2399C7.21743 18.2396 7.7062 18.1103 8.13863 17.8646C8.57107 17.619 8.93239 17.2654 9.18729 16.8383L15.4033 19.2719C15.3793 19.4063 15.3601 19.5407 15.3601 19.6799C15.3601 21.0047 16.4353 22.0799 17.7601 22.0799C19.0849 22.0799 20.1601 21.0047 20.1601 19.6799C20.1601 18.3551 19.0849 17.2799 17.7601 17.2799C16.9153 17.2799 16.1761 17.7167 15.7489 18.3791L9.53769 15.9503C9.58089 15.7583 9.60009 15.5615 9.60009 15.3599C9.60009 15.1583 9.58089 14.9615 9.53769 14.7743L15.7489 12.3455C15.966 12.6814 16.2638 12.9576 16.6152 13.1488C16.9665 13.3399 17.3601 13.44 17.7601 13.4399C19.0849 13.4399 20.1601 12.3647 20.1601 11.0399C20.1601 9.71509 19.0849 8.63989 17.7601 8.63989C16.4353 8.63989 15.3601 9.71509 15.3601 11.0399C15.3601 11.1791 15.3793 11.3135 15.4033 11.4479L9.18729 13.8815C8.93239 13.4544 8.57107 13.1008 8.13863 12.8551C7.7062 12.6095 7.21743 12.4802 6.72009 12.4799C5.13129 12.4799 3.84009 13.7711 3.84009 15.3599C3.84009 16.9487 5.13129 18.2399 6.72009 18.2399ZM17.7601 18.2399C18.5521 18.2399 19.2001 18.8879 19.2001 19.6799C19.2001 20.4719 18.5521 21.1199 17.7601 21.1199C16.9681 21.1199 16.3201 20.4719 16.3201 19.6799C16.3201 18.8879 16.9681 18.2399 17.7601 18.2399ZM17.7601 9.59989C18.5521 9.59989 19.2001 10.2479 19.2001 11.0399C19.2001 11.8319 18.5521 12.4799 17.7601 12.4799C16.9681 12.4799 16.3201 11.8319 16.3201 11.0399C16.3201 10.2479 16.9681 9.59989 17.7601 9.59989ZM6.72009 13.4399C7.78089 13.4399 8.64009 14.2991 8.64009 15.3599C8.64009 16.4207 7.78089 17.2799 6.72009 17.2799C5.65929 17.2799 4.80009 16.4207 4.80009 15.3599C4.80009 14.2991 5.65929 13.4399 6.72009 13.4399Z" fill="black"/>
<path d="M22.08 1.92H21.12V0.48C21.12 0.216 20.904 0 20.64 0C20.376 0 20.16 0.216 20.16 0.48V1.92H16.8V0.48C16.8 0.216 16.584 0 16.32 0C16.056 0 15.84 0.216 15.84 0.48V1.92H12.48V0.48C12.48 0.216 12.264 0 12 0C11.736 0 11.52 0.216 11.52 0.48V1.92H8.16V0.48C8.16 0.216 7.944 0 7.68 0C7.416 0 7.2 0.216 7.2 0.48V1.92H3.84V0.48C3.84 0.216 3.624 0 3.36 0C3.096 0 2.88 0.216 2.88 0.48V1.92H1.92C0.8592 1.92 0 2.7792 0 3.84V22.08C0 23.1408 0.8592 24 1.92 24H22.08C23.1408 24 24 23.1408 24 22.08V3.84C24 2.7792 23.1408 1.92 22.08 1.92ZM23.04 22.08C23.04 22.608 22.608 23.04 22.08 23.04H1.92C1.392 23.04 0.96 22.608 0.96 22.08V7.68H23.04V22.08ZM23.04 6.72H0.96V3.84C0.96 3.312 1.392 2.88 1.92 2.88H2.88V4.32C2.88 4.584 3.096 4.8 3.36 4.8C3.624 4.8 3.84 4.584 3.84 4.32V2.88H7.2V4.32C7.2 4.584 7.416 4.8 7.68 4.8C7.944 4.8 8.16 4.584 8.16 4.32V2.88H11.52V4.32C11.52 4.584 11.736 4.8 12 4.8C12.264 4.8 12.48 4.584 12.48 4.32V2.88H15.84V4.32C15.84 4.584 16.056 4.8 16.32 4.8C16.584 4.8 16.8 4.584 16.8 4.32V2.88H20.16V4.32C20.16 4.584 20.376 4.8 20.64 4.8C20.904 4.8 21.12 4.584 21.12 4.32V2.88H22.08C22.608 2.88 23.04 3.312 23.04 3.84V6.72Z" fill="black"/>
</svg>
