<?xml version="1.0" standalone="no"?>
<!DOCTYPE svg PUBLIC "-//W3C//DTD SVG 20010904//EN"
 "http://www.w3.org/TR/2001/REC-SVG-20010904/DTD/svg10.dtd">
<svg version="1.0" xmlns="http://www.w3.org/2000/svg"
 width="3000.000000pt" height="3000.000000pt" viewBox="0 0 3000.000000 3000.000000"
 preserveAspectRatio="xMidYMid meet">

<g transform="translate(0.000000,3000.000000) scale(0.100000,-0.100000)"
fill="#000000" stroke="none">
<path d="M0 15000 l0 -15000 15000 0 15000 0 0 15000 0 15000 -15000 0 -15000
0 0 -15000z m15290 11745 c0 -12 17 -15 88 -16 48 -1 164 -4 259 -8 l172 -6
31 -30 31 -30 217 -7 c119 -4 255 -11 302 -16 47 -6 127 -13 178 -17 86 -8 97
-11 134 -42 38 -32 43 -33 126 -33 106 -1 236 -34 282 -74 22 -18 43 -26 70
-26 21 0 65 -7 97 -15 32 -8 100 -18 150 -23 85 -9 95 -12 122 -41 23 -24 37
-31 67 -31 49 0 137 -35 188 -74 33 -25 51 -31 115 -36 65 -4 84 -10 131 -41
30 -20 73 -42 95 -49 112 -36 152 -57 196 -102 40 -43 50 -48 87 -48 50 0 100
-19 126 -49 11 -11 26 -21 34 -21 21 0 119 -47 128 -61 4 -6 34 -24 68 -39 33
-16 85 -49 114 -74 30 -26 64 -46 76 -46 26 0 88 -47 136 -102 20 -24 44 -40
66 -44 19 -3 46 -16 61 -28 15 -11 41 -30 59 -41 88 -55 113 -77 144 -125 37
-58 69 -78 137 -87 60 -7 73 -18 73 -55 0 -43 16 -66 57 -83 20 -8 69 -46 109
-85 40 -38 91 -81 113 -95 22 -13 45 -35 52 -47 16 -32 71 -88 85 -88 7 0 26
-17 41 -37 15 -21 36 -45 46 -55 9 -10 17 -28 18 -40 0 -17 19 -35 74 -70 61
-39 77 -55 100 -100 35 -69 62 -98 95 -98 39 0 57 -20 63 -68 4 -35 16 -55 59
-101 135 -147 171 -196 252 -341 16 -30 36 -61 43 -68 8 -8 20 -27 29 -44 8
-16 30 -36 48 -43 27 -12 37 -25 55 -75 12 -33 20 -64 17 -68 -9 -14 13 -36
46 -47 26 -9 39 -23 62 -71 16 -32 49 -97 73 -144 43 -84 197 -395 247 -502
14 -30 26 -70 26 -89 0 -28 6 -38 30 -52 27 -16 30 -23 30 -68 0 -32 8 -66 24
-97 13 -26 26 -75 29 -109 4 -34 15 -76 27 -95 11 -18 20 -42 20 -52 0 -11 12
-39 26 -64 17 -28 29 -69 35 -113 5 -38 16 -81 26 -96 19 -28 28 -90 41 -278
5 -79 13 -118 26 -137 11 -17 19 -54 23 -105 3 -43 13 -91 22 -108 17 -32 19
-69 40 -650 5 -148 10 -527 10 -842 0 -484 -2 -576 -14 -600 -13 -24 -15 -125
-15 -671 0 -564 -2 -647 -16 -673 -24 -47 -24 -676 0 -733 9 -22 16 -65 16
-101 0 -58 3 -67 39 -113 39 -49 40 -49 113 -57 79 -9 355 -10 562 -1 115 4
132 7 165 29 27 19 55 26 115 31 44 4 95 14 114 22 19 8 54 14 77 14 31 0 52
7 72 24 39 32 61 43 112 51 24 4 59 14 77 21 18 8 52 14 75 14 29 0 50 7 71
25 18 15 42 25 62 25 21 0 40 8 55 24 21 22 32 25 159 31 254 12 607 2 667
-20 11 -5 36 -25 56 -46 30 -32 44 -39 73 -39 38 0 60 -16 98 -73 10 -14 37
-34 61 -46 24 -12 61 -36 83 -54 21 -18 51 -40 65 -49 15 -9 39 -38 54 -65 15
-26 50 -70 77 -97 26 -26 61 -69 75 -94 26 -44 27 -53 31 -216 l4 -171 -37
-75 c-49 -101 -72 -136 -122 -185 -36 -34 -43 -47 -43 -79 0 -59 -14 -76 -62
-76 -33 0 -45 -6 -67 -31 -65 -77 -161 -154 -228 -184 -40 -18 -56 -33 -73
-64 -18 -36 -25 -41 -55 -41 -48 0 -81 -15 -137 -62 -37 -30 -63 -43 -98 -49
-38 -6 -63 -19 -110 -58 -60 -50 -63 -51 -126 -51 -56 0 -68 -3 -90 -25 -40
-41 -123 -75 -182 -75 -47 0 -69 -15 -82 -54 -10 -33 -13 -34 -73 -40 -148
-13 -186 -23 -222 -55 -20 -17 -41 -31 -48 -31 -7 -1 -30 -9 -52 -20 -22 -11
-58 -19 -80 -20 -29 0 -53 -9 -89 -35 -27 -19 -57 -35 -65 -35 -9 0 -25 -7
-35 -15 -11 -8 -34 -15 -52 -15 -45 0 -74 -12 -111 -48 -18 -16 -46 -32 -64
-36 -17 -3 -55 -28 -86 -56 -31 -28 -78 -62 -104 -76 -34 -17 -55 -36 -68 -63
-13 -25 -31 -43 -51 -49 -17 -7 -39 -26 -51 -47 -12 -20 -39 -47 -60 -61 -22
-13 -48 -42 -60 -65 -11 -23 -40 -63 -63 -88 -24 -25 -56 -68 -72 -96 l-29
-50 3 -230 c2 -168 6 -235 16 -250 7 -11 20 -42 29 -70 8 -27 22 -68 31 -90 8
-22 15 -65 16 -95 0 -35 7 -68 19 -90 11 -19 27 -51 36 -70 9 -19 29 -60 45
-90 56 -107 70 -136 105 -210 20 -41 40 -82 45 -90 5 -8 29 -56 53 -106 24
-50 53 -104 64 -120 39 -58 73 -134 73 -167 0 -45 24 -75 62 -79 28 -3 33 -8
44 -48 20 -76 63 -160 95 -188 36 -30 59 -64 124 -187 26 -49 69 -112 95 -140
27 -27 63 -75 81 -105 18 -30 57 -82 87 -115 30 -33 69 -89 87 -125 33 -64 64
-96 134 -135 30 -17 36 -26 36 -54 1 -24 7 -38 24 -49 13 -9 34 -33 47 -54 14
-21 39 -46 58 -54 20 -10 45 -36 64 -68 17 -28 64 -83 104 -122 40 -39 86 -84
102 -100 16 -16 43 -51 60 -79 17 -27 41 -54 53 -60 12 -7 46 -35 75 -65 53
-52 137 -121 187 -151 14 -8 44 -42 66 -75 26 -38 51 -62 70 -69 39 -13 146
-86 155 -105 4 -8 11 -24 17 -35 5 -11 28 -26 51 -33 31 -10 47 -24 64 -53 12
-23 36 -45 57 -55 34 -16 77 -46 111 -78 8 -8 29 -20 45 -27 17 -7 49 -32 72
-56 23 -23 55 -45 70 -49 68 -14 120 -51 175 -122 13 -15 28 -22 54 -22 28 0
44 -7 68 -33 17 -18 58 -46 91 -62 33 -16 67 -35 77 -43 9 -7 40 -24 70 -36
46 -19 94 -44 148 -75 8 -5 31 -15 50 -23 19 -9 55 -25 80 -37 25 -11 51 -21
59 -21 7 0 30 -13 50 -28 41 -32 140 -72 178 -72 16 0 37 -13 60 -38 l34 -37
96 -4 c102 -3 111 -7 191 -73 28 -24 42 -28 96 -28 64 0 181 -34 215 -63 36
-31 101 -47 189 -47 80 0 92 -3 134 -29 25 -16 58 -45 73 -65 17 -23 41 -39
65 -46 20 -6 49 -19 63 -30 14 -11 34 -20 44 -20 41 0 188 -149 214 -216 5
-14 9 -111 9 -215 0 -211 -7 -241 -68 -286 -17 -13 -45 -50 -63 -83 -18 -34
-45 -71 -61 -83 -16 -12 -40 -32 -55 -44 -14 -13 -31 -23 -38 -23 -6 0 -38
-23 -69 -50 -31 -28 -63 -50 -69 -50 -7 -1 -30 -9 -52 -20 -22 -11 -45 -19
-52 -20 -6 0 -20 -11 -30 -23 -23 -30 -55 -47 -86 -47 -48 0 -162 -41 -185
-67 -41 -45 -107 -73 -175 -73 -76 0 -135 -25 -178 -74 l-31 -36 -89 0 -90 0
-20 -34 c-21 -37 -42 -46 -105 -46 -23 0 -61 -7 -84 -15 -23 -8 -73 -15 -110
-15 -59 0 -72 -3 -104 -29 -23 -19 -55 -33 -84 -37 -26 -4 -59 -13 -74 -20
-15 -8 -55 -14 -90 -15 -93 -1 -173 -20 -205 -50 -27 -25 -36 -27 -213 -39
-102 -7 -225 -16 -275 -19 -49 -4 -99 -11 -110 -17 -35 -20 -88 -36 -150 -46
-71 -12 -82 -19 -106 -75 -11 -27 -28 -47 -43 -53 -14 -5 -32 -24 -40 -43 -7
-19 -23 -41 -35 -49 -23 -16 -74 -114 -86 -163 -3 -16 -14 -38 -23 -48 -9 -11
-20 -46 -24 -80 -15 -128 -27 -193 -42 -222 -9 -17 -16 -36 -16 -44 0 -15 -38
-108 -81 -196 -17 -35 -29 -76 -29 -100 0 -22 -11 -64 -25 -93 -14 -30 -25
-63 -25 -74 0 -11 -9 -36 -20 -54 -13 -21 -20 -47 -19 -71 4 -64 -58 -135
-156 -180 -16 -7 -43 -23 -58 -36 -28 -21 -36 -22 -222 -21 -173 1 -197 3
-222 20 -52 35 -134 43 -478 44 -181 0 -409 5 -505 11 -209 13 -801 15 -1025
3 -88 -4 -297 -11 -465 -15 -327 -7 -359 -11 -404 -42 -22 -15 -50 -22 -110
-25 -54 -3 -87 -10 -99 -20 -9 -8 -42 -19 -71 -23 -45 -6 -65 -16 -116 -58
-33 -28 -68 -51 -76 -51 -27 0 -89 -38 -111 -68 -18 -25 -31 -30 -80 -36 -32
-4 -72 -15 -88 -26 -17 -11 -50 -33 -75 -50 -25 -16 -53 -30 -63 -30 -10 0
-37 -20 -61 -45 -31 -32 -52 -45 -71 -45 -26 0 -128 -51 -140 -70 -3 -4 -23
-11 -45 -15 -44 -7 -95 -44 -105 -75 -7 -21 -75 -63 -118 -74 -16 -4 -56 -29
-88 -56 -33 -28 -65 -50 -72 -50 -23 0 -90 -42 -122 -76 -18 -19 -40 -34 -50
-34 -16 0 -30 -9 -116 -78 -23 -17 -45 -32 -50 -32 -5 0 -26 -15 -46 -34 -21
-18 -54 -36 -73 -40 -58 -12 -103 -39 -131 -80 -29 -44 -48 -54 -96 -55 -23
-1 -47 -14 -88 -50 -31 -27 -68 -52 -82 -56 -14 -3 -51 -27 -82 -52 -30 -25
-67 -49 -81 -54 -46 -17 -95 -44 -103 -57 -17 -26 -49 -50 -75 -55 -15 -3 -43
-16 -62 -29 -19 -13 -57 -29 -84 -36 -34 -9 -65 -27 -96 -56 -26 -24 -57 -47
-71 -50 -13 -4 -37 -14 -54 -21 -16 -8 -54 -21 -84 -30 -30 -9 -81 -34 -114
-56 -34 -21 -64 -39 -68 -39 -13 0 -163 -71 -179 -85 -9 -8 -53 -14 -112 -17
-58 -2 -103 -9 -110 -16 -7 -7 -21 -12 -31 -12 -11 0 -34 -9 -51 -19 -61 -38
-160 -53 -383 -60 -211 -6 -212 -6 -240 -32 -31 -30 -52 -31 -555 -46 -182 -5
-228 -9 -228 -19 0 -12 -78 -14 -445 -14 -382 0 -445 2 -445 15 0 17 -59 35
-120 35 -25 0 -54 7 -64 15 -11 8 -30 15 -42 15 -12 0 -35 7 -50 15 -16 8 -46
15 -66 15 -21 0 -57 4 -80 10 -24 5 -74 17 -113 25 -46 11 -79 25 -97 42 -21
20 -41 27 -110 34 -84 10 -173 33 -183 49 -3 5 -20 14 -38 19 -74 22 -138 51
-188 84 -67 44 -100 57 -148 57 -41 0 -83 28 -152 99 -30 30 -49 40 -96 50
-33 6 -75 23 -93 36 -20 15 -47 25 -67 25 -36 0 -58 18 -85 69 -13 24 -36 40
-85 63 -38 16 -79 40 -93 53 -14 12 -41 28 -61 34 -20 7 -56 30 -80 53 -33 31
-56 43 -92 49 -36 6 -62 20 -108 58 -34 28 -67 51 -74 51 -7 0 -26 11 -42 24
-15 13 -38 26 -50 30 -13 4 -23 12 -23 17 0 11 -51 35 -93 44 -21 4 -29 13
-34 36 -6 30 -44 59 -78 59 -9 0 -33 17 -54 37 -20 21 -54 46 -74 55 -20 10
-53 26 -73 35 -20 10 -51 32 -68 50 -17 18 -35 33 -41 33 -18 0 -110 63 -146
101 -26 27 -47 38 -94 48 -62 13 -225 86 -225 101 0 19 -53 70 -83 79 -79 23
-143 53 -168 77 -18 17 -43 28 -76 33 -53 7 -100 31 -145 73 -21 21 -39 28
-67 28 -23 0 -48 8 -64 20 -14 11 -40 23 -59 26 -18 4 -42 15 -53 25 -36 31
-135 69 -184 69 -81 0 -163 18 -201 45 -49 34 -140 51 -350 65 -158 11 -177
14 -202 35 -24 20 -42 24 -155 30 -70 4 -253 6 -408 3 l-280 -5 -50 -26 c-39
-21 -64 -27 -115 -27 -36 -1 -112 -8 -170 -17 -58 -8 -202 -18 -320 -22 -194
-5 -219 -8 -244 -26 -55 -38 -68 -43 -159 -50 -51 -4 -107 -13 -126 -21 -22
-9 -73 -14 -150 -14 -117 -1 -149 -8 -253 -54 -57 -25 -124 -21 -160 9 -22 18
-41 25 -73 25 -34 0 -52 6 -77 29 -18 15 -42 31 -53 35 -20 6 -82 100 -106
161 -6 17 -11 51 -10 78 1 30 -6 62 -19 87 -11 22 -23 68 -27 102 -3 35 -15
81 -26 102 -10 22 -23 70 -28 108 -5 37 -18 87 -30 110 -14 28 -23 68 -26 113
-3 44 -13 91 -29 126 -13 31 -24 76 -24 100 0 66 -138 340 -185 368 -19 11
-45 38 -60 60 -25 40 -26 41 -84 41 -33 0 -83 5 -113 11 -148 29 -197 41 -214
54 -11 8 -28 15 -40 15 -11 0 -25 5 -30 10 -22 22 -126 38 -269 42 l-150 4
-17 34 c-9 18 -23 37 -30 41 -7 5 -64 9 -125 9 -95 0 -118 3 -145 20 -18 11
-40 20 -49 20 -9 0 -33 14 -54 30 -36 28 -43 30 -127 30 -56 0 -102 5 -125 15
-19 8 -67 18 -105 22 -63 5 -71 9 -95 39 l-25 34 -88 0 -88 0 -31 36 c-44 50
-102 74 -182 74 -74 0 -144 30 -173 75 -13 19 -25 25 -54 25 -22 0 -53 10 -77
25 -22 13 -52 25 -67 25 -15 0 -42 12 -60 28 -18 15 -49 35 -68 45 -19 9 -48
26 -65 37 -16 11 -37 23 -45 26 -8 4 -34 22 -57 41 -23 18 -45 33 -48 33 -4 0
-25 15 -46 32 -21 18 -51 43 -68 56 -16 12 -37 41 -46 65 -9 25 -29 51 -46 62
-17 11 -41 38 -54 60 -22 38 -24 49 -24 217 l0 178 35 67 c40 77 141 183 175
183 52 0 172 78 269 175 l35 35 142 0 142 0 35 30 c55 49 144 80 225 80 63 0
74 3 104 29 46 41 130 71 199 71 72 0 99 11 161 62 39 33 60 43 102 49 44 6
64 16 115 58 53 44 67 51 105 51 35 0 52 6 78 30 19 16 69 44 113 61 43 17 94
44 112 60 18 16 38 29 45 29 7 0 46 21 87 46 41 26 95 52 119 58 35 9 53 21
79 56 32 41 107 90 139 90 7 0 38 22 68 50 52 47 101 83 169 123 17 10 50 37
73 59 22 22 65 52 95 67 42 21 58 36 78 74 14 26 34 50 45 53 11 4 31 17 45
29 14 13 44 28 67 34 43 12 74 42 107 108 9 17 26 35 38 39 36 11 144 111 162
149 24 49 43 65 79 65 46 0 73 23 107 90 29 57 87 111 153 141 19 8 27 20 27
37 0 26 62 101 113 137 16 11 46 49 66 83 20 34 81 107 134 161 89 90 99 104
105 146 7 43 10 47 61 73 48 24 59 35 98 107 24 44 66 103 93 130 26 28 58 70
70 95 12 25 38 66 56 93 19 26 34 51 34 56 0 5 14 21 32 34 26 21 32 33 34 73
3 41 9 54 47 93 24 25 50 61 57 79 9 23 21 35 41 39 45 9 68 42 74 106 6 66
45 139 106 203 34 34 41 50 49 100 4 32 20 82 34 110 14 29 26 56 26 62 0 5
18 27 41 48 53 51 109 164 109 222 0 27 9 59 24 85 17 30 25 63 28 112 3 44
13 86 27 112 11 23 21 51 21 61 0 11 11 36 25 56 27 40 32 75 14 108 -6 11
-12 94 -13 196 -3 212 -15 279 -69 390 -32 65 -50 90 -79 108 -21 13 -49 42
-63 64 -14 22 -32 40 -40 40 -8 0 -34 19 -57 43 -97 97 -218 198 -250 207 -18
6 -45 10 -59 10 -18 0 -43 15 -74 45 -47 44 -94 65 -145 65 -14 0 -41 13 -61
29 -30 25 -46 30 -110 34 -81 4 -183 39 -221 74 -33 31 -99 51 -205 61 -88 9
-93 11 -126 46 -29 30 -41 36 -75 36 -31 0 -51 8 -86 35 -59 45 -108 65 -159
65 -42 0 -85 23 -155 82 -24 21 -43 28 -73 28 -33 0 -47 7 -87 44 -57 54 -86
66 -156 66 -57 0 -76 12 -76 47 0 31 -33 60 -115 103 -46 24 -76 47 -94 74
-50 75 -76 96 -118 96 -50 0 -71 21 -123 124 -22 42 -57 98 -79 124 -21 26
-53 75 -70 109 -29 58 -31 70 -31 170 0 91 3 115 21 148 12 21 24 65 26 96 6
56 7 58 75 115 43 37 79 77 94 106 17 33 36 54 63 68 22 11 46 28 53 38 7 10
24 25 38 32 25 13 73 52 142 116 20 19 44 34 54 34 9 0 34 16 55 35 22 19 45
35 52 36 6 0 46 5 87 11 97 14 502 14 605 0 64 -9 83 -15 97 -34 10 -13 23
-29 28 -35 7 -9 41 -13 98 -13 65 -1 97 -6 127 -20 22 -11 45 -20 50 -20 6 0
30 -16 54 -35 40 -32 50 -35 107 -35 35 0 89 -7 121 -15 32 -9 97 -19 145 -24
72 -7 92 -13 118 -35 17 -14 41 -28 54 -32 27 -6 657 3 749 11 83 8 87 15 87
145 0 55 6 104 15 127 13 36 41 464 31 481 -2 4 -7 153 -11 332 -5 212 -11
332 -19 345 -7 13 -14 140 -18 370 -10 432 -13 509 -24 532 -22 47 -43 1543
-24 1658 6 39 15 122 19 185 3 63 12 125 19 137 8 14 12 68 12 155 0 113 3
139 20 170 12 22 23 72 28 128 6 55 15 97 25 108 24 27 64 142 71 202 12 119
25 182 45 213 11 18 22 57 26 87 6 52 29 117 78 218 11 24 22 69 25 100 3 41
11 64 27 82 13 14 29 45 35 70 7 25 18 52 25 60 7 8 16 26 20 39 4 14 29 48
54 75 26 28 59 80 75 116 32 73 39 88 129 255 36 66 70 137 77 158 11 34 45
67 84 80 5 2 9 18 8 36 -1 52 15 82 76 141 31 31 70 80 86 110 16 30 35 67 43
82 8 15 27 37 44 48 27 20 119 150 119 170 0 5 18 24 40 42 25 19 62 68 92
120 30 53 58 90 72 94 36 12 99 72 125 121 16 29 35 49 49 53 25 6 81 56 83
73 1 7 2 21 3 32 1 13 17 28 48 43 30 14 54 34 63 53 9 17 32 40 51 51 19 11
44 38 54 58 14 27 30 42 55 50 42 14 220 189 271 266 30 47 37 52 78 56 37 5
58 17 123 71 43 37 97 85 120 107 22 22 48 40 55 40 8 0 24 11 37 24 12 12 40
29 63 36 27 7 67 35 108 72 36 34 81 67 100 75 19 8 46 25 60 38 52 48 103 75
140 75 24 0 43 7 54 19 10 11 43 35 74 53 30 18 69 46 86 62 26 25 45 32 121
43 119 17 116 16 149 68 40 64 59 75 137 75 58 0 71 4 102 29 20 15 58 34 84
41 87 23 156 51 185 75 16 14 39 25 51 25 12 0 37 9 55 20 26 16 50 20 118 20
85 0 112 7 149 40 11 10 50 30 86 44 54 21 82 26 156 26 85 0 92 2 128 30 21
16 56 35 79 40 22 6 57 15 76 20 19 5 69 12 110 15 121 8 253 30 285 47 17 8
68 21 115 27 47 7 96 14 110 18 14 3 102 8 197 12 164 6 173 7 198 31 21 20
38 25 93 27 268 12 442 27 442 40 0 10 55 13 290 13 251 0 290 -2 290 -15z"/>
</g>
</svg>
