<svg xmlns="http://www.w3.org/2000/svg" xmlns:xlink="http://www.w3.org/1999/xlink" width="232.034" height="183.776" viewBox="0 0 232.034 183.776">
  <defs>
    <linearGradient id="linear-gradient" x1="0.5" x2="0.5" y2="1" gradientUnits="objectBoundingBox">
      <stop offset="0" stop-color="#dbedff"/>
      <stop offset="1" stop-color="#7cabdc"/>
    </linearGradient>
  </defs>
  <g id="success" transform="translate(-71.001 -179.049)">
    <path id="Union_11" d="M183.669,362.825A52.367,52.367,0,1,1,212.764,354,52.04,52.04,0,0,1,183.669,362.825Zm-79.105-58.946v0c-.092-.171-2.3-4.2-5.876-4.2a4.9,4.9,0,0,0-.822.071l-.2-3.827.022,0c.057,0,.232-.012.489-.012a11.833,11.833,0,0,1,4.231.763,6.258,6.258,0,0,1,3.957,4.22l-1.8,2.986Zm151.683-11.534v0a10.526,10.526,0,0,0-1.614-2.136,6.161,6.161,0,0,0-4.256-2.061,4.887,4.887,0,0,0-.829.072l-.2-3.83.022,0c.058,0,.233-.012.492-.012a11.829,11.829,0,0,1,4.231.764,6.257,6.257,0,0,1,3.955,4.22l-1.8,2.987Zm44.794-20.462v0c-.011-.152-.308-3.728-3.011-4.415l.94-2.425.008,0a8.455,8.455,0,0,1,2.211,1.3,4.521,4.521,0,0,1,1.8,4.185l-1.945,1.353ZM78.325,253.972h0a13.494,13.494,0,0,1-3.9-1.483,7.545,7.545,0,0,1-2.536-2.29,5.419,5.419,0,0,1-.844-3.709l3.245-2.53a9.454,9.454,0,0,0,.943,2.873,5.628,5.628,0,0,0,4.533,3.2l-1.44,3.94Zm195.051-5.008c-.172,0-.312-1.456-.312-3.247s.14-3.246.312-3.246.311,1.456.311,3.246S273.548,248.964,273.376,248.964Zm5.129-3.717h0c-.2,0-.746-.484-1.33-1.177-.627-.751-1.031-1.452-.9-1.562a.07.07,0,0,1,.047-.015c.2,0,.771.507,1.331,1.178.627.751,1.031,1.451.9,1.562A.077.077,0,0,1,278.505,245.247Zm-9.967-.649h0a.093.093,0,0,1-.056-.018c-.062-.056-.008-.232.15-.494a6.153,6.153,0,0,1,.69-.9,3.139,3.139,0,0,1,1.243-.985.08.08,0,0,1,.057.019c.126.118-.251.741-.841,1.388a3.161,3.161,0,0,1-1.244.985Zm-1.98-3.814c-1.764,0-3.2-.141-3.2-.314a.045.045,0,0,1,.015-.031,10.357,10.357,0,0,1,3.184-.281c1.764,0,3.2.14,3.2.312S268.323,240.784,266.558,240.784Zm-124.4-.13h0l-2.584-.306v-.008a8.468,8.468,0,0,1,.714-2.467,4.521,4.521,0,0,1,3.607-2.782l1.8,1.551c-.036.012-3.534,1.179-3.532,4.011Zm137.815-.085a8.587,8.587,0,0,1-3.2-.308l0,0c0-.172,1.436-.311,3.2-.311s3.2.14,3.2.311S281.737,240.569,279.972,240.569Zm-6.819-2.314a8.807,8.807,0,0,1-.309-3.244,10.82,10.82,0,0,1,.278-3.234.044.044,0,0,1,.031-.015c.172,0,.311,1.456.311,3.246S273.324,238.255,273.153,238.255Zm-2.316-.346h-.009a3,3,0,0,1-1.236-.728,2.849,2.849,0,0,1-.947-1.109.093.093,0,0,1,.017-.07.106.106,0,0,1,.084-.03,3,3,0,0,1,1.24.73c.629.526,1.035,1.043.925,1.176A.109.109,0,0,1,270.837,237.909Zm5.093-.147a.084.084,0,0,1-.043-.012l0-.008c-.121-.121.309-.755.959-1.412a3.511,3.511,0,0,1,1.34-.991.081.081,0,0,1,.06.021c.12.124-.31.756-.958,1.41a3.5,3.5,0,0,1-1.345.992ZM99.123,231.134c-.172,0-.312-1.456-.312-3.246s.14-3.246.312-3.246a17.125,17.125,0,0,1,0,6.493Zm5.128-3.717h0c-.2,0-.771-.508-1.33-1.177-.627-.752-1.03-1.453-.9-1.562a.071.071,0,0,1,.047-.015c.2,0,.769.506,1.331,1.177.628.75,1.031,1.451.9,1.562A.075.075,0,0,1,104.252,227.417Zm-9.969-.648h0a.079.079,0,0,1-.054-.021c-.061-.056-.007-.231.152-.494a6.191,6.191,0,0,1,.69-.894,3.136,3.136,0,0,1,1.244-.985.08.08,0,0,1,.057.019c.127.118-.251.741-.841,1.388a3.143,3.143,0,0,1-1.246.986Zm98.39-1.553a9.489,9.489,0,0,1-2.755-.418l-2.34-4.75c.006,0,.3.024.785.024,2.337,0,7.985-.507,9.965-5.2l5.045,2.876,0,.008a18.679,18.679,0,0,1-2.846,3.728,14.051,14.051,0,0,1-3.366,2.569A9.482,9.482,0,0,1,192.672,225.217Zm56.11-.542c-.06,0-.123,0-.195-.006l-1.518-1.82c.037-.006,3.679-.594,4.136-3.389l2.5.723a.017.017,0,0,1,0,.008,8.481,8.481,0,0,1-1.048,2.238,4.593,4.593,0,0,1-3.8,2.246ZM92.3,222.954c-1.764,0-3.2-.141-3.2-.314s1.435-.312,3.2-.312,3.2.14,3.2.312S94.07,222.954,92.3,222.954Zm13.416-.212a8.53,8.53,0,0,1-3.2-.311.044.044,0,0,1,.015-.031,10.358,10.358,0,0,1,3.184-.281c1.764,0,3.2.14,3.2.312A8.53,8.53,0,0,1,105.721,222.742ZM98.9,220.428c-.172,0-.311-1.456-.311-3.246,0-.865.032-1.679.09-2.293s.137-.952.221-.952c.173,0,.314,1.456.314,3.245S99.073,220.428,98.9,220.428Zm-2.31-.346h-.013a3.012,3.012,0,0,1-1.24-.732c-.619-.515-1.034-1.042-.923-1.174a.106.106,0,0,1,.086-.031,3.034,3.034,0,0,1,1.238.73c.619.515,1.033,1.043.924,1.176A.1.1,0,0,1,96.59,220.082Zm5.095-.148a.079.079,0,0,1-.051-.019c-.12-.124.311-.757.96-1.413a3.513,3.513,0,0,1,1.34-.991.08.08,0,0,1,.06.021c.12.123-.311.756-.96,1.41a3.5,3.5,0,0,1-1.343.992Zm62.781-34.041v0c-.011-.152-.312-3.727-3.011-4.415l.936-2.426.008,0a8.467,8.467,0,0,1,2.213,1.3,4.52,4.52,0,0,1,1.8,4.186l-1.943,1.352Z" fill="url(#linear-gradient)"/>
    <g id="check">
      <path id="Path_18164" d="M48.024.017c.67.544-9.113,13.7-21.849,29.384-2.714,3.294-5.319,6.453-7.713,9.357l-1.054,1.28L16.276,38.87C6.333,28.625-.458,21.014.024,20.534s8.089,6.309,18.337,16.252l-2.184.114c2.35-2.94,4.907-6.135,7.573-9.469C36.484,11.748,47.354-.525,48.024.017Z" transform="translate(161.432 288.346)" fill="#fff"/>
    </g>
  </g>
</svg>
