<?xml version="1.0" standalone="no"?>
<!DOCTYPE svg PUBLIC "-//W3C//DTD SVG 20010904//EN"
 "http://www.w3.org/TR/2001/REC-SVG-20010904/DTD/svg10.dtd">
<svg version="1.0" xmlns="http://www.w3.org/2000/svg"
 width="40.000000pt" height="40.000000pt" viewBox="0 0 40.000000 40.000000"
 preserveAspectRatio="xMidYMid meet">

<g transform="translate(0.000000,40.000000) scale(0.100000,-0.100000)"
fill="#000000" stroke="none">
<path d="M0 200 l0 -200 200 0 200 0 0 200 0 200 -200 0 -200 0 0 -200z m191
65 c18 -25 35 -45 39 -45 3 0 26 20 50 45 63 64 73 56 11 -10 l-52 -55 51 -66
c27 -37 50 -71 50 -75 0 -5 -15 -9 -33 -9 -28 0 -39 8 -71 51 l-38 51 -54 -53
c-30 -29 -54 -49 -54 -43 0 5 20 30 45 54 25 24 45 49 45 55 0 6 -20 38 -45
71 -24 32 -45 62 -45 67 0 4 15 7 34 7 30 0 40 -7 67 -45z"/>
<path d="M126 278 c33 -56 158 -208 170 -208 21 0 20 2 -66 118 -46 62 -82
101 -93 102 -12 0 -16 -4 -11 -12z"/>
</g>
</svg>
