<?xml version="1.0" standalone="no"?>
<!DOCTYPE svg PUBLIC "-//W3C//DTD SVG 20010904//EN"
 "http://www.w3.org/TR/2001/REC-SVG-20010904/DTD/svg10.dtd">
<svg version="1.0" xmlns="http://www.w3.org/2000/svg"
 width="512.000000pt" height="512.000000pt" viewBox="0 0 512.000000 512.000000"
 preserveAspectRatio="xMidYMid meet">

<g transform="translate(0.000000,512.000000) scale(0.100000,-0.100000)"
fill="#000000" stroke="none">
<path d="M962 5100 c-137 -36 -262 -131 -330 -251 -67 -117 -72 -164 -72 -625
0 -445 3 -424 -51 -424 -32 0 -114 -47 -143 -81 -41 -49 -58 -87 -63 -149 -8
-83 18 -152 77 -210 l47 -46 -33 -22 c-18 -12 -47 -45 -63 -74 -64 -111 -48
-222 44 -315 l54 -54 -40 -36 c-63 -57 -83 -105 -84 -193 0 -64 4 -82 27 -122
16 -25 44 -59 63 -75 l35 -29 -53 -55 c-56 -58 -77 -106 -77 -179 0 -106 55
-183 181 -256 l79 -46 0 -407 c0 -374 2 -414 20 -485 50 -196 202 -344 401
-391 51 -12 136 -15 410 -15 l347 0 41 -70 c79 -132 204 -242 348 -306 156
-70 398 -103 615 -84 l129 11 37 -29 c20 -17 57 -40 82 -53 l45 -24 785 0 785
0 46 23 c151 74 214 247 145 397 -24 52 -76 108 -412 446 l-385 386 -15 159
c-42 467 -101 687 -236 887 -22 32 -54 74 -71 94 l-32 36 -5 401 -5 401 -27
50 c-43 83 -115 135 -205 150 l-43 7 0 596 c0 657 -1 666 -62 790 -39 78 -131
175 -210 220 -31 18 -91 41 -134 52 -74 19 -111 20 -998 19 -875 0 -925 -1
-994 -19z m295 -227 c77 -145 127 -202 211 -241 l57 -27 420 0 420 0 57 27
c84 39 134 96 210 238 l66 125 109 -1 c86 -1 119 -5 163 -23 111 -43 196 -128
242 -241 23 -55 23 -56 26 -687 l3 -632 -28 -15 c-38 -20 -77 -62 -105 -116
l-23 -45 -5 -720 -5 -720 -43 -80 c-94 -176 -170 -419 -193 -618 -11 -96 -7
-304 7 -385 l6 -33 -923 3 -924 3 -55 23 c-113 46 -196 129 -242 242 -22 53
-23 67 -26 447 l-3 393 58 -34 c98 -57 154 -67 242 -40 72 21 141 90 166 163
34 103 5 204 -81 280 -26 22 -42 41 -37 41 16 0 84 73 106 115 16 30 21 58 22
110 0 101 -36 163 -134 232 -3 2 14 19 38 39 23 20 51 54 62 77 27 52 35 142
19 193 -16 49 -65 118 -95 134 -23 12 -23 13 30 64 77 76 101 161 71 260 -29
95 -59 120 -325 271 l-140 80 -1 425 c0 353 3 436 16 485 49 192 211 312 421
314 l72 1 68 -127z m1303 122 c0 -8 -72 -139 -98 -178 -14 -21 -46 -50 -71
-65 l-46 -27 -389 -3 -389 -3 -54 26 c-29 15 -64 41 -77 58 -23 32 -106 181
-106 192 0 3 277 5 615 5 338 0 615 -2 615 -5z m-1763 -1425 c199 -114 218
-128 234 -177 29 -89 -40 -183 -134 -183 -43 0 -420 213 -450 254 -39 54 -31
146 17 185 29 24 87 39 122 31 19 -4 114 -54 211 -110z m2643 -279 c20 -10 44
-36 57 -61 23 -43 23 -47 23 -435 l0 -392 65 -83 c186 -236 242 -433 291
-1035 l6 -80 403 -405 c377 -379 403 -408 414 -453 21 -87 -15 -169 -92 -206
-43 -21 -54 -21 -785 -21 -611 0 -748 2 -775 14 -18 7 -56 35 -86 61 -46 39
-59 46 -84 41 -74 -15 -270 -27 -342 -21 -196 15 -328 54 -452 131 -72 45
-161 132 -189 185 l-15 29 504 0 504 0 28 -66 c32 -76 61 -95 102 -69 37 25
38 40 5 123 -51 131 -63 188 -69 342 -4 120 -2 166 16 269 27 160 85 333 167
496 l64 130 0 701 0 701 23 43 c27 52 75 80 137 80 25 0 61 -8 80 -19z m-2643
-183 c222 -128 239 -145 231 -229 -4 -37 -12 -58 -33 -79 -34 -35 -86 -54
-126 -46 -42 8 -389 211 -421 246 -38 42 -44 87 -19 144 24 55 83 90 140 82
18 -3 121 -56 228 -118z m-6 -459 c107 -60 204 -122 216 -137 33 -39 39 -84
19 -137 -22 -55 -66 -85 -128 -85 -38 0 -70 15 -238 113 -208 120 -240 148
-240 214 0 53 44 119 90 136 53 19 87 7 281 -104z m3 -464 c102 -59 196 -120
210 -135 52 -62 35 -163 -35 -204 -64 -38 -98 -28 -302 90 -107 61 -201 122
-217 141 -55 62 -33 169 43 207 60 31 99 18 301 -99z"/>
<path d="M2328 3357 c-32 -15 -126 -96 -282 -244 -129 -123 -238 -223 -242
-223 -4 0 -49 40 -99 89 -99 96 -129 111 -218 111 -159 0 -273 -165 -222 -321
16 -48 37 -74 209 -245 164 -164 198 -193 240 -208 62 -20 110 -20 170 0 39
14 103 69 389 340 188 178 352 342 365 363 55 93 38 206 -42 286 -78 77 -175
96 -268 52z m184 -134 c33 -34 46 -90 29 -131 -13 -31 -636 -627 -684 -654
-75 -42 -110 -22 -310 180 -178 180 -194 207 -167 271 22 54 56 76 115 76 l54
0 114 -112 c84 -83 121 -113 139 -113 19 0 87 59 279 241 140 133 268 250 284
261 43 28 108 20 147 -19z"/>
<path d="M1540 1180 c-11 -11 -20 -29 -20 -40 0 -11 9 -29 20 -40 19 -19 33
-20 420 -20 387 0 401 1 420 20 11 11 20 29 20 40 0 11 -9 29 -20 40 -19 19
-33 20 -420 20 -387 0 -401 -1 -420 -20z"/>
</g>
</svg>
