<svg width="17" height="20" viewBox="0 0 17 20" fill="none" xmlns="http://www.w3.org/2000/svg">
<path d="M8.3836 9.63406C9.70711 9.63406 10.8532 9.15934 11.7896 8.22274C12.7261 7.28634 13.2008 6.14056 13.2008 4.8169C13.2008 3.49362 12.7261 2.34773 11.7895 1.41097C10.8529 0.474686 9.70695 0 8.3836 0C7.05989 0 5.91407 0.474686 4.97767 1.41113C4.04127 2.34757 3.56639 3.4935 3.56639 4.8169C3.56639 6.14056 4.04123 7.2865 4.97783 8.22294C5.91442 9.15922 7.06036 9.63406 8.3836 9.63406ZM16.8124 15.379C16.7853 14.9893 16.7307 14.5641 16.6503 14.1153C16.5691 13.663 16.4646 13.2354 16.3395 12.8446C16.2102 12.4407 16.0345 12.0419 15.8172 11.6596C15.5917 11.2629 15.3268 10.9175 15.0295 10.6332C14.7187 10.3358 14.3381 10.0967 13.8981 9.92227C13.4596 9.74883 12.9735 9.66094 12.4537 9.66094C12.2495 9.66094 12.0521 9.74469 11.6708 9.99297C11.3997 10.1695 11.1278 10.3447 10.8552 10.5187C10.5932 10.6857 10.2383 10.8421 9.79988 10.9837C9.37218 11.1221 8.93793 11.1923 8.5093 11.1923C8.08071 11.1923 7.64657 11.1221 7.2184 10.9837C6.78052 10.8422 6.42559 10.6859 6.16388 10.5189C5.86036 10.325 5.58575 10.148 5.34755 9.99277C4.96669 9.74453 4.76908 9.66074 4.56494 9.66074C4.0449 9.66074 3.55908 9.74879 3.12069 9.92246C2.68092 10.0966 2.30022 10.3357 1.98909 10.6334C1.69202 10.9178 1.42698 11.263 1.20175 11.6596C0.984639 12.0419 0.808859 12.4406 0.679445 12.8448C0.554446 13.2356 0.449954 13.663 0.368782 14.1153C0.288353 14.5635 0.233744 14.9888 0.206712 15.3794C0.179823 15.7725 0.166495 16.1664 0.166752 16.5604C0.166752 17.6045 0.498625 18.4496 1.15308 19.0729C1.79944 19.6881 2.65467 20.0001 3.69471 20.0001H13.3248C14.3649 20.0001 15.2198 19.6882 15.8663 19.073C16.5209 18.4501 16.8528 17.6048 16.8528 16.5603C16.8526 16.1573 16.8391 15.7598 16.8124 15.379Z" fill="#4E4B66"/>
</svg>
