<svg xmlns="http://www.w3.org/2000/svg" width="21.952" height="19.513" viewBox="0 0 21.952 19.513">
  <path id="Icon_metro-users" data-name="Icon metro-users" d="M17.206,19.827V18.822a5.447,5.447,0,0,0,2.439-4.532c0-3.031,0-5.488-3.659-5.488s-3.659,2.457-3.659,5.488a5.447,5.447,0,0,0,2.439,4.532v1.006C10.63,20.166,7.45,22.2,7.45,24.656H24.523c0-2.458-3.18-4.49-7.317-4.828Zm-8.4.471a11.587,11.587,0,0,1,3.807-1.532,6.88,6.88,0,0,1-.772-1.125,6.983,6.983,0,0,1-.886-3.352,10.828,10.828,0,0,1,.583-4.454,3.971,3.971,0,0,1,3.034-2.277c-.322-1.457-1.18-2.415-3.465-2.415C7.45,5.143,7.45,7.6,7.45,10.631a5.447,5.447,0,0,0,2.439,4.532v1.006C5.752,16.507,2.571,18.54,2.571,21H7.888a7.811,7.811,0,0,1,.918-.7Z" transform="translate(-2.571 -5.143)" fill="#fff"/>
</svg>
