<svg width="24" height="25" viewBox="0 0 24 25" fill="none" xmlns="http://www.w3.org/2000/svg">
<path d="M10.9701 13.5485C14.1591 13.5485 16.7443 10.9633 16.7443 7.77425C16.7443 4.58522 14.1591 2 10.9701 2C7.78102 2 5.1958 4.58522 5.1958 7.77425C5.1958 10.9633 7.78102 13.5485 10.9701 13.5485Z" fill="#4E4B66"/>
<path d="M16.9671 17.1319L13.7024 20.3899C13.621 20.4678 13.5682 20.5708 13.5524 20.6824L13.2674 22.3624C13.1999 22.7299 13.5224 23.0524 13.8974 22.9924L15.5699 22.7074C15.6824 22.6924 15.7874 22.6399 15.8699 22.5574L19.1346 19.2994L16.9671 17.1319ZM20.6624 15.5974C20.0624 14.9974 19.0949 14.9974 18.4949 15.5974L17.9204 16.1756L20.0879 18.3432L20.6624 17.7649C21.2549 17.1649 21.2549 16.1974 20.6624 15.5974ZM10.9701 14.8977C9.68287 14.8968 8.42025 14.5447 7.31838 13.8792C4.74738 14.7319 2.89038 17.1521 2.89038 20.0089V20.9321C2.89038 21.6206 3.37338 22.2139 4.04913 22.3429C5.97888 22.7127 8.31588 22.9999 10.9701 22.9999C11.3189 22.9999 11.6459 22.9826 11.9834 22.9736C11.9029 22.6951 11.888 22.4017 11.9399 22.1164L12.2211 20.4574C12.2661 20.1049 12.4499 19.7344 12.7446 19.4381L16.4774 15.7129L16.9416 15.2456C16.2704 14.6338 15.4784 14.1696 14.6166 13.8829C13.5159 14.5461 12.2552 14.8969 10.9701 14.8977Z" fill="#4E4B66"/>
</svg>
