<svg xmlns="http://www.w3.org/2000/svg" width="13" height="13.847" viewBox="0 0 13 13.847">
  <g id="guest" transform="translate(-15.687 0)">
    <g id="XMLID_1039_" transform="translate(15.687 0)">
      <path id="XMLID_1042_" d="M24.624,12.356a2.434,2.434,0,0,1,.91-1.9,1.757,1.757,0,0,1,.856-2.415V0h-10.7V13.837h8.937V12.356Zm-7.18-3.789V7.757h4.027v.811Zm4.027,1.595v.811H17.444v-.811Zm-4.027-4V5.351h4.027v.811Zm0-2.405V2.946h4.027v.811Zm6.13,7.328-.992-.651.445-.678.448.294.768-.746.565.581Zm0-2.405-.992-.651.445-.678.448.294.768-.746.565.581Zm0-2.405-.992-.651.445-.678.448.294.768-.746.565.581Zm0-2.405-.992-.651.445-.678.448.294.768-.746.565.581Z" transform="translate(-15.687 0)"/>
      <path id="XMLID_1058_" d="M378.783,324.337l-.454-.259.364-.375a.946.946,0,1,0-1.375-.017l.354.384-.46.247a1.625,1.625,0,0,0-.858,1.433v1.491h3.252V325.75A1.631,1.631,0,0,0,378.783,324.337Z" transform="translate(-366.607 -313.394)"/>
    </g>
  </g>
</svg>
