<svg xmlns="http://www.w3.org/2000/svg" width="13" height="11.607" viewBox="0 0 13 11.607">
  <g id="wallet" transform="translate(-2 -4)">
    <path id="Path_23242" data-name="Path 23242" d="M15,13.286v1.161a1.162,1.162,0,0,1-1.161,1.161H3.857A1.859,1.859,0,0,1,2,13.75V5.857A1.859,1.859,0,0,1,3.857,4h8.589a.7.7,0,0,1,0,1.393H3.857a.465.465,0,0,0,0,.929h9.982A1.162,1.162,0,0,1,15,7.482V8.643H12.679a2.321,2.321,0,1,0,0,4.643Z" transform="translate(0 0)"/>
    <path id="Path_23243" data-name="Path 23243" d="M25.714,16v2.786H23.393a1.393,1.393,0,0,1,0-2.786Z" transform="translate(-10.714 -6.429)"/>
  </g>
</svg>
