<svg xmlns="http://www.w3.org/2000/svg" xmlns:xlink="http://www.w3.org/1999/xlink" width="40" height="40" viewBox="0 0 40 40">
  <defs>
    <linearGradient id="linear-gradient" x1="0.5" y1="0.927" x2="0.5" y2="-0.073" gradientUnits="objectBoundingBox">
      <stop offset="0" stop-color="#78cd51"/>
      <stop offset="1" stop-color="#a0fc84"/>
    </linearGradient>
  </defs>
  <g id="Group_14517" data-name="Group 14517" transform="translate(-756.665 -207.946)">
    <circle id="Ellipse_710" data-name="Ellipse 710" cx="20" cy="20" r="20" transform="translate(756.665 207.946)" fill="url(#linear-gradient)"/>
    <g id="Group_14516" data-name="Group 14516" transform="translate(764.517 214.851)">
      <path id="WA_Logo" data-name="WA Logo" d="M1.8,19.024a12.688,12.688,0,1,1,10.994,6.353h-.005a12.683,12.683,0,0,1-6.063-1.544L0,25.6Zm5.623,2.741a10.526,10.526,0,0,0,5.367,1.469h0a10.543,10.543,0,1,0-8.933-4.94l.251.4-1.065,3.89,3.991-1.047ZM14.865,18.6a18.2,18.2,0,0,1-1.807-.668,14.126,14.126,0,0,1-5.415-4.785A6.165,6.165,0,0,1,6.347,9.866a3.553,3.553,0,0,1,1.11-2.644,1.164,1.164,0,0,1,.845-.4c.211,0,.423,0,.607.011h.071c.185,0,.415,0,.642.543.264.635.9,2.194.977,2.353a.581.581,0,0,1,.026.555,2.149,2.149,0,0,1-.317.529c-.159.185-.333.413-.476.555-.158.158-.323.329-.139.647a9.545,9.545,0,0,0,1.763,2.2,8.657,8.657,0,0,0,2.549,1.573c.317.159.5.132.687-.079s.792-.926,1-1.243.423-.265.714-.159,1.849.872,2.166,1.031.528.238.608.37A2.65,2.65,0,0,1,19,17.216a3.266,3.266,0,0,1-2.14,1.507,5.206,5.206,0,0,1-.769.061A4.023,4.023,0,0,1,14.865,18.6Z" transform="translate(0 0)" fill="#fff"/>
    </g>
  </g>
</svg>
